<svg width="217" height="48" viewBox="0 0 217 48" fill="none" xmlns="http://www.w3.org/2000/svg">
<g clip-path="url(#clip0_14622_333)">
<path d="M58.2488 28.5V18.5059H60.9627V28.5H58.2488ZM66.1941 18.5059C67.101 18.5059 67.8552 18.6175 68.4568 18.8408C69.0583 19.0596 69.5095 19.3877 69.8103 19.8252C70.1156 20.2627 70.2683 20.8073 70.2683 21.459C70.2683 21.8646 70.1999 22.2337 70.0632 22.5664C69.9265 22.8991 69.7305 23.1976 69.4753 23.4619C69.2247 23.7217 68.9239 23.9495 68.573 24.1455L71.4851 28.5H68.4226L66.3034 24.8633H65.6198V28.5H62.9197V18.5059H66.1941ZM66.153 20.5498H65.6198V22.833H66.1257C66.5404 22.833 66.8799 22.7419 67.1443 22.5596C67.4086 22.3773 67.5407 22.0514 67.5407 21.582C67.5407 21.2585 67.4314 21.0055 67.2126 20.8232C66.9939 20.641 66.6407 20.5498 66.153 20.5498ZM81.7428 28.5L81.2506 26.627H78.0036L77.4977 28.5H74.5309L77.7916 18.4648H81.3942L84.6959 28.5H81.7428ZM80.6901 24.4121L80.2594 22.7715C80.2138 22.5938 80.1478 22.3408 80.0612 22.0127C79.9746 21.68 79.888 21.3382 79.8014 20.9873C79.7194 20.6318 79.6556 20.3402 79.61 20.1123C79.569 20.3402 79.5097 20.6227 79.4323 20.96C79.3594 21.2926 79.2819 21.623 79.1998 21.9512C79.1224 22.2793 79.054 22.5527 78.9948 22.7715L78.5641 24.4121H80.6901ZM88.9996 28.5V18.5059H91.6998V26.3193H95.5484V28.5H88.9996ZM103.07 28.5L102.578 26.627H99.3306L98.8247 28.5H95.8579L99.1187 18.4648H102.721L106.023 28.5H103.07ZM102.017 24.4121L101.586 22.7715C101.541 22.5938 101.475 22.3408 101.388 22.0127C101.302 21.68 101.215 21.3382 101.128 20.9873C101.046 20.6318 100.983 20.3402 100.937 20.1123C100.896 20.3402 100.837 20.6227 100.759 20.96C100.686 21.2926 100.609 21.623 100.527 21.9512C100.449 22.2793 100.381 22.5527 100.322 22.7715L99.8911 24.4121H102.017ZM114.736 28.5H112.036V20.7139H109.595V18.5059H117.169V20.7139H114.736V28.5ZM118.388 28.5V18.5059H121.102V28.5H118.388ZM128.993 28.5H123.059V18.5059H128.993V20.6729H125.759V22.2451H128.753V24.4121H125.759V26.2988H128.993V28.5ZM140.048 28.5H136.507L132.857 21.459H132.795C132.818 21.6732 132.839 21.9307 132.857 22.2314C132.875 22.5322 132.891 22.8398 132.905 23.1543C132.918 23.4642 132.925 23.7445 132.925 23.9951V28.5H130.533V18.5059H134.06L137.697 25.4512H137.738C137.724 25.2324 137.71 24.9795 137.697 24.6924C137.683 24.4007 137.669 24.1068 137.656 23.8105C137.646 23.5143 137.642 23.2523 137.642 23.0244V18.5059H140.048V28.5ZM150.482 23.291C150.482 24.4531 150.265 25.4193 149.832 26.1895C149.399 26.9596 148.789 27.5384 148 27.9258C147.216 28.3086 146.294 28.5 145.232 28.5H141.998V18.5059H145.457C146.533 18.5059 147.444 18.6904 148.192 19.0596C148.939 19.4287 149.506 19.9688 149.894 20.6797C150.286 21.3906 150.482 22.2611 150.482 23.291ZM147.679 23.3867C147.679 22.7806 147.597 22.2793 147.433 21.8828C147.273 21.4818 147.032 21.1833 146.708 20.9873C146.385 20.7868 145.977 20.6865 145.485 20.6865H144.699V26.2852H145.3C146.12 26.2852 146.722 26.0482 147.105 25.5742C147.488 25.0957 147.679 24.3665 147.679 23.3867ZM158.201 28.5L157.709 26.627H154.462L153.956 28.5H150.989L154.25 18.4648H157.853L161.155 28.5H158.201ZM157.149 24.4121L156.718 22.7715C156.672 22.5938 156.606 22.3408 156.52 22.0127C156.433 21.68 156.347 21.3382 156.26 20.9873C156.178 20.6318 156.114 20.3402 156.069 20.1123C156.028 20.3402 155.968 20.6227 155.891 20.96C155.818 21.2926 155.74 21.623 155.658 21.9512C155.581 22.2793 155.513 22.5527 155.453 22.7715L155.023 24.4121H157.149Z" fill="white"/>
</g>
<rect x="1" y="0.5" width="215" height="47" rx="4.5" stroke="white"/>
<defs>
<clipPath id="clip0_14622_333">
<rect x="0.5" width="216" height="48" rx="5" fill="white"/>
</clipPath>
</defs>
</svg>
