<svg width="212" height="26" viewBox="0 0 212 26" fill="none" xmlns="http://www.w3.org/2000/svg">
<g filter="url(#filter0_d_12638_2657)">
<path d="M10.983 0.900047C17.223 0.900047 21.191 4.16405 21.191 9.34805C21.191 14.532 17.223 17.796 10.983 17.796H7.751V23.3H0.199V0.900047H10.983ZM10.503 11.972C12.583 11.972 13.575 10.98 13.575 9.34805C13.575 7.71605 12.583 6.72405 10.503 6.72405H7.751V11.972H10.503ZM35.7243 23.812C28.4283 23.812 23.0843 18.884 23.0843 12.1C23.0843 5.31605 28.4283 0.388048 35.7243 0.388048C43.0203 0.388048 48.3643 5.31605 48.3643 12.1C48.3643 18.884 43.0203 23.812 35.7243 23.812ZM35.7243 17.7C38.5083 17.7 40.7483 15.588 40.7483 12.1C40.7483 8.61205 38.5083 6.50005 35.7243 6.50005C32.9403 6.50005 30.7003 8.61205 30.7003 12.1C30.7003 15.588 32.9403 17.7 35.7243 17.7ZM64.5133 23.3L60.7053 17.668H58.6573V23.3H51.1053V0.900047H61.8893C68.1293 0.900047 72.0973 4.16405 72.0973 9.34805C72.0973 12.58 70.5613 15.012 67.8733 16.388L72.5773 23.3H64.5133ZM64.4813 9.34805C64.4813 7.71605 63.4893 6.72405 61.4093 6.72405H58.6573V11.972H61.4093C63.4893 11.972 64.4813 10.98 64.4813 9.34805ZM95.3268 0.900047C101.567 0.900047 105.535 4.16405 105.535 9.34805C105.535 14.532 101.567 17.796 95.3268 17.796H92.0948V23.3H84.5428V0.900047H95.3268ZM94.8468 11.972C96.9268 11.972 97.9188 10.98 97.9188 9.34805C97.9188 7.71605 96.9268 6.72405 94.8468 6.72405H92.0948V11.972H94.8468ZM120.068 23.812C112.772 23.812 107.428 18.884 107.428 12.1C107.428 5.31605 112.772 0.388048 120.068 0.388048C127.364 0.388048 132.708 5.31605 132.708 12.1C132.708 18.884 127.364 23.812 120.068 23.812ZM120.068 17.7C122.852 17.7 125.092 15.588 125.092 12.1C125.092 8.61205 122.852 6.50005 120.068 6.50005C117.284 6.50005 115.044 8.61205 115.044 12.1C115.044 15.588 117.284 17.7 120.068 17.7ZM147.033 23.812C139.833 23.812 134.553 18.98 134.553 12.1C134.553 5.22005 139.833 0.388048 147.033 0.388048C151.417 0.388048 154.873 1.98805 157.081 4.86805L152.313 9.12405C151.001 7.46005 149.433 6.50005 147.417 6.50005C144.281 6.50005 142.169 8.67605 142.169 12.1C142.169 15.524 144.281 17.7 147.417 17.7C149.433 17.7 151.001 16.74 152.313 15.076L157.081 19.332C154.873 22.212 151.417 23.812 147.033 23.812ZM170.537 23.812C163.241 23.812 157.897 18.884 157.897 12.1C157.897 5.31605 163.241 0.388048 170.537 0.388048C177.833 0.388048 183.177 5.31605 183.177 12.1C183.177 18.884 177.833 23.812 170.537 23.812ZM170.537 17.7C173.321 17.7 175.561 15.588 175.561 12.1C175.561 8.61205 173.321 6.50005 170.537 6.50005C167.753 6.50005 165.513 8.61205 165.513 12.1C165.513 15.588 167.753 17.7 170.537 17.7ZM188.333 23.62C185.933 23.62 184.109 21.892 184.109 19.46C184.109 16.996 185.933 15.364 188.333 15.364C190.733 15.364 192.557 16.996 192.557 19.46C192.557 21.892 190.733 23.62 188.333 23.62ZM198.052 23.62C195.652 23.62 193.828 21.892 193.828 19.46C193.828 16.996 195.652 15.364 198.052 15.364C200.452 15.364 202.276 16.996 202.276 19.46C202.276 21.892 200.452 23.62 198.052 23.62ZM207.77 23.62C205.37 23.62 203.546 21.892 203.546 19.46C203.546 16.996 205.37 15.364 207.77 15.364C210.17 15.364 211.994 16.996 211.994 19.46C211.994 21.892 210.17 23.62 207.77 23.62Z" fill="white"/>
</g>
<defs>
<filter id="filter0_d_12638_2657" x="0.199219" y="0.388062" width="211.795" height="25.424" filterUnits="userSpaceOnUse" color-interpolation-filters="sRGB">
<feFlood flood-opacity="0" result="BackgroundImageFix"/>
<feColorMatrix in="SourceAlpha" type="matrix" values="0 0 0 0 0 0 0 0 0 0 0 0 0 0 0 0 0 0 127 0" result="hardAlpha"/>
<feOffset dy="2"/>
<feComposite in2="hardAlpha" operator="out"/>
<feColorMatrix type="matrix" values="0 0 0 0 0 0 0 0 0 0 0 0 0 0 0 0 0 0 0.25 0"/>
<feBlend mode="normal" in2="BackgroundImageFix" result="effect1_dropShadow_12638_2657"/>
<feBlend mode="normal" in="SourceGraphic" in2="effect1_dropShadow_12638_2657" result="shape"/>
</filter>
</defs>
</svg>
