<svg version="1.2" xmlns="http://www.w3.org/2000/svg" viewBox="0 0 400 30" width="400" height="30"><style>.a{fill:#fff}.b{fill:#00529b}</style><path fill-rule="evenodd" class="a" d="m422-8.6v47.2h-567v-47.2z"/><path class="b" d="m198.5 17v-6.8h1.4c1.8 0 2.7 1 2.7 2.5 0 1.5-0.9 2.5-2.7 2.5h-1v1.8zm0.4-2.1h1c1.7 0 2.3-1 2.3-2.2 0-1.2-0.6-2.1-2.3-2.1h-1zm11.4 2.1c-1.9 0-3.5-1.4-3.5-3.4 0-2.1 1.6-3.5 3.5-3.5 1.9 0 3.5 1.4 3.5 3.5 0 2-1.6 3.4-3.5 3.4zm0-0.3c1.8 0 3.1-1.3 3.1-3.1 0-1.8-1.3-3.1-3.1-3.1-1.7 0-3 1.3-3 3.1 0 1.8 1.3 3.1 3 3.1zm9.5 0.3l-2.2-6.8h0.5l1.6 5.4c0.1 0.2 0.1 0.5 0.1 0.5 0 0 0.1-0.3 0.2-0.5l1.9-5.5h0.1l2 5.5c0 0.2 0.1 0.5 0.1 0.5 0 0 0.1-0.3 0.1-0.5l1.7-5.4h0.4l-2.1 6.8h-0.1l-2-5.6c-0.1-0.2-0.1-0.5-0.1-0.5 0 0-0.1 0.3-0.2 0.5l-1.9 5.6zm11 0v-6.8h3.9v0.3h-3.5v3.7h3.2v0.3h-3.2v2.1h3.7v0.4zm11.3-2.1l1.5 2.1h-0.5l-1.4-2q-0.4 0.1-0.8 0.1h-1v1.9h-0.4v-6.8h1.4c1.8 0 2.7 1.1 2.7 2.4 0 1-0.5 1.9-1.5 2.3zm-2.2-0.1h0.9c1.7 0 2.4-1 2.4-2.2 0-1.1-0.7-2.1-2.4-2.1h-0.9zm8.5 2.2v-6.8h3.9v0.4h-3.5v3.6h3.2v0.4h-3.2v2.1h3.7v0.3zm8.7 0v-6.8h1.5c2.3 0 3.7 1.4 3.7 3.4 0 2.1-1.4 3.4-3.7 3.4zm0.4-0.3h1c2.2 0 3.3-1.3 3.3-3.1 0-1.7-1.1-3-3.3-3h-1zm14.8 0.4v-6.8h2.1c1.3 0 1.9 0.7 1.9 1.6 0 0.7-0.3 1.2-0.9 1.4 0.9 0.2 1.4 0.9 1.4 1.8 0 1.1-0.6 2-2.1 2zm0.4-3.9h1.9c1 0 1.3-0.6 1.3-1.3 0-0.7-0.4-1.3-1.4-1.3h-1.8zm0 3.6h2c1.3 0 1.8-0.7 1.8-1.6 0-0.9-0.5-1.6-1.8-1.6h-2zm10.4 0.4v-2.2l-2.5-4.6h0.4l2.2 3.9c0.1 0.2 0.2 0.4 0.2 0.4 0 0 0.1-0.2 0.1-0.4l2.2-3.9h0.4l-2.5 4.7v2.1z"/><path class="b" d="m298.1 17v-6.9h0.1l3.4 3.7 3.3-3.7h0.1v6.9h-1.4v-2.6c0-0.4 0.1-1.1 0.1-1.1 0 0-0.4 0.6-0.7 0.9l-1.4 1.5h-0.1l-1.4-1.5c-0.3-0.3-0.7-0.9-0.7-0.9 0 0 0 0.7 0 1.1v2.6zm11.4 0v-6.8h1.4v6.8zm11.3 0.1l-3.5-3.3c-0.3-0.3-0.8-0.9-0.8-0.9 0 0 0.1 0.8 0.1 1.3v2.8h-1.3v-6.9h0.2l3.4 3.3c0.3 0.3 0.8 0.9 0.8 0.9 0 0-0.1-0.8-0.1-1.2v-2.9h1.3v6.9zm4.6-0.1v-6.8h1.4v6.8zm5.8 0v-6.9h0.2l3.3 3.7 3.3-3.7h0.1v6.9h-1.3v-2.6c0-0.4 0-1.1 0-1.1 0 0-0.4 0.6-0.7 0.9l-1.4 1.5h-0.1l-1.3-1.5c-0.4-0.3-0.8-0.9-0.8-0.9 0 0 0.1 0.7 0.1 1.1v2.6zm10.8 0l3-6.9h0.1l3.1 6.9h-1.5l-0.3-0.8h-2.7l-0.4 0.8zm2.2-1.9h1.8l-0.5-1.2c-0.2-0.5-0.4-1.2-0.4-1.2 0 0-0.2 0.7-0.4 1.2zm8 1.9v-6.8h1.4v5.6h3v1.2zm8.1 0l3-6.8h0.2l3.1 6.8h-1.5l-0.3-0.7h-2.8l-0.3 0.7zm2.1-1.9h1.8l-0.5-1.2c-0.2-0.5-0.4-1.2-0.4-1.2 0 0-0.2 0.7-0.4 1.2zm11.6-0.2l1.5 2.1h-1.7l-1.1-1.7q-0.2 0.1-0.4 0.1h-0.5v1.6h-1.4v-6.8h1.9c1.9 0 3.1 0.9 3.1 2.6 0 1.1-0.5 1.7-1.4 2.1zm-2.2-0.8h0.5c1.1 0 1.6-0.3 1.6-1.3 0-0.9-0.5-1.3-1.6-1.3h-0.5zm9.2 2.9v-5.6h-1.9v-1.2h5.3v1.2h-2v5.6z"/></svg>