<svg width="212" height="35" viewBox="0 0 212 35" fill="none" xmlns="http://www.w3.org/2000/svg">
<path d="M6.54785 11H0.791992V1.00586H6.54785V2.74219H2.91113V4.93652H6.29492V6.67285H2.91113V9.25H6.54785V11ZM13.8076 8.73047C13.8076 9.25 13.6846 9.68978 13.4385 10.0498C13.1969 10.4053 12.8346 10.6764 12.3516 10.8633C11.8685 11.0456 11.2669 11.1367 10.5469 11.1367C10.0137 11.1367 9.55566 11.1025 9.17285 11.0342C8.7946 10.9658 8.41178 10.8519 8.02441 10.6924V8.96973C8.43913 9.15658 8.88346 9.31152 9.35742 9.43457C9.83594 9.55306 10.2552 9.6123 10.6152 9.6123C11.0208 9.6123 11.3102 9.55306 11.4834 9.43457C11.6611 9.31152 11.75 9.15202 11.75 8.95605C11.75 8.82845 11.7135 8.71452 11.6406 8.61426C11.5723 8.50944 11.4219 8.39323 11.1895 8.26562C10.957 8.13346 10.5924 7.96257 10.0957 7.75293C9.61719 7.55241 9.22298 7.34961 8.91309 7.14453C8.60775 6.93945 8.37988 6.69792 8.22949 6.41992C8.08366 6.13737 8.01074 5.77962 8.01074 5.34668C8.01074 4.6403 8.28418 4.10938 8.83105 3.75391C9.38249 3.39388 10.1185 3.21387 11.0391 3.21387C11.513 3.21387 11.9642 3.26172 12.3926 3.35742C12.8255 3.45312 13.2699 3.60579 13.7256 3.81543L13.0967 5.31934C12.7184 5.15527 12.3607 5.02083 12.0234 4.91602C11.6908 4.8112 11.3512 4.75879 11.0049 4.75879C10.6995 4.75879 10.4694 4.7998 10.3145 4.88184C10.1595 4.96387 10.082 5.08919 10.082 5.25781C10.082 5.38086 10.1208 5.49023 10.1982 5.58594C10.2803 5.68164 10.4352 5.78874 10.6631 5.90723C10.8955 6.02116 11.235 6.16927 11.6816 6.35156C12.1146 6.5293 12.4906 6.71615 12.8096 6.91211C13.1286 7.10352 13.3747 7.34277 13.5479 7.62988C13.721 7.91243 13.8076 8.2793 13.8076 8.73047ZM18.6543 9.47559C18.8822 9.47559 19.1032 9.4528 19.3174 9.40723C19.5361 9.36165 19.7526 9.30469 19.9668 9.23633V10.7881C19.7435 10.8883 19.4655 10.9704 19.1328 11.0342C18.8047 11.1025 18.4447 11.1367 18.0527 11.1367C17.597 11.1367 17.1868 11.0638 16.8223 10.918C16.4622 10.7676 16.1774 10.5101 15.9678 10.1455C15.7627 9.77637 15.6602 9.26367 15.6602 8.60742V4.92285H14.6621V4.04102L15.8105 3.34375L16.4121 1.73047H17.7451V3.35742H19.8848V4.92285H17.7451V8.60742C17.7451 8.89909 17.8271 9.11784 17.9912 9.26367C18.1598 9.40495 18.3809 9.47559 18.6543 9.47559ZM24.6494 3.2002C25.6748 3.2002 26.4609 3.4235 27.0078 3.87012C27.5547 4.31673 27.8281 4.99577 27.8281 5.90723V11H26.3721L25.9688 9.96094H25.9141C25.6953 10.2344 25.472 10.4577 25.2441 10.6309C25.0163 10.804 24.7542 10.9316 24.458 11.0137C24.1618 11.0957 23.8018 11.1367 23.3779 11.1367C22.9268 11.1367 22.5212 11.0501 22.1611 10.877C21.8057 10.7038 21.5254 10.4395 21.3203 10.084C21.1152 9.72396 21.0127 9.26823 21.0127 8.7168C21.0127 7.9056 21.2975 7.30859 21.8672 6.92578C22.4368 6.53841 23.2913 6.32422 24.4307 6.2832L25.7568 6.24219V5.90723C25.7568 5.50618 25.652 5.21224 25.4424 5.02539C25.2327 4.83854 24.9411 4.74512 24.5674 4.74512C24.1982 4.74512 23.8359 4.79753 23.4805 4.90234C23.125 5.00716 22.7695 5.13932 22.4141 5.29883L21.7236 3.89062C22.1292 3.67643 22.5827 3.50781 23.084 3.38477C23.5898 3.26172 24.1117 3.2002 24.6494 3.2002ZM25.7568 7.45898L24.9502 7.48633C24.2757 7.50456 23.8063 7.62533 23.542 7.84863C23.2822 8.07194 23.1523 8.36589 23.1523 8.73047C23.1523 9.04948 23.2458 9.27734 23.4326 9.41406C23.6195 9.54622 23.8633 9.6123 24.1641 9.6123C24.6107 9.6123 24.9867 9.48014 25.292 9.21582C25.6019 8.9515 25.7568 8.57552 25.7568 8.08789V7.45898ZM27.3359 0.274414V0.417969C27.2038 0.545573 27.0306 0.702799 26.8164 0.889648C26.6022 1.0765 26.3721 1.27246 26.126 1.47754C25.8799 1.67806 25.6383 1.87174 25.4014 2.05859C25.1644 2.24089 24.957 2.39355 24.7793 2.5166H23.3916V2.33203C23.542 2.15885 23.7152 1.95378 23.9111 1.7168C24.1117 1.47526 24.3099 1.22689 24.5059 0.97168C24.7018 0.716471 24.8659 0.484049 24.998 0.274414H27.3359ZM35.3135 8.73047C35.3135 9.25 35.1904 9.68978 34.9443 10.0498C34.7028 10.4053 34.3405 10.6764 33.8574 10.8633C33.3743 11.0456 32.7728 11.1367 32.0527 11.1367C31.5195 11.1367 31.0615 11.1025 30.6787 11.0342C30.3005 10.9658 29.9176 10.8519 29.5303 10.6924V8.96973C29.945 9.15658 30.3893 9.31152 30.8633 9.43457C31.3418 9.55306 31.7611 9.6123 32.1211 9.6123C32.5267 9.6123 32.8161 9.55306 32.9893 9.43457C33.167 9.31152 33.2559 9.15202 33.2559 8.95605C33.2559 8.82845 33.2194 8.71452 33.1465 8.61426C33.0781 8.50944 32.9277 8.39323 32.6953 8.26562C32.4629 8.13346 32.0983 7.96257 31.6016 7.75293C31.123 7.55241 30.7288 7.34961 30.4189 7.14453C30.1136 6.93945 29.8857 6.69792 29.7354 6.41992C29.5895 6.13737 29.5166 5.77962 29.5166 5.34668C29.5166 4.6403 29.79 4.10938 30.3369 3.75391C30.8883 3.39388 31.6243 3.21387 32.5449 3.21387C33.0189 3.21387 33.4701 3.26172 33.8984 3.35742C34.3314 3.45312 34.7757 3.60579 35.2314 3.81543L34.6025 5.31934C34.2243 5.15527 33.8665 5.02083 33.5293 4.91602C33.1966 4.8112 32.8571 4.75879 32.5107 4.75879C32.2054 4.75879 31.9753 4.7998 31.8203 4.88184C31.6654 4.96387 31.5879 5.08919 31.5879 5.25781C31.5879 5.38086 31.6266 5.49023 31.7041 5.58594C31.7861 5.68164 31.9411 5.78874 32.1689 5.90723C32.4014 6.02116 32.7409 6.16927 33.1875 6.35156C33.6204 6.5293 33.9964 6.71615 34.3154 6.91211C34.6344 7.10352 34.8805 7.34277 35.0537 7.62988C35.2269 7.91243 35.3135 8.2793 35.3135 8.73047ZM43.6807 11.1367C42.9242 11.1367 42.2793 11 41.7461 10.7266C41.2129 10.4486 40.8073 10.0202 40.5293 9.44141C40.2513 8.86263 40.1123 8.12207 40.1123 7.21973C40.1123 6.28548 40.2695 5.52441 40.584 4.93652C40.903 4.34408 41.3428 3.90885 41.9033 3.63086C42.4684 3.35286 43.1224 3.21387 43.8652 3.21387C44.3939 3.21387 44.8496 3.26628 45.2324 3.37109C45.6198 3.47135 45.957 3.59212 46.2441 3.7334L45.6289 5.34668C45.3008 5.21452 44.9954 5.10742 44.7129 5.02539C44.4303 4.9388 44.1478 4.89551 43.8652 4.89551C43.5007 4.89551 43.1976 4.9821 42.9561 5.15527C42.7145 5.32389 42.5345 5.5791 42.416 5.9209C42.2975 6.2627 42.2383 6.69108 42.2383 7.20605C42.2383 7.71191 42.3021 8.13118 42.4297 8.46387C42.5573 8.79655 42.7419 9.04492 42.9834 9.20898C43.2249 9.36849 43.5189 9.44824 43.8652 9.44824C44.2982 9.44824 44.6833 9.39128 45.0205 9.27734C45.3577 9.15885 45.6859 8.99479 46.0049 8.78516V10.5693C45.6859 10.7699 45.3509 10.9134 45 11C44.6536 11.0911 44.2139 11.1367 43.6807 11.1367ZM50.9131 3.2002C51.9385 3.2002 52.7246 3.4235 53.2715 3.87012C53.8184 4.31673 54.0918 4.99577 54.0918 5.90723V11H52.6357L52.2324 9.96094H52.1777C51.959 10.2344 51.7357 10.4577 51.5078 10.6309C51.2799 10.804 51.0179 10.9316 50.7217 11.0137C50.4255 11.0957 50.0654 11.1367 49.6416 11.1367C49.1904 11.1367 48.7848 11.0501 48.4248 10.877C48.0693 10.7038 47.7891 10.4395 47.584 10.084C47.3789 9.72396 47.2764 9.26823 47.2764 8.7168C47.2764 7.9056 47.5612 7.30859 48.1309 6.92578C48.7005 6.53841 49.555 6.32422 50.6943 6.2832L52.0205 6.24219V5.90723C52.0205 5.50618 51.9157 5.21224 51.7061 5.02539C51.4964 4.83854 51.2048 4.74512 50.8311 4.74512C50.4619 4.74512 50.0996 4.79753 49.7441 4.90234C49.3887 5.00716 49.0332 5.13932 48.6777 5.29883L47.9873 3.89062C48.3929 3.67643 48.8464 3.50781 49.3477 3.38477C49.8535 3.26172 50.3753 3.2002 50.9131 3.2002ZM52.0205 7.45898L51.2139 7.48633C50.5394 7.50456 50.07 7.62533 49.8057 7.84863C49.5459 8.07194 49.416 8.36589 49.416 8.73047C49.416 9.04948 49.5094 9.27734 49.6963 9.41406C49.8831 9.54622 50.127 9.6123 50.4277 9.6123C50.8743 9.6123 51.2503 9.48014 51.5557 9.21582C51.8656 8.9515 52.0205 8.57552 52.0205 8.08789V7.45898ZM58.665 11.1367C57.8128 11.1367 57.1178 10.804 56.5801 10.1387C56.0469 9.46875 55.7803 8.48665 55.7803 7.19238C55.7803 5.88444 56.0514 4.89551 56.5938 4.22559C57.1361 3.55111 57.8447 3.21387 58.7197 3.21387C59.0843 3.21387 59.4056 3.264 59.6836 3.36426C59.9616 3.46452 60.2008 3.59896 60.4014 3.76758C60.6064 3.9362 60.7796 4.12533 60.9209 4.33496H60.9893C60.9619 4.18913 60.9277 3.97493 60.8867 3.69238C60.8503 3.40527 60.832 3.11133 60.832 2.81055V0.363281H62.9238V11H61.3242L60.9209 10.0088H60.832C60.6999 10.2184 60.5335 10.4098 60.333 10.583C60.137 10.7516 59.9023 10.8861 59.6289 10.9863C59.3555 11.0866 59.0342 11.1367 58.665 11.1367ZM59.3965 9.47559C59.9661 9.47559 60.3672 9.30697 60.5996 8.96973C60.8366 8.62793 60.9619 8.11523 60.9756 7.43164V7.20605C60.9756 6.46322 60.8617 5.89583 60.6338 5.50391C60.4059 5.10742 59.9821 4.90918 59.3623 4.90918C58.902 4.90918 58.542 5.10742 58.2822 5.50391C58.0225 5.90039 57.8926 6.47233 57.8926 7.21973C57.8926 7.96712 58.0225 8.52995 58.2822 8.9082C58.5465 9.28646 58.918 9.47559 59.3965 9.47559ZM68.2354 3.2002C69.2607 3.2002 70.0469 3.4235 70.5938 3.87012C71.1406 4.31673 71.4141 4.99577 71.4141 5.90723V11H69.958L69.5547 9.96094H69.5C69.2812 10.2344 69.0579 10.4577 68.8301 10.6309C68.6022 10.804 68.3402 10.9316 68.0439 11.0137C67.7477 11.0957 67.3877 11.1367 66.9639 11.1367C66.5127 11.1367 66.1071 11.0501 65.7471 10.877C65.3916 10.7038 65.1113 10.4395 64.9062 10.084C64.7012 9.72396 64.5986 9.26823 64.5986 8.7168C64.5986 7.9056 64.8835 7.30859 65.4531 6.92578C66.0228 6.53841 66.8773 6.32422 68.0166 6.2832L69.3428 6.24219V5.90723C69.3428 5.50618 69.238 5.21224 69.0283 5.02539C68.8187 4.83854 68.527 4.74512 68.1533 4.74512C67.7842 4.74512 67.4219 4.79753 67.0664 4.90234C66.7109 5.00716 66.3555 5.13932 66 5.29883L65.3096 3.89062C65.7152 3.67643 66.1686 3.50781 66.6699 3.38477C67.1758 3.26172 67.6976 3.2002 68.2354 3.2002ZM69.3428 7.45898L68.5361 7.48633C67.8617 7.50456 67.3923 7.62533 67.1279 7.84863C66.8682 8.07194 66.7383 8.36589 66.7383 8.73047C66.7383 9.04948 66.8317 9.27734 67.0186 9.41406C67.2054 9.54622 67.4492 9.6123 67.75 9.6123C68.1966 9.6123 68.5726 9.48014 68.8779 9.21582C69.1878 8.9515 69.3428 8.57552 69.3428 8.08789V7.45898ZM79.0225 11L76.1104 3.35742H78.291L79.7676 7.71191C79.8496 7.96712 79.9134 8.236 79.959 8.51855C80.0091 8.80111 80.0433 9.05404 80.0615 9.27734H80.1162C80.1299 9.03581 80.1618 8.77832 80.2119 8.50488C80.2666 8.23145 80.3372 7.96712 80.4238 7.71191L81.8936 3.35742H84.0742L81.1621 11H79.0225ZM88.3262 3.21387C89.0326 3.21387 89.641 3.35059 90.1514 3.62402C90.6618 3.8929 91.056 4.28483 91.334 4.7998C91.612 5.31478 91.751 5.94368 91.751 6.68652V7.69824H86.8223C86.8451 8.28613 87.0205 8.7487 87.3486 9.08594C87.6813 9.41862 88.1416 9.58496 88.7295 9.58496C89.2171 9.58496 89.6637 9.53483 90.0693 9.43457C90.4749 9.33431 90.8919 9.18392 91.3203 8.9834V10.5967C90.9421 10.7835 90.5456 10.9202 90.1309 11.0068C89.7207 11.0934 89.2217 11.1367 88.6338 11.1367C87.8682 11.1367 87.1891 10.9954 86.5967 10.7129C86.0088 10.4303 85.5462 9.99967 85.209 9.4209C84.8763 8.84212 84.71 8.11296 84.71 7.2334C84.71 6.34017 84.8604 5.59733 85.1611 5.00488C85.4665 4.40788 85.8903 3.96126 86.4326 3.66504C86.9749 3.36426 87.6061 3.21387 88.3262 3.21387ZM88.3398 4.69727C87.9342 4.69727 87.597 4.82715 87.3281 5.08691C87.0638 5.34668 86.9111 5.75456 86.8701 6.31055H89.7959C89.7913 6.00065 89.7344 5.72493 89.625 5.4834C89.5202 5.24186 89.3607 5.05046 89.1465 4.90918C88.9368 4.7679 88.668 4.69727 88.3398 4.69727ZM98.7646 11H92.7285V9.76953L96.2695 4.9502H92.9404V3.35742H98.6416V4.71094L95.1963 9.40723H98.7646V11ZM112.895 3.21387C113.76 3.21387 114.414 3.43717 114.856 3.88379C115.303 4.32585 115.526 5.03678 115.526 6.0166V11H113.435V6.53613C113.435 5.98926 113.341 5.57682 113.154 5.29883C112.967 5.02083 112.678 4.88184 112.286 4.88184C111.735 4.88184 111.343 5.08008 111.11 5.47656C110.878 5.86849 110.762 6.43132 110.762 7.16504V11H108.677V6.53613C108.677 6.17155 108.636 5.86621 108.554 5.62012C108.472 5.37402 108.346 5.18945 108.178 5.06641C108.009 4.94336 107.793 4.88184 107.528 4.88184C107.141 4.88184 106.836 4.97982 106.612 5.17578C106.394 5.36719 106.236 5.65202 106.141 6.03027C106.049 6.40397 106.004 6.86198 106.004 7.4043V11H103.919V3.35742H105.512L105.792 4.33496H105.908C106.063 4.07064 106.257 3.85645 106.489 3.69238C106.726 3.52832 106.986 3.40755 107.269 3.33008C107.551 3.2526 107.838 3.21387 108.13 3.21387C108.69 3.21387 109.164 3.30501 109.552 3.4873C109.944 3.6696 110.244 3.95215 110.454 4.33496H110.639C110.867 3.94303 111.188 3.6582 111.603 3.48047C112.022 3.30273 112.452 3.21387 112.895 3.21387ZM120.804 3.2002C121.829 3.2002 122.615 3.4235 123.162 3.87012C123.709 4.31673 123.982 4.99577 123.982 5.90723V11H122.526L122.123 9.96094H122.068C121.85 10.2344 121.626 10.4577 121.398 10.6309C121.171 10.804 120.909 10.9316 120.612 11.0137C120.316 11.0957 119.956 11.1367 119.532 11.1367C119.081 11.1367 118.675 11.0501 118.315 10.877C117.96 10.7038 117.68 10.4395 117.475 10.084C117.27 9.72396 117.167 9.26823 117.167 8.7168C117.167 7.9056 117.452 7.30859 118.021 6.92578C118.591 6.53841 119.446 6.32422 120.585 6.2832L121.911 6.24219V5.90723C121.911 5.50618 121.806 5.21224 121.597 5.02539C121.387 4.83854 121.095 4.74512 120.722 4.74512C120.353 4.74512 119.99 4.79753 119.635 4.90234C119.279 5.00716 118.924 5.13932 118.568 5.29883L117.878 3.89062C118.284 3.67643 118.737 3.50781 119.238 3.38477C119.744 3.26172 120.266 3.2002 120.804 3.2002ZM121.911 7.45898L121.104 7.48633C120.43 7.50456 119.961 7.62533 119.696 7.84863C119.437 8.07194 119.307 8.36589 119.307 8.73047C119.307 9.04948 119.4 9.27734 119.587 9.41406C119.774 9.54622 120.018 9.6123 120.318 9.6123C120.765 9.6123 121.141 9.48014 121.446 9.21582C121.756 8.9515 121.911 8.57552 121.911 8.08789V7.45898ZM123.49 0.274414V0.417969C123.358 0.545573 123.185 0.702799 122.971 0.889648C122.757 1.0765 122.526 1.27246 122.28 1.47754C122.034 1.67806 121.793 1.87174 121.556 2.05859C121.319 2.24089 121.111 2.39355 120.934 2.5166H119.546V2.33203C119.696 2.15885 119.869 1.95378 120.065 1.7168C120.266 1.47526 120.464 1.22689 120.66 0.97168C120.856 0.716471 121.02 0.484049 121.152 0.274414H123.49ZM131.468 8.73047C131.468 9.25 131.345 9.68978 131.099 10.0498C130.857 10.4053 130.495 10.6764 130.012 10.8633C129.529 11.0456 128.927 11.1367 128.207 11.1367C127.674 11.1367 127.216 11.1025 126.833 11.0342C126.455 10.9658 126.072 10.8519 125.685 10.6924V8.96973C126.099 9.15658 126.544 9.31152 127.018 9.43457C127.496 9.55306 127.915 9.6123 128.275 9.6123C128.681 9.6123 128.97 9.55306 129.144 9.43457C129.321 9.31152 129.41 9.15202 129.41 8.95605C129.41 8.82845 129.374 8.71452 129.301 8.61426C129.232 8.50944 129.082 8.39323 128.85 8.26562C128.617 8.13346 128.253 7.96257 127.756 7.75293C127.277 7.55241 126.883 7.34961 126.573 7.14453C126.268 6.93945 126.04 6.69792 125.89 6.41992C125.744 6.13737 125.671 5.77962 125.671 5.34668C125.671 4.6403 125.944 4.10938 126.491 3.75391C127.043 3.39388 127.779 3.21387 128.699 3.21387C129.173 3.21387 129.624 3.26172 130.053 3.35742C130.486 3.45312 130.93 3.60579 131.386 3.81543L130.757 5.31934C130.379 5.15527 130.021 5.02083 129.684 4.91602C129.351 4.8112 129.011 4.75879 128.665 4.75879C128.36 4.75879 128.13 4.7998 127.975 4.88184C127.82 4.96387 127.742 5.08919 127.742 5.25781C127.742 5.38086 127.781 5.49023 127.858 5.58594C127.94 5.68164 128.095 5.78874 128.323 5.90723C128.556 6.02116 128.895 6.16927 129.342 6.35156C129.775 6.5293 130.151 6.71615 130.47 6.91211C130.789 7.10352 131.035 7.34277 131.208 7.62988C131.381 7.91243 131.468 8.2793 131.468 8.73047ZM139.835 11.1367C139.078 11.1367 138.434 11 137.9 10.7266C137.367 10.4486 136.962 10.0202 136.684 9.44141C136.406 8.86263 136.267 8.12207 136.267 7.21973C136.267 6.28548 136.424 5.52441 136.738 4.93652C137.057 4.34408 137.497 3.90885 138.058 3.63086C138.623 3.35286 139.277 3.21387 140.02 3.21387C140.548 3.21387 141.004 3.26628 141.387 3.37109C141.774 3.47135 142.111 3.59212 142.398 3.7334L141.783 5.34668C141.455 5.21452 141.15 5.10742 140.867 5.02539C140.585 4.9388 140.302 4.89551 140.02 4.89551C139.655 4.89551 139.352 4.9821 139.11 5.15527C138.869 5.32389 138.689 5.5791 138.57 5.9209C138.452 6.2627 138.393 6.69108 138.393 7.20605C138.393 7.71191 138.456 8.13118 138.584 8.46387C138.712 8.79655 138.896 9.04492 139.138 9.20898C139.379 9.36849 139.673 9.44824 140.02 9.44824C140.452 9.44824 140.838 9.39128 141.175 9.27734C141.512 9.15885 141.84 8.99479 142.159 8.78516V10.5693C141.84 10.7699 141.505 10.9134 141.154 11C140.808 11.0911 140.368 11.1367 139.835 11.1367ZM147.088 3.21387C147.794 3.21387 148.403 3.35059 148.913 3.62402C149.424 3.8929 149.818 4.28483 150.096 4.7998C150.374 5.31478 150.513 5.94368 150.513 6.68652V7.69824H145.584C145.607 8.28613 145.782 8.7487 146.11 9.08594C146.443 9.41862 146.903 9.58496 147.491 9.58496C147.979 9.58496 148.425 9.53483 148.831 9.43457C149.237 9.33431 149.654 9.18392 150.082 8.9834V10.5967C149.704 10.7835 149.307 10.9202 148.893 11.0068C148.482 11.0934 147.983 11.1367 147.396 11.1367C146.63 11.1367 145.951 10.9954 145.358 10.7129C144.771 10.4303 144.308 9.99967 143.971 9.4209C143.638 8.84212 143.472 8.11296 143.472 7.2334C143.472 6.34017 143.622 5.59733 143.923 5.00488C144.228 4.40788 144.652 3.96126 145.194 3.66504C145.737 3.36426 146.368 3.21387 147.088 3.21387ZM147.102 4.69727C146.696 4.69727 146.359 4.82715 146.09 5.08691C145.826 5.34668 145.673 5.75456 145.632 6.31055H148.558C148.553 6.00065 148.496 5.72493 148.387 5.4834C148.282 5.24186 148.122 5.05046 147.908 4.90918C147.699 4.7679 147.43 4.69727 147.102 4.69727ZM156.474 3.21387C156.578 3.21387 156.699 3.2207 156.836 3.23438C156.977 3.24349 157.091 3.25716 157.178 3.27539L157.021 5.23047C156.952 5.20768 156.854 5.19173 156.727 5.18262C156.604 5.16895 156.496 5.16211 156.405 5.16211C156.136 5.16211 155.874 5.19629 155.619 5.26465C155.368 5.33301 155.143 5.44466 154.942 5.59961C154.742 5.75 154.582 5.95052 154.464 6.20117C154.35 6.44727 154.293 6.75033 154.293 7.11035V11H152.208V3.35742H153.787L154.095 4.64258H154.197C154.348 4.38281 154.535 4.14583 154.758 3.93164C154.986 3.71289 155.243 3.53971 155.53 3.41211C155.822 3.27995 156.136 3.21387 156.474 3.21387ZM161.669 11.1367C160.912 11.1367 160.268 11 159.734 10.7266C159.201 10.4486 158.796 10.0202 158.518 9.44141C158.24 8.86263 158.101 8.12207 158.101 7.21973C158.101 6.28548 158.258 5.52441 158.572 4.93652C158.891 4.34408 159.331 3.90885 159.892 3.63086C160.457 3.35286 161.111 3.21387 161.854 3.21387C162.382 3.21387 162.838 3.26628 163.221 3.37109C163.608 3.47135 163.945 3.59212 164.232 3.7334L163.617 5.34668C163.289 5.21452 162.984 5.10742 162.701 5.02539C162.419 4.9388 162.136 4.89551 161.854 4.89551C161.489 4.89551 161.186 4.9821 160.944 5.15527C160.703 5.32389 160.523 5.5791 160.404 5.9209C160.286 6.2627 160.227 6.69108 160.227 7.20605C160.227 7.71191 160.29 8.13118 160.418 8.46387C160.546 8.79655 160.73 9.04492 160.972 9.20898C161.213 9.36849 161.507 9.44824 161.854 9.44824C162.286 9.44824 162.672 9.39128 163.009 9.27734C163.346 9.15885 163.674 8.99479 163.993 8.78516V10.5693C163.674 10.7699 163.339 10.9134 162.988 11C162.642 11.0911 162.202 11.1367 161.669 11.1367ZM168.901 3.2002C169.927 3.2002 170.713 3.4235 171.26 3.87012C171.807 4.31673 172.08 4.99577 172.08 5.90723V11H170.624L170.221 9.96094H170.166C169.947 10.2344 169.724 10.4577 169.496 10.6309C169.268 10.804 169.006 10.9316 168.71 11.0137C168.414 11.0957 168.054 11.1367 167.63 11.1367C167.179 11.1367 166.773 11.0501 166.413 10.877C166.058 10.7038 165.777 10.4395 165.572 10.084C165.367 9.72396 165.265 9.26823 165.265 8.7168C165.265 7.9056 165.549 7.30859 166.119 6.92578C166.689 6.53841 167.543 6.32422 168.683 6.2832L170.009 6.24219V5.90723C170.009 5.50618 169.904 5.21224 169.694 5.02539C169.485 4.83854 169.193 4.74512 168.819 4.74512C168.45 4.74512 168.088 4.79753 167.732 4.90234C167.377 5.00716 167.021 5.13932 166.666 5.29883L165.976 3.89062C166.381 3.67643 166.835 3.50781 167.336 3.38477C167.842 3.26172 168.364 3.2002 168.901 3.2002ZM170.009 7.45898L169.202 7.48633C168.528 7.50456 168.058 7.62533 167.794 7.84863C167.534 8.07194 167.404 8.36589 167.404 8.73047C167.404 9.04948 167.498 9.27734 167.685 9.41406C167.871 9.54622 168.115 9.6123 168.416 9.6123C168.863 9.6123 169.239 9.48014 169.544 9.21582C169.854 8.9515 170.009 8.57552 170.009 8.08789V7.45898ZM180.29 11.1367C179.438 11.1367 178.743 10.804 178.205 10.1387C177.672 9.46875 177.405 8.48665 177.405 7.19238C177.405 5.88444 177.676 4.89551 178.219 4.22559C178.761 3.55111 179.47 3.21387 180.345 3.21387C180.709 3.21387 181.031 3.264 181.309 3.36426C181.587 3.46452 181.826 3.59896 182.026 3.76758C182.231 3.9362 182.405 4.12533 182.546 4.33496H182.614C182.587 4.18913 182.553 3.97493 182.512 3.69238C182.475 3.40527 182.457 3.11133 182.457 2.81055V0.363281H184.549V11H182.949L182.546 10.0088H182.457C182.325 10.2184 182.159 10.4098 181.958 10.583C181.762 10.7516 181.527 10.8861 181.254 10.9863C180.98 11.0866 180.659 11.1367 180.29 11.1367ZM181.021 9.47559C181.591 9.47559 181.992 9.30697 182.225 8.96973C182.462 8.62793 182.587 8.11523 182.601 7.43164V7.20605C182.601 6.46322 182.487 5.89583 182.259 5.50391C182.031 5.10742 181.607 4.90918 180.987 4.90918C180.527 4.90918 180.167 5.10742 179.907 5.50391C179.647 5.90039 179.518 6.47233 179.518 7.21973C179.518 7.96712 179.647 8.52995 179.907 8.9082C180.172 9.28646 180.543 9.47559 181.021 9.47559ZM189.881 3.21387C190.587 3.21387 191.196 3.35059 191.706 3.62402C192.216 3.8929 192.611 4.28483 192.889 4.7998C193.167 5.31478 193.306 5.94368 193.306 6.68652V7.69824H188.377C188.4 8.28613 188.575 8.7487 188.903 9.08594C189.236 9.41862 189.696 9.58496 190.284 9.58496C190.772 9.58496 191.218 9.53483 191.624 9.43457C192.03 9.33431 192.447 9.18392 192.875 8.9834V10.5967C192.497 10.7835 192.1 10.9202 191.686 11.0068C191.275 11.0934 190.776 11.1367 190.188 11.1367C189.423 11.1367 188.744 10.9954 188.151 10.7129C187.563 10.4303 187.101 9.99967 186.764 9.4209C186.431 8.84212 186.265 8.11296 186.265 7.2334C186.265 6.34017 186.415 5.59733 186.716 5.00488C187.021 4.40788 187.445 3.96126 187.987 3.66504C188.53 3.36426 189.161 3.21387 189.881 3.21387ZM189.895 4.69727C189.489 4.69727 189.152 4.82715 188.883 5.08691C188.618 5.34668 188.466 5.75456 188.425 6.31055H191.351C191.346 6.00065 191.289 5.72493 191.18 5.4834C191.075 5.24186 190.915 5.05046 190.701 4.90918C190.492 4.7679 190.223 4.69727 189.895 4.69727ZM201.857 9.47559C202.085 9.47559 202.306 9.4528 202.521 9.40723C202.739 9.36165 202.956 9.30469 203.17 9.23633V10.7881C202.947 10.8883 202.669 10.9704 202.336 11.0342C202.008 11.1025 201.648 11.1367 201.256 11.1367C200.8 11.1367 200.39 11.0638 200.025 10.918C199.665 10.7676 199.381 10.5101 199.171 10.1455C198.966 9.77637 198.863 9.26367 198.863 8.60742V4.92285H197.865V4.04102L199.014 3.34375L199.615 1.73047H200.948V3.35742H203.088V4.92285H200.948V8.60742C200.948 8.89909 201.03 9.11784 201.194 9.26367C201.363 9.40495 201.584 9.47559 201.857 9.47559ZM211.735 3.35742V11H210.136L209.855 10.0225H209.746C209.582 10.2822 209.377 10.4941 209.131 10.6582C208.885 10.8223 208.614 10.943 208.317 11.0205C208.021 11.098 207.714 11.1367 207.395 11.1367C206.848 11.1367 206.371 11.041 205.966 10.8496C205.56 10.6536 205.243 10.3506 205.016 9.94043C204.792 9.53027 204.681 8.99707 204.681 8.34082V3.35742H206.766V7.82129C206.766 8.36816 206.864 8.7806 207.06 9.05859C207.256 9.33659 207.568 9.47559 207.996 9.47559C208.42 9.47559 208.753 9.37988 208.994 9.18848C209.236 8.99251 209.404 8.70768 209.5 8.33398C209.6 7.95573 209.65 7.49544 209.65 6.95312V3.35742H211.735ZM32.9414 22.626C32.5358 22.626 32.1758 22.7057 31.8613 22.8652C31.5514 23.0202 31.2894 23.2458 31.0752 23.542C30.8656 23.8382 30.7061 24.196 30.5967 24.6152C30.4873 25.0345 30.4326 25.5062 30.4326 26.0303C30.4326 26.7367 30.5192 27.3405 30.6924 27.8418C30.8701 28.3385 31.1436 28.7191 31.5127 28.9834C31.8818 29.2432 32.3581 29.373 32.9414 29.373C33.347 29.373 33.7526 29.3275 34.1582 29.2363C34.5684 29.1452 35.0127 29.0153 35.4912 28.8467V30.624C35.0492 30.8063 34.6139 30.9362 34.1855 31.0137C33.7572 31.0957 33.2764 31.1367 32.7432 31.1367C31.7132 31.1367 30.8656 30.9248 30.2002 30.501C29.5394 30.0726 29.0495 29.4756 28.7305 28.71C28.4115 27.9398 28.252 27.042 28.252 26.0166C28.252 25.2601 28.3545 24.5674 28.5596 23.9385C28.7646 23.3096 29.0654 22.765 29.4619 22.3047C29.8584 21.8444 30.3483 21.4889 30.9316 21.2383C31.515 20.9876 32.1849 20.8623 32.9414 20.8623C33.4382 20.8623 33.9349 20.9261 34.4316 21.0537C34.9329 21.1768 35.4115 21.3477 35.8672 21.5664L35.1836 23.2891C34.8099 23.1113 34.4339 22.9564 34.0557 22.8242C33.6774 22.6921 33.306 22.626 32.9414 22.626ZM44.4736 23.3574V31H42.874L42.5938 30.0225H42.4844C42.3203 30.2822 42.1152 30.4941 41.8691 30.6582C41.623 30.8223 41.3519 30.943 41.0557 31.0205C40.7594 31.098 40.4518 31.1367 40.1328 31.1367C39.5859 31.1367 39.1097 31.041 38.7041 30.8496C38.2985 30.6536 37.9818 30.3506 37.7539 29.9404C37.5306 29.5303 37.4189 28.9971 37.4189 28.3408V23.3574H39.5039V27.8213C39.5039 28.3682 39.6019 28.7806 39.7979 29.0586C39.9938 29.3366 40.306 29.4756 40.7344 29.4756C41.1582 29.4756 41.4909 29.3799 41.7324 29.1885C41.974 28.9925 42.1426 28.7077 42.2383 28.334C42.3385 27.9557 42.3887 27.4954 42.3887 26.9531V23.3574H44.4736ZM50.9131 23.2139C51.7744 23.2139 52.4694 23.5488 52.998 24.2188C53.5312 24.8887 53.7979 25.8708 53.7979 27.165C53.7979 28.0309 53.6725 28.7601 53.4219 29.3525C53.1712 29.9404 52.8249 30.3848 52.3828 30.6855C51.9408 30.9863 51.4326 31.1367 50.8584 31.1367C50.4893 31.1367 50.1725 31.0911 49.9082 31C49.6439 30.9043 49.4183 30.7835 49.2314 30.6377C49.0446 30.4873 48.8828 30.3278 48.7461 30.1592H48.6367C48.6732 30.3415 48.7005 30.5283 48.7188 30.7197C48.737 30.9111 48.7461 31.098 48.7461 31.2803V34.3633H46.6611V23.3574H48.3564L48.6504 24.3486H48.7461C48.8828 24.1436 49.0492 23.9544 49.2451 23.7812C49.4411 23.6081 49.6758 23.4714 49.9492 23.3711C50.2272 23.2663 50.5485 23.2139 50.9131 23.2139ZM50.2432 24.8818C49.8786 24.8818 49.5892 24.957 49.375 25.1074C49.1608 25.2578 49.0036 25.4834 48.9033 25.7842C48.8076 26.085 48.7552 26.4655 48.7461 26.9258V27.1514C48.7461 27.6436 48.7917 28.0605 48.8828 28.4023C48.9785 28.7441 49.1357 29.0039 49.3545 29.1816C49.5778 29.3594 49.8831 29.4482 50.2705 29.4482C50.5895 29.4482 50.8516 29.3594 51.0566 29.1816C51.2617 29.0039 51.4144 28.7441 51.5146 28.4023C51.6195 28.056 51.6719 27.6344 51.6719 27.1377C51.6719 26.3903 51.5557 25.8275 51.3232 25.4492C51.0908 25.071 50.7308 24.8818 50.2432 24.8818ZM62.4658 27.165C62.4658 27.8031 62.3792 28.3682 62.2061 28.8604C62.0374 29.3525 61.7891 29.7695 61.4609 30.1113C61.1374 30.4486 60.7454 30.7038 60.2852 30.877C59.8294 31.0501 59.3145 31.1367 58.7402 31.1367C58.2025 31.1367 57.708 31.0501 57.2568 30.877C56.8102 30.7038 56.4206 30.4486 56.0879 30.1113C55.7598 29.7695 55.5046 29.3525 55.3223 28.8604C55.1445 28.3682 55.0557 27.8031 55.0557 27.165C55.0557 26.3174 55.2061 25.5996 55.5068 25.0117C55.8076 24.4238 56.236 23.9772 56.792 23.6719C57.348 23.3665 58.0111 23.2139 58.7812 23.2139C59.4967 23.2139 60.1302 23.3665 60.6816 23.6719C61.2376 23.9772 61.6729 24.4238 61.9873 25.0117C62.3063 25.5996 62.4658 26.3174 62.4658 27.165ZM57.1816 27.165C57.1816 27.6663 57.2363 28.0879 57.3457 28.4297C57.4551 28.7715 57.626 29.029 57.8584 29.2021C58.0908 29.3753 58.3939 29.4619 58.7676 29.4619C59.1367 29.4619 59.4352 29.3753 59.6631 29.2021C59.8955 29.029 60.0641 28.7715 60.1689 28.4297C60.2783 28.0879 60.333 27.6663 60.333 27.165C60.333 26.6592 60.2783 26.2399 60.1689 25.9072C60.0641 25.57 59.8955 25.3171 59.6631 25.1484C59.4307 24.9798 59.1276 24.8955 58.7539 24.8955C58.2025 24.8955 57.8014 25.0846 57.5508 25.4629C57.3047 25.8411 57.1816 26.4085 57.1816 27.165ZM61.4541 20.2744V20.418C61.3219 20.5456 61.1488 20.7028 60.9346 20.8896C60.7204 21.0765 60.4902 21.2725 60.2441 21.4775C59.998 21.6781 59.7565 21.8717 59.5195 22.0586C59.2826 22.2409 59.0752 22.3936 58.8975 22.5166H57.5098V22.332C57.6602 22.1589 57.8333 21.9538 58.0293 21.7168C58.2298 21.4753 58.4281 21.2269 58.624 20.9717C58.82 20.7165 58.984 20.484 59.1162 20.2744H61.4541ZM68.5293 23.2139C69.3451 23.2139 70.0013 23.4372 70.498 23.8838C70.9948 24.3258 71.2432 25.0368 71.2432 26.0166V31H69.1582V26.5361C69.1582 25.9893 69.0579 25.5768 68.8574 25.2988C68.6615 25.0208 68.3516 24.8818 67.9277 24.8818C67.2897 24.8818 66.8545 25.0983 66.6221 25.5312C66.3896 25.9642 66.2734 26.5885 66.2734 27.4043V31H64.1885V23.3574H65.7812L66.0615 24.335H66.1777C66.3418 24.0706 66.5446 23.8564 66.7861 23.6924C67.0322 23.5283 67.3034 23.4076 67.5996 23.3301C67.9004 23.2526 68.2103 23.2139 68.5293 23.2139ZM79.4463 31.1367C78.5941 31.1367 77.8991 30.804 77.3613 30.1387C76.8281 29.4688 76.5615 28.4867 76.5615 27.1924C76.5615 25.8844 76.8327 24.8955 77.375 24.2256C77.9173 23.5511 78.626 23.2139 79.501 23.2139C79.8656 23.2139 80.1868 23.264 80.4648 23.3643C80.7428 23.4645 80.9821 23.599 81.1826 23.7676C81.3877 23.9362 81.5609 24.1253 81.7021 24.335H81.7705C81.7432 24.1891 81.709 23.9749 81.668 23.6924C81.6315 23.4053 81.6133 23.1113 81.6133 22.8105V20.3633H83.7051V31H82.1055L81.7021 30.0088H81.6133C81.4811 30.2184 81.3148 30.4098 81.1143 30.583C80.9183 30.7516 80.6836 30.8861 80.4102 30.9863C80.1367 31.0866 79.8154 31.1367 79.4463 31.1367ZM80.1777 29.4756C80.7474 29.4756 81.1484 29.307 81.3809 28.9697C81.6178 28.6279 81.7432 28.1152 81.7568 27.4316V27.2061C81.7568 26.4632 81.6429 25.8958 81.415 25.5039C81.1872 25.1074 80.7633 24.9092 80.1436 24.9092C79.6833 24.9092 79.3232 25.1074 79.0635 25.5039C78.8037 25.9004 78.6738 26.4723 78.6738 27.2197C78.6738 27.9671 78.8037 28.5299 79.0635 28.9082C79.3278 29.2865 79.6992 29.4756 80.1777 29.4756ZM89.0371 23.2139C89.7435 23.2139 90.3519 23.3506 90.8623 23.624C91.3727 23.8929 91.7669 24.2848 92.0449 24.7998C92.3229 25.3148 92.4619 25.9437 92.4619 26.6865V27.6982H87.5332C87.556 28.2861 87.7314 28.7487 88.0596 29.0859C88.3923 29.4186 88.8525 29.585 89.4404 29.585C89.9281 29.585 90.3747 29.5348 90.7803 29.4346C91.1859 29.3343 91.6029 29.1839 92.0312 28.9834V30.5967C91.653 30.7835 91.2565 30.9202 90.8418 31.0068C90.4316 31.0934 89.9326 31.1367 89.3447 31.1367C88.5791 31.1367 87.9001 30.9954 87.3076 30.7129C86.7197 30.4303 86.2572 29.9997 85.9199 29.4209C85.5872 28.8421 85.4209 28.113 85.4209 27.2334C85.4209 26.3402 85.5713 25.5973 85.8721 25.0049C86.1774 24.4079 86.6012 23.9613 87.1436 23.665C87.6859 23.3643 88.3171 23.2139 89.0371 23.2139ZM89.0508 24.6973C88.6452 24.6973 88.3079 24.8271 88.0391 25.0869C87.7747 25.3467 87.6221 25.7546 87.5811 26.3105H90.5068C90.5023 26.0007 90.4453 25.7249 90.3359 25.4834C90.2311 25.2419 90.0716 25.0505 89.8574 24.9092C89.6478 24.7679 89.3789 24.6973 89.0508 24.6973ZM106.25 25.9072C106.25 27.0329 106.034 27.974 105.601 28.7305C105.172 29.4824 104.55 30.0498 103.734 30.4326C102.919 30.8109 101.937 31 100.788 31H97.958V21.0059H101.096C102.144 21.0059 103.053 21.1927 103.823 21.5664C104.593 21.9355 105.19 22.4847 105.614 23.2139C106.038 23.9385 106.25 24.8363 106.25 25.9072ZM104.049 25.9619C104.049 25.2236 103.939 24.6175 103.721 24.1436C103.507 23.665 103.188 23.3118 102.764 23.084C102.344 22.8561 101.825 22.7422 101.205 22.7422H100.077V29.25H100.986C102.021 29.25 102.789 28.9743 103.29 28.4229C103.796 27.8714 104.049 27.0511 104.049 25.9619ZM111.309 23.2139C112.015 23.2139 112.623 23.3506 113.134 23.624C113.644 23.8929 114.038 24.2848 114.316 24.7998C114.594 25.3148 114.733 25.9437 114.733 26.6865V27.6982H109.805C109.827 28.2861 110.003 28.7487 110.331 29.0859C110.664 29.4186 111.124 29.585 111.712 29.585C112.2 29.585 112.646 29.5348 113.052 29.4346C113.457 29.3343 113.874 29.1839 114.303 28.9834V30.5967C113.924 30.7835 113.528 30.9202 113.113 31.0068C112.703 31.0934 112.204 31.1367 111.616 31.1367C110.851 31.1367 110.172 30.9954 109.579 30.7129C108.991 30.4303 108.529 29.9997 108.191 29.4209C107.859 28.8421 107.692 28.113 107.692 27.2334C107.692 26.3402 107.843 25.5973 108.144 25.0049C108.449 24.4079 108.873 23.9613 109.415 23.665C109.957 23.3643 110.589 23.2139 111.309 23.2139ZM111.322 24.6973C110.917 24.6973 110.579 24.8271 110.311 25.0869C110.046 25.3467 109.894 25.7546 109.853 26.3105H112.778C112.774 26.0007 112.717 25.7249 112.607 25.4834C112.503 25.2419 112.343 25.0505 112.129 24.9092C111.919 24.7679 111.65 24.6973 111.322 24.6973ZM121.761 28.7305C121.761 29.25 121.638 29.6898 121.392 30.0498C121.15 30.4053 120.788 30.6764 120.305 30.8633C119.822 31.0456 119.22 31.1367 118.5 31.1367C117.967 31.1367 117.509 31.1025 117.126 31.0342C116.748 30.9658 116.365 30.8519 115.978 30.6924V28.9697C116.392 29.1566 116.837 29.3115 117.311 29.4346C117.789 29.5531 118.208 29.6123 118.568 29.6123C118.974 29.6123 119.263 29.5531 119.437 29.4346C119.614 29.3115 119.703 29.152 119.703 28.9561C119.703 28.8285 119.667 28.7145 119.594 28.6143C119.525 28.5094 119.375 28.3932 119.143 28.2656C118.91 28.1335 118.546 27.9626 118.049 27.7529C117.57 27.5524 117.176 27.3496 116.866 27.1445C116.561 26.9395 116.333 26.6979 116.183 26.4199C116.037 26.1374 115.964 25.7796 115.964 25.3467C115.964 24.6403 116.237 24.1094 116.784 23.7539C117.336 23.3939 118.072 23.2139 118.992 23.2139C119.466 23.2139 119.917 23.2617 120.346 23.3574C120.779 23.4531 121.223 23.6058 121.679 23.8154L121.05 25.3193C120.672 25.1553 120.314 25.0208 119.977 24.916C119.644 24.8112 119.304 24.7588 118.958 24.7588C118.653 24.7588 118.423 24.7998 118.268 24.8818C118.113 24.9639 118.035 25.0892 118.035 25.2578C118.035 25.3809 118.074 25.4902 118.151 25.5859C118.233 25.6816 118.388 25.7887 118.616 25.9072C118.849 26.0212 119.188 26.1693 119.635 26.3516C120.068 26.5293 120.444 26.7161 120.763 26.9121C121.082 27.1035 121.328 27.3428 121.501 27.6299C121.674 27.9124 121.761 28.2793 121.761 28.7305ZM126.491 31.1367C125.735 31.1367 125.09 31 124.557 30.7266C124.023 30.4486 123.618 30.0202 123.34 29.4414C123.062 28.8626 122.923 28.1221 122.923 27.2197C122.923 26.2855 123.08 25.5244 123.395 24.9365C123.714 24.3441 124.153 23.9089 124.714 23.6309C125.279 23.3529 125.933 23.2139 126.676 23.2139C127.204 23.2139 127.66 23.2663 128.043 23.3711C128.43 23.4714 128.768 23.5921 129.055 23.7334L128.439 25.3467C128.111 25.2145 127.806 25.1074 127.523 25.0254C127.241 24.9388 126.958 24.8955 126.676 24.8955C126.311 24.8955 126.008 24.9821 125.767 25.1553C125.525 25.3239 125.345 25.5791 125.227 25.9209C125.108 26.2627 125.049 26.6911 125.049 27.2061C125.049 27.7119 125.113 28.1312 125.24 28.4639C125.368 28.7965 125.552 29.0449 125.794 29.209C126.035 29.3685 126.329 29.4482 126.676 29.4482C127.109 29.4482 127.494 29.3913 127.831 29.2773C128.168 29.1589 128.496 28.9948 128.815 28.7852V30.5693C128.496 30.7699 128.161 30.9134 127.811 31C127.464 31.0911 127.024 31.1367 126.491 31.1367ZM137.606 23.3574V31H136.007L135.727 30.0225H135.617C135.453 30.2822 135.248 30.4941 135.002 30.6582C134.756 30.8223 134.485 30.943 134.188 31.0205C133.892 31.098 133.585 31.1367 133.266 31.1367C132.719 31.1367 132.243 31.041 131.837 30.8496C131.431 30.6536 131.115 30.3506 130.887 29.9404C130.663 29.5303 130.552 28.9971 130.552 28.3408V23.3574H132.637V27.8213C132.637 28.3682 132.735 28.7806 132.931 29.0586C133.127 29.3366 133.439 29.4756 133.867 29.4756C134.291 29.4756 134.624 29.3799 134.865 29.1885C135.107 28.9925 135.275 28.7077 135.371 28.334C135.471 27.9557 135.521 27.4954 135.521 26.9531V23.3574H137.606ZM142.945 23.2139C143.652 23.2139 144.26 23.3506 144.771 23.624C145.281 23.8929 145.675 24.2848 145.953 24.7998C146.231 25.3148 146.37 25.9437 146.37 26.6865V27.6982H141.441C141.464 28.2861 141.64 28.7487 141.968 29.0859C142.3 29.4186 142.761 29.585 143.349 29.585C143.836 29.585 144.283 29.5348 144.688 29.4346C145.094 29.3343 145.511 29.1839 145.939 28.9834V30.5967C145.561 30.7835 145.165 30.9202 144.75 31.0068C144.34 31.0934 143.841 31.1367 143.253 31.1367C142.487 31.1367 141.808 30.9954 141.216 30.7129C140.628 30.4303 140.165 29.9997 139.828 29.4209C139.495 28.8421 139.329 28.113 139.329 27.2334C139.329 26.3402 139.479 25.5973 139.78 25.0049C140.086 24.4079 140.509 23.9613 141.052 23.665C141.594 23.3643 142.225 23.2139 142.945 23.2139ZM142.959 24.6973C142.553 24.6973 142.216 24.8271 141.947 25.0869C141.683 25.3467 141.53 25.7546 141.489 26.3105H144.415C144.41 26.0007 144.354 25.7249 144.244 25.4834C144.139 25.2419 143.98 25.0505 143.766 24.9092C143.556 24.7679 143.287 24.6973 142.959 24.6973ZM152.406 23.2139C153.222 23.2139 153.878 23.4372 154.375 23.8838C154.872 24.3258 155.12 25.0368 155.12 26.0166V31H153.035V26.5361C153.035 25.9893 152.935 25.5768 152.734 25.2988C152.538 25.0208 152.229 24.8818 151.805 24.8818C151.167 24.8818 150.731 25.0983 150.499 25.5312C150.267 25.9642 150.15 26.5885 150.15 27.4043V31H148.065V23.3574H149.658L149.938 24.335H150.055C150.219 24.0706 150.422 23.8564 150.663 23.6924C150.909 23.5283 151.18 23.4076 151.477 23.3301C151.777 23.2526 152.087 23.2139 152.406 23.2139ZM160.486 29.4756C160.714 29.4756 160.935 29.4528 161.149 29.4072C161.368 29.3617 161.585 29.3047 161.799 29.2363V30.7881C161.576 30.8883 161.298 30.9704 160.965 31.0342C160.637 31.1025 160.277 31.1367 159.885 31.1367C159.429 31.1367 159.019 31.0638 158.654 30.918C158.294 30.7676 158.009 30.5101 157.8 30.1455C157.595 29.7764 157.492 29.2637 157.492 28.6074V24.9229H156.494V24.041L157.643 23.3438L158.244 21.7305H159.577V23.3574H161.717V24.9229H159.577V28.6074C159.577 28.8991 159.659 29.1178 159.823 29.2637C159.992 29.4049 160.213 29.4756 160.486 29.4756ZM170.296 27.165C170.296 27.8031 170.209 28.3682 170.036 28.8604C169.868 29.3525 169.619 29.7695 169.291 30.1113C168.967 30.4486 168.576 30.7038 168.115 30.877C167.66 31.0501 167.145 31.1367 166.57 31.1367C166.033 31.1367 165.538 31.0501 165.087 30.877C164.64 30.7038 164.251 30.4486 163.918 30.1113C163.59 29.7695 163.335 29.3525 163.152 28.8604C162.975 28.3682 162.886 27.8031 162.886 27.165C162.886 26.3174 163.036 25.5996 163.337 25.0117C163.638 24.4238 164.066 23.9772 164.622 23.6719C165.178 23.3665 165.841 23.2139 166.611 23.2139C167.327 23.2139 167.96 23.3665 168.512 23.6719C169.068 23.9772 169.503 24.4238 169.817 25.0117C170.136 25.5996 170.296 26.3174 170.296 27.165ZM165.012 27.165C165.012 27.6663 165.066 28.0879 165.176 28.4297C165.285 28.7715 165.456 29.029 165.688 29.2021C165.921 29.3753 166.224 29.4619 166.598 29.4619C166.967 29.4619 167.265 29.3753 167.493 29.2021C167.726 29.029 167.894 28.7715 167.999 28.4297C168.108 28.0879 168.163 27.6663 168.163 27.165C168.163 26.6592 168.108 26.2399 167.999 25.9072C167.894 25.57 167.726 25.3171 167.493 25.1484C167.261 24.9798 166.958 24.8955 166.584 24.8955C166.033 24.8955 165.632 25.0846 165.381 25.4629C165.135 25.8411 165.012 26.4085 165.012 27.165ZM174.562 31.98H188.562V17.98H174.562V31.98Z" fill="white"/>
</svg>
