<svg width="217" height="48" viewBox="0 0 217 48" fill="none" xmlns="http://www.w3.org/2000/svg">
<g clip-path="url(#clip0_14622_331)">
<rect x="0.5" width="216" height="48" rx="5" fill="#A60064"/>
<path d="M61.5388 20.5771C61.2198 20.5771 60.9349 20.6455 60.6843 20.7822C60.4336 20.9144 60.2195 21.1081 60.0417 21.3633C59.864 21.6185 59.7273 21.9307 59.6316 22.2998C59.5404 22.6644 59.4948 23.0791 59.4948 23.5439C59.4948 24.1729 59.5746 24.7015 59.7341 25.1299C59.8936 25.5583 60.1351 25.8818 60.4587 26.1006C60.7868 26.3193 61.197 26.4287 61.6892 26.4287C62.1358 26.4287 62.5642 26.3672 62.9743 26.2441C63.389 26.1211 63.806 25.973 64.2253 25.7998V28.083C63.7833 28.279 63.3298 28.4202 62.865 28.5068C62.4047 28.5934 61.9148 28.6367 61.3952 28.6367C60.3106 28.6367 59.4219 28.4225 58.7292 27.9941C58.0411 27.5612 57.5329 26.9619 57.2048 26.1963C56.8812 25.4307 56.7195 24.542 56.7195 23.5303C56.7195 22.7738 56.8243 22.0811 57.0339 21.4521C57.2481 20.8232 57.5603 20.2786 57.9704 19.8184C58.3806 19.3535 58.8864 18.9958 59.488 18.7451C60.0941 18.4899 60.7868 18.3623 61.5661 18.3623C62.0492 18.3623 62.5573 18.4193 63.0905 18.5332C63.6283 18.6426 64.1524 18.8203 64.6628 19.0664L63.8357 21.1924C63.4711 21.0192 63.1019 20.8734 62.7282 20.7549C62.3545 20.6364 61.9581 20.5771 61.5388 20.5771ZM75.322 23.4893C75.322 24.2594 75.2285 24.9613 75.0417 25.5947C74.8594 26.2236 74.5723 26.766 74.1804 27.2217C73.7884 27.6774 73.2848 28.0283 72.6696 28.2744C72.0544 28.516 71.3184 28.6367 70.4616 28.6367C69.6231 28.6367 68.8962 28.516 68.2809 28.2744C67.6703 28.0283 67.1667 27.6797 66.7702 27.2285C66.3737 26.7728 66.0798 26.2282 65.8884 25.5947C65.697 24.9613 65.6012 24.2549 65.6012 23.4756C65.6012 22.4365 65.7721 21.5342 66.1139 20.7686C66.4603 19.9984 66.9935 19.4036 67.7136 18.9844C68.4336 18.5605 69.3542 18.3486 70.4753 18.3486C71.6146 18.3486 72.5397 18.5605 73.2507 18.9844C73.9662 19.4082 74.4902 20.0052 74.8229 20.7754C75.1556 21.5456 75.322 22.4502 75.322 23.4893ZM68.445 23.4893C68.445 24.0908 68.5134 24.6081 68.6501 25.041C68.7868 25.474 69.0033 25.8066 69.2995 26.0391C69.5957 26.2715 69.9831 26.3877 70.4616 26.3877C70.9583 26.3877 71.3526 26.2715 71.6442 26.0391C71.9404 25.8066 72.1524 25.474 72.28 25.041C72.4121 24.6081 72.4782 24.0908 72.4782 23.4893C72.4782 22.5869 72.3278 21.8737 72.027 21.3496C71.7262 20.8255 71.209 20.5635 70.4753 20.5635C69.9876 20.5635 69.5934 20.682 69.2927 20.9189C68.9964 21.1559 68.78 21.4932 68.6432 21.9307C68.5111 22.3682 68.445 22.8877 68.445 23.4893ZM80.3756 18.5059C81.6426 18.5059 82.5905 18.7816 83.2194 19.333C83.8528 19.8844 84.1696 20.6683 84.1696 21.6846C84.1696 22.1403 84.1035 22.5778 83.9713 22.9971C83.8437 23.4163 83.6318 23.79 83.3356 24.1182C83.0439 24.4463 82.6543 24.7061 82.1666 24.8975C81.6836 25.0889 81.0866 25.1846 80.3756 25.1846H79.6168V28.5H76.9166V18.5059H80.3756ZM80.3141 20.6865H79.6168V22.9834H80.15C80.3825 22.9834 80.5989 22.9447 80.7995 22.8672C81 22.7852 81.1595 22.6553 81.278 22.4775C81.401 22.2952 81.4625 22.0537 81.4625 21.7529C81.4625 21.4385 81.3691 21.1833 81.1823 20.9873C80.9954 20.7868 80.706 20.6865 80.3141 20.6865ZM85.5523 28.5V18.5059H88.2662V28.5H85.5523ZM96.355 28.5L95.8629 26.627H92.6158L92.1099 28.5H89.1431L92.4039 18.4648H96.0064L99.3082 28.5H96.355ZM95.3023 24.4121L94.8716 22.7715C94.8261 22.5938 94.76 22.3408 94.6734 22.0127C94.5868 21.68 94.5002 21.3382 94.4136 20.9873C94.3316 20.6318 94.2678 20.3402 94.2222 20.1123C94.1812 20.3402 94.122 20.6227 94.0445 20.96C93.9716 21.2926 93.8941 21.623 93.8121 21.9512C93.7346 22.2793 93.6662 22.5527 93.607 22.7715L93.1763 24.4121H95.3023ZM103.459 18.5059C104.366 18.5059 105.121 18.6175 105.722 18.8408C106.324 19.0596 106.775 19.3877 107.076 19.8252C107.381 20.2627 107.534 20.8073 107.534 21.459C107.534 21.8646 107.465 22.2337 107.329 22.5664C107.192 22.8991 106.996 23.1976 106.741 23.4619C106.49 23.7217 106.189 23.9495 105.838 24.1455L108.751 28.5H105.688L103.569 24.8633H102.885V28.5H100.185V18.5059H103.459ZM103.418 20.5498H102.885V22.833H103.391C103.806 22.833 104.145 22.7419 104.41 22.5596C104.674 22.3773 104.806 22.0514 104.806 21.582C104.806 21.2585 104.697 21.0055 104.478 20.8232C104.259 20.641 103.906 20.5498 103.418 20.5498ZM117.327 20.5771C117.008 20.5771 116.723 20.6455 116.472 20.7822C116.221 20.9144 116.007 21.1081 115.83 21.3633C115.652 21.6185 115.515 21.9307 115.419 22.2998C115.328 22.6644 115.283 23.0791 115.283 23.5439C115.283 24.1729 115.362 24.7015 115.522 25.1299C115.681 25.5583 115.923 25.8818 116.247 26.1006C116.575 26.3193 116.985 26.4287 117.477 26.4287C117.924 26.4287 118.352 26.3672 118.762 26.2441C119.177 26.1211 119.594 25.973 120.013 25.7998V28.083C119.571 28.279 119.118 28.4202 118.653 28.5068C118.192 28.5934 117.703 28.6367 117.183 28.6367C116.098 28.6367 115.21 28.4225 114.517 27.9941C113.829 27.5612 113.321 26.9619 112.993 26.1963C112.669 25.4307 112.507 24.542 112.507 23.5303C112.507 22.7738 112.612 22.0811 112.822 21.4521C113.036 20.8232 113.348 20.2786 113.758 19.8184C114.168 19.3535 114.674 18.9958 115.276 18.7451C115.882 18.4899 116.575 18.3623 117.354 18.3623C117.837 18.3623 118.345 18.4193 118.878 18.5332C119.416 18.6426 119.94 18.8203 120.451 19.0664L119.623 21.1924C119.259 21.0192 118.89 20.8734 118.516 20.7549C118.142 20.6364 117.746 20.5771 117.327 20.5771ZM130.255 18.5059V24.5215C130.255 25.36 130.096 26.0892 129.777 26.709C129.458 27.3242 128.979 27.8005 128.341 28.1377C127.703 28.4704 126.903 28.6367 125.942 28.6367C124.565 28.6367 123.515 28.2835 122.79 27.5771C122.066 26.8708 121.704 25.8727 121.704 24.583V18.5059H124.417V24.3711C124.417 25.0775 124.55 25.5902 124.814 25.9092C125.078 26.2282 125.468 26.3877 125.983 26.3877C126.352 26.3877 126.653 26.3193 126.885 26.1826C127.118 26.0413 127.286 25.8203 127.391 25.5195C127.5 25.2188 127.555 24.8314 127.555 24.3574V18.5059H130.255ZM135.603 18.5059C136.87 18.5059 137.818 18.7816 138.447 19.333C139.08 19.8844 139.397 20.6683 139.397 21.6846C139.397 22.1403 139.331 22.5778 139.199 22.9971C139.071 23.4163 138.859 23.79 138.563 24.1182C138.271 24.4463 137.882 24.7061 137.394 24.8975C136.911 25.0889 136.314 25.1846 135.603 25.1846H134.844V28.5H132.144V18.5059H135.603ZM135.541 20.6865H134.844V22.9834H135.377C135.61 22.9834 135.826 22.9447 136.027 22.8672C136.227 22.7852 136.387 22.6553 136.505 22.4775C136.628 22.2952 136.69 22.0537 136.69 21.7529C136.69 21.4385 136.596 21.1833 136.41 20.9873C136.223 20.7868 135.933 20.6865 135.541 20.6865ZM150.131 23.4893C150.131 24.2594 150.038 24.9613 149.851 25.5947C149.669 26.2236 149.381 26.766 148.99 27.2217C148.598 27.6774 148.094 28.0283 147.479 28.2744C146.864 28.516 146.128 28.6367 145.271 28.6367C144.432 28.6367 143.705 28.516 143.09 28.2744C142.479 28.0283 141.976 27.6797 141.579 27.2285C141.183 26.7728 140.889 26.2282 140.698 25.5947C140.506 24.9613 140.41 24.2549 140.41 23.4756C140.41 22.4365 140.581 21.5342 140.923 20.7686C141.27 19.9984 141.803 19.4036 142.523 18.9844C143.243 18.5605 144.163 18.3486 145.284 18.3486C146.424 18.3486 147.349 18.5605 148.06 18.9844C148.775 19.4082 149.299 20.0052 149.632 20.7754C149.965 21.5456 150.131 22.4502 150.131 23.4893ZM143.254 23.4893C143.254 24.0908 143.323 24.6081 143.459 25.041C143.596 25.474 143.812 25.8066 144.109 26.0391C144.405 26.2715 144.792 26.3877 145.271 26.3877C145.768 26.3877 146.162 26.2715 146.453 26.0391C146.75 25.8066 146.962 25.474 147.089 25.041C147.221 24.6081 147.287 24.0908 147.287 23.4893C147.287 22.5869 147.137 21.8737 146.836 21.3496C146.535 20.8255 146.018 20.5635 145.284 20.5635C144.797 20.5635 144.403 20.682 144.102 20.9189C143.806 21.1559 143.589 21.4932 143.452 21.9307C143.32 22.3682 143.254 22.8877 143.254 23.4893ZM148.614 15.5186V15.6621C148.45 15.7943 148.24 15.9561 147.985 16.1475C147.729 16.3343 147.458 16.5303 147.171 16.7354C146.889 16.9359 146.613 17.1273 146.344 17.3096C146.08 17.4919 145.852 17.6423 145.66 17.7607H143.883V17.5625C144.043 17.3893 144.234 17.1842 144.457 16.9473C144.681 16.7057 144.904 16.4596 145.127 16.209C145.351 15.9583 145.537 15.7282 145.688 15.5186H148.614ZM161.241 28.5H157.7L154.05 21.459H153.989C154.011 21.6732 154.032 21.9307 154.05 22.2314C154.068 22.5322 154.084 22.8398 154.098 23.1543C154.112 23.4642 154.118 23.7445 154.118 23.9951V28.5H151.726V18.5059H155.253L158.89 25.4512H158.931C158.917 25.2324 158.904 24.9795 158.89 24.6924C158.876 24.4007 158.863 24.1068 158.849 23.8105C158.84 23.5143 158.835 23.2523 158.835 23.0244V18.5059H161.241V28.5Z" fill="white"/>
</g>
<defs>
<clipPath id="clip0_14622_331">
<rect x="0.5" width="216" height="48" rx="5" fill="white"/>
</clipPath>
</defs>
</svg>
