<svg width="99" height="68" viewBox="0 0 99 68" fill="none" xmlns="http://www.w3.org/2000/svg">
<g filter="url(#filter0_d_14086_5952)">
<path d="M54.8252 5.09363C55.7224 4.9421 56.638 5.32762 57.1504 6.0946H57.1514C57.6612 6.85856 57.6717 7.8521 57.1816 8.62781L57.1807 8.62878L51.6719 17.3241L56.0596 42.3798H56.0586C56.2809 43.6455 55.4344 44.8489 54.1709 45.0702L48.9355 45.9872C51.1341 47.837 53.1565 50.4059 54.5703 53.7723C56.7691 51.1552 58.9144 49.981 59.1123 49.8768C60.2472 49.276 61.651 49.711 62.252 50.8427C62.2746 50.8853 62.2925 50.9297 62.3086 50.9745C62.809 52.0756 62.3813 53.3857 61.3076 53.9706L61.3086 53.9716C61.3055 53.9733 61.2589 53.9987 61.1699 54.0536C61.079 54.1097 60.9432 54.1973 60.7715 54.3173C60.4274 54.5576 59.9418 54.928 59.3906 55.4393C58.3565 56.3987 57.0986 57.848 56.1045 59.8622L55.9092 60.2723C55.5274 61.1075 54.6966 61.6287 53.7969 61.6288C53.7015 61.6288 53.6062 61.6228 53.5117 61.6112H53.5107C52.5069 61.4865 51.6991 60.726 51.5117 59.7333L51.5107 59.7323C49.7809 50.4947 43.649 47.8274 41.8359 47.2284L30.7998 49.162C31.8102 55.4765 28.9709 59.3995 25.6836 60.788C22.3686 62.1883 17.9643 61.3283 14.3232 57.3895C13.8498 58.329 13.3933 59.2442 13.0186 60.0048C12.7425 60.5649 12.5103 61.0402 12.3457 61.3778C12.2634 61.5465 12.1976 61.6811 12.1523 61.7743C12.1298 61.8208 12.1128 61.8575 12.1006 61.8827C12.0878 61.909 12.082 61.9208 12.082 61.9208L12.0801 61.9237C11.6782 62.7565 10.8462 63.2372 9.98633 63.2372C9.64546 63.2372 9.30123 63.1615 8.97852 63.0067L8.97461 63.0048C7.82054 62.4453 7.33546 61.0566 7.89453 59.9003C7.99608 59.6895 10.3086 54.9184 11.917 51.9159V51.9149C12.3135 51.1763 13.0773 50.7098 13.9121 50.6893H13.9326C14.7213 50.6865 15.5241 51.0871 15.9629 51.8241C18.7819 56.5582 22.0981 57.255 23.875 56.5048V56.5038C25.6695 55.7462 26.7528 53.4411 26.2246 49.9618L18.5615 51.3055L18.5605 51.3046C18.428 51.3279 18.294 51.3407 18.1611 51.3407C17.6865 51.3407 17.2206 51.1957 16.8271 50.9208L16.8242 50.9188C16.3188 50.5632 15.9786 50.0221 15.8721 49.4178V49.4169L11.4746 24.3114L3.09277 17.7333L3.08301 17.7264C2.79647 17.4958 2.51868 17.239 2.32031 16.9579C2.12833 16.6858 1.89411 16.219 2.0498 15.6649C2.19974 15.1317 2.62244 14.8444 2.91797 14.6952C3.22689 14.5392 3.60294 14.4292 4.00293 14.3427L14.1855 11.8583C14.2072 11.853 14.229 11.8484 14.251 11.8446C14.8176 11.7461 15.3951 11.8611 15.877 12.16L16.0781 12.2987L16.0908 12.3094L25.1963 19.6307L43.624 16.3446L44.3242 13.5487C44.3242 13.5209 44.3242 13.4883 44.3242 13.452C44.3243 13.3128 44.3248 13.1138 44.3252 12.8749C44.326 12.3966 44.328 11.7567 44.3311 11.1122C44.3341 10.4684 44.3387 9.81712 44.3457 9.31628C44.3474 9.19509 44.3495 9.08154 44.3516 8.97839C44.2876 8.94132 44.2179 8.89826 44.1406 8.85437C43.838 8.68218 43.6468 8.36451 43.6357 8.01648C43.6248 7.66852 43.7958 7.34022 44.0869 7.14929C44.3494 6.97725 44.6474 6.85723 44.9648 6.80164L44.9668 6.80066L54.8213 5.0946L54.8252 5.09363Z" fill="white" stroke="white" stroke-width="2" stroke-linejoin="round"/>
<path opacity="0.53" d="M23.5845 20.1292C23.8205 20.1014 24.0602 20.1584 24.2593 20.2922C24.4868 20.4453 24.6414 20.6858 24.687 20.9563L29.2173 47.8049C29.309 48.3488 28.9426 48.8644 28.3989 48.9573L17.6333 50.7952C17.0915 50.8876 16.5771 50.5258 16.481 49.9846L11.8198 23.7258C11.7264 23.1989 12.0641 22.692 12.5864 22.5754L23.4839 20.1467L23.5845 20.1292Z" fill="white" stroke="white" stroke-width="2" stroke-linejoin="round"/>
<mask id="mask0_14086_5952" style="mask-type:luminance" maskUnits="userSpaceOnUse" x="1" y="4" width="63" height="61">
<path d="M54.8252 5.09363C55.7226 4.94187 56.6389 5.3274 57.1514 6.0946L57.2412 6.24109C57.6606 6.98257 57.6412 7.90062 57.1816 8.62781V8.62878L51.6729 17.3241L56.0596 42.3788L56.0889 42.6151C56.1749 43.7915 55.3567 44.8626 54.1719 45.0702L48.9355 45.9872C51.1344 47.8372 53.1565 50.4064 54.5703 53.7733C56.7703 51.1544 58.9169 49.9801 59.1133 49.8768C60.2481 49.2762 61.652 49.7111 62.2529 50.8427C62.2747 50.8837 62.2919 50.9265 62.3076 50.9696C62.8121 52.072 62.3844 53.3858 61.3086 53.9716L61.3096 53.9725C61.306 53.9746 61.2603 54 61.1719 54.0546C61.081 54.1107 60.9444 54.1981 60.7725 54.3182C60.4284 54.5586 59.9427 54.929 59.3916 55.4403C58.2888 56.4635 56.9306 58.0431 55.9102 60.2714L55.9111 60.2723C55.5294 61.1078 54.6979 61.6298 53.7979 61.6298C53.7024 61.6298 53.6071 61.6238 53.5127 61.6122H53.5117C52.5079 61.4874 51.7001 60.727 51.5127 59.7343V59.7333C49.783 50.4966 43.6516 47.8288 41.8379 47.2294L30.8008 49.163C31.8111 55.4775 28.9719 59.3996 25.6846 60.788L25.6855 60.7889C22.3706 62.1893 17.9653 61.3294 14.3242 57.3905C13.8508 58.3299 13.3953 59.2453 13.0205 60.0057C12.7444 60.566 12.5113 61.0412 12.3467 61.3788C12.2644 61.5474 12.1995 61.6821 12.1543 61.7753C12.1317 61.8219 12.1137 61.8585 12.1016 61.8837C12.0888 61.91 12.083 61.9218 12.083 61.9218L12.082 61.9247C11.6803 62.7574 10.848 63.238 9.98828 63.2382C9.64724 63.2382 9.30233 63.1626 8.97949 63.0077L8.97559 63.0057C7.82392 62.4473 7.33869 61.0629 7.89258 59.9081L9.30176 57.037C10.1004 55.4276 11.1001 53.4427 11.918 51.9159H11.9189C12.3154 51.1773 13.0783 50.7108 13.9131 50.6903C13.9201 50.6901 13.9276 50.6903 13.9346 50.6903C14.7233 50.6876 15.5262 51.088 15.9648 51.8251C18.784 56.5594 22.1002 57.2552 23.877 56.5048C25.6712 55.747 26.7547 53.4418 26.2266 49.9628L18.5635 51.3065L18.5625 51.3055C18.4298 51.329 18.2951 51.3417 18.1621 51.3417C17.6875 51.3416 17.2215 51.1957 16.8281 50.9208L16.8262 50.9198C16.3207 50.5642 15.9796 50.023 15.873 49.4188V49.4178L11.4766 24.3143L3.375 18.0145V18.0135C2.92501 17.6629 2.80682 17.1586 2.78906 16.8114C2.77073 16.4528 2.84469 16.0981 2.94629 15.8026C3.04909 15.5037 3.20215 15.2006 3.39746 14.9462C3.55775 14.7374 3.87709 14.3917 4.3623 14.2919V14.2909L14.2139 12.1678L14.2529 12.161C14.9006 12.0484 15.562 12.2137 16.0791 12.6151H16.0801L24.0791 18.8358L37.9795 16.4012L43.3994 7.84753V7.84656C43.7511 7.29282 44.3198 6.91434 44.9658 6.80164L44.9678 6.80066L54.8213 5.0946L54.8252 5.09363Z" fill="white" stroke="white" stroke-width="2" stroke-linejoin="round"/>
</mask>
<g mask="url(#mask0_14086_5952)">
<path d="M46.5732 44.3461C46.8717 44.3342 47.1628 44.4566 47.3633 44.684L48.3477 45.8002C48.5332 46.0107 48.6219 46.2897 48.5918 46.5687C48.5616 46.8479 48.415 47.1019 48.1885 47.2679L46.2188 48.7123C46.0716 48.82 45.8974 48.8856 45.7158 48.9017L27.2041 50.5424C26.7074 50.5862 26.254 50.2577 26.1416 49.7719L25.9443 48.9183C25.8824 48.6501 25.9343 48.3682 26.0869 48.139C26.2395 47.9099 26.4796 47.7536 26.751 47.7074L46.4453 44.3588L46.5732 44.3461Z" fill="white" stroke="white" stroke-width="2" stroke-linejoin="round"/>
</g>
<g style="mix-blend-mode:multiply">
<path d="M14.3062 51.328C14.7096 51.0057 15.2916 51.044 15.6499 51.4159C15.7551 51.5251 15.8667 51.6594 15.9644 51.8221C15.9656 51.8242 15.9661 51.8269 15.9673 51.829C16.0265 51.9275 16.0835 52.0162 16.1538 52.1298C16.4375 52.5883 16.3066 53.1892 15.8579 53.4882C15.4093 53.7869 14.8046 53.6763 14.4907 53.2382C14.355 53.0484 14.223 52.8548 14.0942 52.6591C13.8104 52.2275 13.9027 51.6505 14.3062 51.328Z" fill="white" stroke="white" stroke-width="2" stroke-linejoin="round"/>
<path d="M60.3569 49.9856C60.6866 49.7653 61.1153 49.76 61.4497 49.9729C61.7771 50.1814 62.0579 50.4763 62.2524 50.842C62.2705 50.876 62.2854 50.9111 62.2993 50.9465C62.8205 52.0534 62.3929 53.3815 61.3101 53.9709L61.311 53.9719C61.3055 53.975 61.2596 54.0007 61.1733 54.054C61.0824 54.1101 60.9466 54.1977 60.7749 54.3176C60.4308 54.558 59.9453 54.9283 59.394 55.4397C58.291 56.4631 56.9332 58.0435 55.9126 60.2727L55.9116 60.2717C55.5298 61.107 54.6992 61.6292 53.7993 61.6292C53.704 61.6291 53.6086 61.6232 53.5142 61.6116H53.5132C52.5119 61.4871 51.7061 60.7296 51.5161 59.7405L51.5151 59.7375H51.5161C51.5159 59.7362 51.5144 59.735 51.5142 59.7336C51.5139 59.7325 51.5144 59.7311 51.5142 59.7297C51.5139 59.7282 51.5135 59.7266 51.5132 59.7249C51.5111 59.714 51.5068 59.6949 51.5034 59.6711C51.448 59.2832 51.6245 58.898 51.9546 58.6868C52.2848 58.4756 52.7086 58.4766 53.0376 58.6897C53.0598 58.7041 53.0819 58.7157 53.104 58.7239L53.1694 58.7405L53.1841 58.7415C53.1872 58.7417 53.1951 58.7424 53.2095 58.7424C53.3355 58.7424 53.4507 58.6694 53.5034 58.554V58.553C54.6554 56.0369 56.1904 54.2491 57.4438 53.0862C58.0708 52.5046 58.63 52.0774 59.0396 51.7913C59.2443 51.6482 59.4118 51.5397 59.5327 51.4651C59.5932 51.4277 59.6425 51.399 59.6782 51.3782C59.7063 51.3618 59.7288 51.3488 59.7339 51.3459L59.7603 51.3313C59.8859 51.2644 59.951 51.1254 59.9272 50.9905C59.8584 50.6 60.0273 50.2059 60.3569 49.9856ZM53.478 59.3586C53.4769 59.3521 53.4768 59.3466 53.4761 59.343L53.4741 59.3362C53.4747 59.339 53.476 59.3477 53.478 59.3586Z" fill="white" stroke="white" stroke-width="2" stroke-linejoin="round"/>
</g>
<path opacity="0.53" d="M54.9727 5.53638C56.2269 5.35141 57.1265 6.71654 56.46 7.79614L56.4541 7.80688L51.4463 15.6897L51.4453 15.6887C51.2176 16.0511 50.846 16.2991 50.4209 16.3674L39.29 18.1692C39.0831 18.2027 38.8702 18.1711 38.6826 18.0774V18.0764H38.6807L38.6787 18.0745L38.665 18.0676C38.6587 18.0643 38.6518 18.0609 38.6445 18.0569C38.6302 18.0489 38.6123 18.039 38.5928 18.0266C38.5601 18.0058 38.4942 17.9602 38.4229 17.8889C38.3665 17.8326 38.2053 17.6618 38.1484 17.3782C38.0927 17.1001 38.1603 16.8443 38.2852 16.6467H38.2842L43.8076 7.91138V7.90942C44.0375 7.54719 44.4136 7.29939 44.8418 7.23364L54.9541 5.53931L54.9727 5.53638Z" fill="white" stroke="white" stroke-width="2" stroke-linejoin="round"/>
<mask id="mask1_14086_5952" style="mask-type:luminance" maskUnits="userSpaceOnUse" x="11" y="1" width="41" height="22">
<mask id="path-8-outside-1_14086_5952" maskUnits="userSpaceOnUse" x="10.5469" y="1.63135" width="42" height="22" fill="black">
<rect fill="white" x="10.5469" y="1.63135" width="42" height="22"/>
<path d="M23.2843 20.9646L49.2788 16.5234L49.6147 3.70041C49.43 2.86482 13.2405 9.85455 13.5488 11.5441C13.6558 12.129 22.849 19.6778 22.849 19.6778"/>
</mask>
<path d="M23.2843 20.9646L49.2788 16.5234L49.6147 3.70041C49.43 2.86482 13.2405 9.85455 13.5488 11.5441C13.6558 12.129 22.849 19.6778 22.849 19.6778" fill="white"/>
<path d="M49.2788 16.5234L49.6156 18.4948C50.5568 18.334 51.2531 17.5303 51.2781 16.5758L49.2788 16.5234ZM49.6147 3.70041L51.614 3.75279C51.6182 3.59018 51.6026 3.42766 51.5676 3.26883L49.6147 3.70041ZM13.5488 11.5441L11.5813 11.9032L11.5815 11.9039L13.5488 11.5441ZM23.2843 20.9646L23.6211 22.936L49.6156 18.4948L49.2788 16.5234L48.9419 14.552L22.9475 18.9932L23.2843 20.9646ZM49.2788 16.5234L51.2781 16.5758L51.614 3.75279L49.6147 3.70041L47.6154 3.64804L47.2794 16.471L49.2788 16.5234ZM49.6147 3.70041L51.5676 3.26883C51.3589 2.32457 50.6198 1.94378 50.4156 1.84988C50.1471 1.72639 49.9057 1.6842 49.7946 1.66731C49.5481 1.62984 49.3041 1.62914 49.1343 1.63267C48.7644 1.64034 48.2924 1.68203 47.7733 1.74105C46.7163 1.86123 45.2497 2.07879 43.532 2.36264C40.0869 2.93197 35.5295 3.78522 30.9947 4.71619C26.4638 5.64634 21.9232 6.66067 18.5204 7.55376C16.8285 7.99781 15.3663 8.42513 14.3156 8.80936C13.805 8.99606 13.3005 9.20491 12.8983 9.43794C12.7084 9.54798 12.4252 9.72861 12.1726 9.99524C11.9639 10.2156 11.3984 10.9006 11.5813 11.9032L13.5488 11.5441L15.5163 11.1851C15.68 12.082 15.1666 12.6511 15.0767 12.7459C14.943 12.8871 14.8455 12.9327 14.9038 12.8989C14.9979 12.8443 15.2395 12.7306 15.6893 12.5661C16.5594 12.2479 17.8754 11.8585 19.5358 11.4227C22.8375 10.5562 27.298 9.5585 31.7991 8.63447C36.2961 7.71126 40.8015 6.86815 44.1842 6.30912C45.8805 6.02879 47.269 5.82416 48.2253 5.71544C48.7129 5.65999 49.037 5.63555 49.2173 5.63181C49.3226 5.62962 49.2923 5.6369 49.1936 5.62189C49.1563 5.61623 48.9724 5.58889 48.7442 5.48397C48.5805 5.40864 47.8647 5.05014 47.6618 4.132L49.6147 3.70041ZM13.5488 11.5441L11.5815 11.9039C11.6612 12.3398 11.8681 12.6478 11.9104 12.7125C11.9913 12.8363 12.0752 12.9415 12.1376 13.0159C12.2653 13.1685 12.4163 13.3267 12.5628 13.4737C12.8626 13.7743 13.2618 14.1454 13.7085 14.5477C14.6081 15.3582 15.7856 16.3721 16.9455 17.3557C18.1085 18.3419 19.2668 19.3086 20.1334 20.028C20.567 20.3879 20.9281 20.6864 21.181 20.895C21.3075 20.9994 21.4069 21.0813 21.4748 21.1372C21.5088 21.1651 21.5349 21.1866 21.5526 21.2011C21.5614 21.2084 21.5682 21.2139 21.5727 21.2177C21.575 21.2195 21.5767 21.221 21.5779 21.2219C21.5785 21.2224 21.5789 21.2228 21.5793 21.223C21.5794 21.2232 21.5795 21.2233 21.5796 21.2233C21.5797 21.2234 21.5798 21.2235 22.849 19.6778C24.1182 18.1321 24.1182 18.1321 24.1181 18.132C24.1181 18.132 24.118 18.1319 24.1179 18.1318C24.1176 18.1316 24.1172 18.1313 24.1167 18.1309C24.1156 18.13 24.114 18.1287 24.1119 18.1269C24.1076 18.1234 24.1012 18.1181 24.0926 18.1111C24.0755 18.097 24.0499 18.076 24.0166 18.0485C23.9498 17.9936 23.8516 17.9127 23.7265 17.8095C23.4762 17.603 23.1183 17.3072 22.6883 16.9503C21.8279 16.236 20.6812 15.2789 19.5325 14.3049C18.3808 13.3282 17.2399 12.3453 16.3857 11.5758C15.9555 11.1882 15.619 10.8736 15.3955 10.6494C15.2804 10.534 15.2229 10.4701 15.2042 10.4478C15.1934 10.4348 15.2196 10.4644 15.2594 10.5253C15.2607 10.5272 15.4432 10.785 15.5162 11.1844L13.5488 11.5441Z" fill="white" mask="url(#path-8-outside-1_14086_5952)"/>
</mask>
<g mask="url(#mask1_14086_5952)">
<g style="mix-blend-mode:multiply" opacity="0.49">
<path d="M43.7854 23.6037C42.2253 25.8998 39.0994 26.4966 36.8032 24.9369L33.6907 22.8225C31.3944 21.2625 30.7969 18.1361 32.3567 15.8397L37.6809 8.00251C39.241 5.70635 42.3676 5.10989 44.6639 6.66987L47.7763 8.78427C50.0724 10.3443 50.6693 13.4702 49.1095 15.7665L43.7854 23.6037Z" fill="white"/>
<path d="M43.7854 23.6037C42.2253 25.8998 39.0994 26.4966 36.8032 24.9369L33.6907 22.8225C31.3944 21.2625 30.7969 18.1361 32.3567 15.8397L37.6809 8.00251C39.241 5.70635 42.3676 5.10989 44.6639 6.66987L47.7763 8.78427C50.0724 10.3443 50.6693 13.4702 49.1095 15.7665L43.7854 23.6037Z" stroke="white" stroke-width="2" stroke-linejoin="round"/>
</g>
<path d="M42.7346 22.3039C41.1746 24.6 38.0487 25.1968 35.7524 23.6371L32.64 21.5227C30.3436 19.9627 29.7461 16.8363 31.306 14.5399L36.6301 6.70271C38.1902 4.40655 41.3168 3.81008 43.6131 5.37006L46.7256 7.48447C49.0216 9.04451 49.6185 12.1704 48.0587 14.4667L42.7346 22.3039Z" fill="white" stroke="white" stroke-width="2" stroke-linejoin="round"/>
<mask id="mask2_14086_5952" style="mask-type:luminance" maskUnits="userSpaceOnUse" x="29" y="3" width="21" height="23">
<path d="M42.6789 22.3755C41.1189 24.6716 37.993 25.2685 35.6967 23.7087L32.5843 21.5943C30.288 20.0343 29.6905 16.9079 31.2503 14.6116L36.5744 6.77436C38.1346 4.4782 41.2612 3.88174 43.5575 5.44172L46.6699 7.55612C48.9659 9.11617 49.5628 12.2421 48.0031 14.5383L42.6789 22.3755Z" fill="white" stroke="white" stroke-width="2" stroke-linejoin="round"/>
</mask>
<g mask="url(#mask2_14086_5952)">
<g style="mix-blend-mode:multiply" opacity="0.26">
<path d="M30.5269 9.83228C34.3422 9.83228 37.4359 12.9252 37.436 16.7405C37.436 20.5559 34.3423 23.6497 30.5269 23.6497C26.7115 23.6495 23.6187 20.5558 23.6187 16.7405C23.6188 12.9252 26.7116 9.83242 30.5269 9.83228Z" fill="white"/>
<path d="M30.5269 9.83228C34.3422 9.83228 37.4359 12.9252 37.436 16.7405C37.436 20.5559 34.3423 23.6497 30.5269 23.6497C26.7115 23.6495 23.6187 20.5558 23.6187 16.7405C23.6188 12.9252 26.7116 9.83242 30.5269 9.83228Z" stroke="white" stroke-width="2" stroke-linejoin="round"/>
</g>
</g>
<mask id="mask3_14086_5952" style="mask-type:luminance" maskUnits="userSpaceOnUse" x="29" y="3" width="21" height="23">
<path d="M42.7361 22.3305C41.176 24.6266 38.0501 25.2234 35.7538 23.6637L32.6414 21.5493C30.3451 19.9893 29.7476 16.8629 31.3074 14.5665L36.6316 6.72932C38.1917 4.43316 41.3183 3.8367 43.6146 5.39667L46.727 7.51108L46.9372 7.66216C49.0581 9.26601 49.5712 12.2688 48.0602 14.4933L42.7361 22.3305Z" fill="white" stroke="white" stroke-width="2" stroke-linejoin="round"/>
</mask>
<g mask="url(#mask3_14086_5952)">
<g style="mix-blend-mode:multiply" opacity="0.26">
<path d="M36.3618 7.36646C38.0142 7.36653 39.354 8.70622 39.354 10.3586C39.3539 12.011 38.0142 13.3508 36.3618 13.3508C34.7094 13.3508 33.3697 12.011 33.3696 10.3586C33.3696 8.70618 34.7094 7.36646 36.3618 7.36646Z" fill="white"/>
<path d="M36.3618 7.36646C38.0142 7.36653 39.354 8.70622 39.354 10.3586C39.3539 12.011 38.0142 13.3508 36.3618 13.3508C34.7094 13.3508 33.3697 12.011 33.3696 10.3586C33.3696 8.70618 34.7094 7.36646 36.3618 7.36646Z" stroke="white" stroke-width="2" stroke-linejoin="round"/>
</g>
</g>
<g style="mix-blend-mode:multiply" opacity="0.26">
<path d="M41.5781 5.38025C41.8327 4.9277 42.3916 4.74515 42.8643 4.96033C43.0484 5.04417 43.2364 5.14116 43.4238 5.25525L43.6113 5.37537L43.6133 5.37634L46.7266 7.49158L46.9365 7.64294C49.0572 9.24709 49.5703 12.2498 48.0596 14.474L42.7363 22.3109C41.176 24.6066 38.0499 25.2034 35.7539 23.6439H35.7529L35.5674 23.5179C35.138 23.2259 35.0034 22.6532 35.2578 22.2006C35.5123 21.748 36.0713 21.5657 36.5439 21.7806C37.8611 22.3795 39.4552 21.9628 40.2939 20.7279L45.6172 12.891C46.5568 11.508 46.1967 9.62582 44.8145 8.68689V8.68591L41.8877 6.69763C41.458 6.4057 41.3236 5.8331 41.5781 5.38025Z" fill="white"/>
<path d="M41.5781 5.38025C41.8327 4.9277 42.3916 4.74515 42.8643 4.96033C43.0484 5.04417 43.2364 5.14116 43.4238 5.25525L43.6113 5.37537L43.6133 5.37634L46.7266 7.49158L46.9365 7.64294C49.0572 9.24709 49.5703 12.2498 48.0596 14.474L42.7363 22.3109C41.176 24.6066 38.0499 25.2034 35.7539 23.6439H35.7529L35.5674 23.5179C35.138 23.2259 35.0034 22.6532 35.2578 22.2006C35.5123 21.748 36.0713 21.5657 36.5439 21.7806C37.8611 22.3795 39.4552 21.9628 40.2939 20.7279L45.6172 12.891C46.5568 11.508 46.1967 9.62582 44.8145 8.68689V8.68591L41.8877 6.69763C41.458 6.4057 41.3236 5.8331 41.5781 5.38025Z" stroke="white" stroke-width="2" stroke-linejoin="round"/>
</g>
<path d="M29.3452 9.48816C33.1606 9.48816 36.2542 12.581 36.2544 16.3964C36.2544 20.2118 33.1607 23.3055 29.3452 23.3055C25.5299 23.3054 22.437 20.2117 22.437 16.3964C22.4372 12.5811 25.53 9.48831 29.3452 9.48816Z" fill="white" stroke="white" stroke-width="2" stroke-linejoin="round"/>
<g style="mix-blend-mode:multiply">
<path d="M31.0391 10.0323C31.3083 9.8797 31.6298 9.86324 31.9111 9.97864C31.9139 9.97977 31.9172 9.98043 31.9199 9.98157C31.9245 9.98349 31.929 9.98543 31.9336 9.98743C34.4363 11.0236 36.201 13.4887 36.2012 16.3702C36.2012 20.1855 33.1082 23.2794 29.293 23.2794C27.9995 23.2794 26.788 22.9225 25.752 22.3029C25.3032 22.0343 25.1373 21.465 25.3711 20.9972C25.6052 20.5294 26.1605 20.3205 26.6445 20.5187C27.2182 20.7538 27.8453 20.8849 28.5049 20.8849C31.2156 20.8849 33.4131 18.6864 33.4131 15.9757C33.4129 14.1872 32.457 12.6223 31.0225 11.7628C30.722 11.5847 30.5323 11.2599 30.5322 10.9034C30.5322 10.5434 30.7259 10.21 31.0391 10.0323Z" fill="white"/>
<path d="M31.0391 10.0323C31.3083 9.8797 31.6298 9.86324 31.9111 9.97864C31.9139 9.97977 31.9172 9.98043 31.9199 9.98157C31.9245 9.98349 31.929 9.98543 31.9336 9.98743C34.4363 11.0236 36.201 13.4887 36.2012 16.3702C36.2012 20.1855 33.1082 23.2794 29.293 23.2794C27.9995 23.2794 26.788 22.9225 25.752 22.3029C25.3032 22.0343 25.1373 21.465 25.3711 20.9972C25.6052 20.5294 26.1605 20.3205 26.6445 20.5187C27.2182 20.7538 27.8453 20.8849 28.5049 20.8849C31.2156 20.8849 33.4131 18.6864 33.4131 15.9757C33.4129 14.1872 32.457 12.6223 31.0225 11.7628C30.722 11.5847 30.5323 11.2599 30.5322 10.9034C30.5322 10.5434 30.7259 10.21 31.0391 10.0323Z" stroke="white" stroke-width="2" stroke-linejoin="round"/>
</g>
<path d="M35.6479 5.64856C37.4504 5.64859 38.9116 7.1098 38.9116 8.91223C38.9116 10.7146 37.4504 12.1759 35.6479 12.1759C33.8455 12.1759 32.3843 10.7147 32.3843 8.91223C32.3843 7.10978 33.8455 5.64856 35.6479 5.64856Z" fill="white" stroke="white" stroke-width="2" stroke-linejoin="round"/>
</g>
<path d="M21.9048 5.06262C22.603 4.42207 23.7414 4.85415 23.8257 5.80774C23.8259 5.81065 23.8255 5.81362 23.8257 5.81653L24.0337 8.11243L26.0493 9.24719H26.0503C26.8916 9.71676 26.8095 10.9338 25.9438 11.3058H25.9429L23.814 12.2169L23.3579 14.4894C23.1699 15.4264 21.9913 15.7334 21.3667 15.0187L19.8413 13.2745L17.5405 13.5431H17.5396C16.5928 13.6526 15.9324 12.6299 16.4214 11.8126H16.4224L17.6069 9.82434L16.6421 7.71887L16.6431 7.7179C16.2422 6.84451 17.0207 5.91513 17.936 6.11829L17.9409 6.11926L20.1997 6.63293L21.9038 5.0636L21.9048 5.06262Z" fill="white" stroke="white" stroke-width="2" stroke-linejoin="round"/>
<path d="M29.5938 2.2627C30.469 1.60998 31.7186 2.23995 31.7061 3.33789L31.707 3.33887L31.6982 4.03125L32.2646 4.43066L32.4199 4.55762C33.1308 5.23192 32.8755 6.46642 31.8975 6.77344L31.8955 6.77441L31.2324 6.98047L31.0283 7.64258L31.0273 7.64355C30.7037 8.68234 29.3207 8.91606 28.6846 8.01367V8.0127L28.2852 7.44922L27.5928 7.45898H27.5918C26.5003 7.4724 25.857 6.22718 26.5146 5.3457H26.5156L26.9287 4.79004L26.7051 4.13477L26.6543 3.94043C26.4758 2.97651 27.409 2.12832 28.3799 2.45508C28.3823 2.45589 28.3843 2.45816 28.3867 2.45898L29.0371 2.67871L29.5928 2.26367L29.5938 2.2627ZM28.6318 6.76562V6.76758L28.6328 6.7666V6.76465L28.6318 6.76562Z" fill="white" stroke="white" stroke-width="2" stroke-linejoin="round"/>
<path d="M55.3745 5.43958C55.704 5.22016 56.1324 5.21523 56.4663 5.42786C56.6945 5.57331 56.9017 5.76468 57.0757 5.99719C57.1022 6.02798 57.128 6.05966 57.1509 6.09387C57.6607 6.85788 57.6713 7.85135 57.1812 8.62708V8.62805L51.6724 17.3234L56.0591 42.3781L56.0884 42.6144C56.1745 43.7907 55.3562 44.8619 54.1714 45.0695L47.1782 46.295C47.1123 46.3066 47.0459 46.3094 46.98 46.3077L45.8179 46.5031C47.2729 47.5591 48.8484 49.0788 50.1851 51.2423C50.4688 51.7015 50.3371 52.3034 49.8872 52.6017C49.4374 52.8999 48.8316 52.7868 48.519 52.3468C46.0819 48.9163 43.0301 47.6247 41.8364 47.2296L30.8032 49.1613C31.7804 55.268 29.1574 59.1387 26.0103 60.6427L25.687 60.7872C22.3722 62.1875 17.9676 61.3281 14.3267 57.3898C13.8533 58.329 13.3967 59.2437 13.022 60.004C12.7458 60.5645 12.5138 61.0404 12.3491 61.3781C12.2669 61.5466 12.201 61.6804 12.1558 61.7736C12.1331 61.8202 12.1152 61.8568 12.103 61.882C12.0903 61.9083 12.0855 61.92 12.0854 61.92L12.0835 61.924C11.6812 62.7549 10.8507 63.2365 9.98975 63.2365C9.64885 63.2364 9.30466 63.1608 8.98193 63.006L8.979 63.005C8.27705 62.6658 7.82859 62.0199 7.70361 61.3165C7.63426 60.9262 7.80205 60.5314 8.13135 60.3107C8.4606 60.0901 8.88948 60.0846 9.22412 60.297C9.23938 60.3067 9.24953 60.3128 9.25635 60.3165L9.32959 60.3429C9.35337 60.3483 9.37658 60.3507 9.39893 60.3507C9.52221 60.3507 9.63622 60.2818 9.69189 60.1671C9.75567 60.0349 11.2338 56.9818 12.6353 54.2491C12.7916 53.9446 13.0931 53.7413 13.4341 53.7101C13.7752 53.6789 14.1089 53.8244 14.3179 54.0958C17.7047 58.4959 21.7165 59.1585 24.3179 58.0597C26.7643 57.0265 29.3975 53.7944 28.0679 47.6779C28.01 47.4118 28.0625 47.1333 28.2144 46.9073C28.3662 46.6814 28.6044 46.5276 28.8726 46.4806L41.1489 44.3302L45.7759 43.5011L45.8755 43.4884C45.9058 43.4861 45.9361 43.486 45.9663 43.4865L53.2349 42.214C53.4115 42.183 53.5286 42.015 53.4976 41.839V41.838L49.0435 16.4025C49.0006 16.1576 49.0511 15.9055 49.1841 15.6954L54.8999 6.672L54.9263 6.62024C54.9479 6.56578 54.9546 6.5046 54.9438 6.4425C54.8763 6.05243 55.0451 5.65911 55.3745 5.43958Z" fill="white" stroke="white" stroke-width="2" stroke-linejoin="round"/>
<path d="M62.1406 17.3558C63.83 17.3558 65.2456 18.1478 66.2207 19.224C67.1849 20.2883 67.7783 21.6945 67.7783 23.0472C67.7783 23.5561 67.6685 24.1479 67.2295 24.6029C67.1712 24.6633 67.1099 24.7175 67.0469 24.767C67.347 25.1228 67.5625 25.6003 67.5625 26.1273C67.5623 26.7586 67.2396 27.2684 66.8984 27.6263C66.5501 27.9918 66.0975 28.2928 65.625 28.5297C64.6819 29.0023 63.4776 29.3109 62.3555 29.3109C60.6519 29.3109 59.1755 28.685 58.1279 27.5902C57.0849 26.5001 56.5215 25.0032 56.5215 23.351C56.5215 20.305 58.754 17.3558 62.1406 17.3558Z" fill="white" stroke="white" stroke-width="2" stroke-linejoin="round"/>
<path d="M72.647 17.356C73.8701 17.356 75.0126 17.748 75.8569 18.5474C76.7089 19.354 77.1743 20.4972 77.1743 21.8296V26.771C77.1743 27.4092 76.9721 28.02 76.5503 28.4829C76.1229 28.952 75.5277 29.2035 74.8853 29.2036C74.2427 29.2036 73.6468 28.9521 73.2192 28.4829C72.7975 28.02 72.5952 27.4092 72.5952 26.771V22.2778C72.5952 21.8946 72.4817 21.731 72.4097 21.6616C72.3291 21.584 72.1764 21.5054 71.9126 21.5054C71.6456 21.5054 71.517 21.5931 71.4438 21.6763C71.3567 21.7753 71.2661 21.9671 71.2661 22.2778V26.771C71.2661 27.4091 71.0638 28.02 70.6421 28.4829C70.2145 28.9521 69.6187 29.2036 68.9761 29.2036C68.3336 29.2035 67.7375 28.9521 67.3101 28.4829C66.8885 28.0201 66.687 27.409 66.687 26.771V19.896C66.687 19.8591 66.689 19.8225 66.6929 19.7866C66.7147 19.1885 66.9137 18.6204 67.311 18.1841C67.7383 17.715 68.3341 17.4634 68.9771 17.4634C69.4655 17.4634 69.9516 17.5937 70.356 17.8989C70.9886 17.5251 71.7572 17.356 72.647 17.356Z" fill="white" stroke="white" stroke-width="2" stroke-linejoin="round"/>
<path d="M62.29 30.6471C62.8883 30.6471 63.8026 30.7531 64.6035 31.0573C65.3242 31.331 66.4414 31.9701 66.4414 33.277C66.4413 33.7525 66.2829 34.2624 65.9951 34.6715C65.7023 35.0877 65.1845 35.5122 64.457 35.5123H64.4561C63.9081 35.5123 63.4108 35.2971 63.1445 35.1949C62.8222 35.0713 62.6251 35.0114 62.415 35.0114C62.0212 35.0114 61.7711 35.168 61.5889 35.4186C61.383 35.7019 61.248 36.1395 61.248 36.6432C61.2481 37.1258 61.3901 37.5525 61.6035 37.8336C61.7992 38.0914 62.0574 38.2389 62.415 38.2389C62.5294 38.2387 62.7672 38.1766 63.1504 38.0338C63.3002 37.978 63.5089 37.8962 63.6621 37.8424C63.7784 37.8016 64.0566 37.7018 64.3311 37.7018L64.5488 37.7135C65.6245 37.826 66.4412 38.7601 66.4414 39.8297C66.4414 41.1495 65.3344 41.8325 64.5967 42.1373C63.7881 42.4714 62.8678 42.6022 62.29 42.6022C58.8598 42.6022 56.6709 39.7721 56.6709 36.6422C56.6709 33.5137 58.913 30.6471 62.29 30.6471Z" fill="white" stroke="white" stroke-width="2" stroke-linejoin="round"/>
<path d="M70.2188 30.6471C70.9857 30.6471 71.7779 30.8443 72.459 31.277C72.8582 30.9469 73.3697 30.7556 73.9072 30.7555C74.3532 30.7555 74.7764 30.8486 75.1426 31.0719C75.5147 31.2989 75.753 31.6151 75.8984 31.9332C76.1597 32.5049 76.1436 33.1571 76.1436 33.4391V39.8121C76.1436 40.0941 76.1597 40.7463 75.8984 41.318C75.753 41.6362 75.5147 41.9523 75.1426 42.1793C74.7765 42.4026 74.3532 42.4957 73.9072 42.4957C73.353 42.4956 72.8344 42.3392 72.4209 41.9586C71.783 42.3748 71.0487 42.6021 70.2188 42.6022C67.1227 42.6022 64.957 39.9602 64.957 36.6422C64.9571 33.3253 67.1761 30.6471 70.2188 30.6471ZM70.5781 35.0114C70.2939 35.0114 70.069 35.138 69.876 35.4235C69.6659 35.7344 69.5361 36.1894 69.5361 36.6432C69.5361 37.1067 69.6608 37.5481 69.8604 37.8424C70.0381 38.1043 70.2582 38.2389 70.5781 38.2389C70.8557 38.2388 71.0636 38.1196 71.2422 37.8512C71.4402 37.5534 71.5644 37.1074 71.5645 36.6432C71.5645 36.1731 71.4415 35.7151 71.2422 35.4078C71.0628 35.1314 70.8562 35.0114 70.5781 35.0114Z" fill="white" stroke="white" stroke-width="2" stroke-linejoin="round"/>
<path d="M79.8667 30.6477C80.6276 30.6477 81.5834 30.8194 82.3833 31.1985C83.1412 31.5577 84.0901 32.28 84.0903 33.509C84.0903 34.3819 83.5198 35.3225 82.564 35.5823C83.468 36.1531 84.3227 37.0577 84.3228 38.5754C84.3228 40.9965 82.2623 42.6008 79.6528 42.6008C78.7704 42.6008 77.7211 42.3585 76.8706 41.9426C76.4428 41.7334 76.0142 41.4559 75.6802 41.0969C75.3852 40.7799 75.1269 40.3563 75.0669 39.8411L75.0542 39.6145L75.063 39.4397C75.1056 39.0286 75.2939 38.6049 75.5571 38.2727C75.8361 37.9207 76.2807 37.574 76.8794 37.4885C76.0756 36.9094 75.3755 36.0341 75.3755 34.6555C75.3756 33.4703 75.865 32.4396 76.7065 31.72C77.5359 31.0109 78.6521 30.6478 79.8667 30.6477Z" fill="white" stroke="white" stroke-width="2" stroke-linejoin="round"/>
<path d="M88.1196 30.6471C88.8866 30.6471 89.6788 30.8443 90.3599 31.277C90.7591 30.9469 91.2706 30.7556 91.8081 30.7555C92.2541 30.7555 92.6773 30.8486 93.0435 31.0719C93.4156 31.2989 93.6539 31.6151 93.7993 31.9332C94.0606 32.5049 94.0444 33.1571 94.0444 33.4391V39.8121C94.0444 40.0941 94.0606 40.7463 93.7993 41.318C93.6539 41.6362 93.4156 41.9523 93.0435 42.1793C92.6773 42.4026 92.2541 42.4957 91.8081 42.4957C91.2538 42.4956 90.7353 42.3392 90.3218 41.9586C89.6839 42.3747 88.9496 42.6021 88.1196 42.6022C85.0236 42.6022 82.8579 39.9602 82.8579 36.6422C82.8579 33.3253 85.077 30.6471 88.1196 30.6471ZM88.479 35.0114C88.1947 35.0114 87.9698 35.138 87.7769 35.4235C87.5668 35.7344 87.437 36.1894 87.437 36.6432C87.437 37.1067 87.5617 37.5481 87.7612 37.8424C87.939 38.1043 88.159 38.2389 88.479 38.2389C88.7565 38.2388 88.9644 38.1196 89.1431 37.8512C89.3411 37.5534 89.4653 37.1074 89.4653 36.6432C89.4653 36.1731 89.3424 35.7151 89.1431 35.4078C88.9636 35.1314 88.7571 35.0114 88.479 35.0114Z" fill="white" stroke="white" stroke-width="2" stroke-linejoin="round"/>
<path d="M37.4526 22.4053C41.014 21.2822 44.5127 21.2453 47.2964 22.1689C50.0873 23.095 52.2388 25.0296 52.8052 27.8398C53.3641 30.6101 52.2293 33.4942 50.187 35.8916C48.133 38.3026 45.0758 40.3353 41.5112 41.459C37.9496 42.5817 34.4586 42.6148 31.6821 41.6865C28.9846 40.7846 26.891 38.9373 26.2485 36.2705L26.1909 36.0098C25.6329 33.2411 26.7581 30.3609 28.7935 27.9658C30.8399 25.5577 33.8889 23.5285 37.4526 22.4053Z" fill="white" stroke="white" stroke-width="2" stroke-linejoin="round"/>
<path d="M44.7471 28.2726C45.834 28.0705 46.8206 28.279 47.4365 29.0607C47.9228 29.6779 48.0102 30.4545 47.9492 31.1134L47.915 31.3878C47.85 31.7988 47.6316 32.5598 47.1279 33.2911C46.6422 33.9963 45.8678 34.7012 44.707 34.9874L44.4697 35.0392C43.5233 35.2171 42.5751 35.0673 41.9316 34.3644C41.3165 33.6922 41.2162 32.7648 41.3496 31.9171V31.9161C41.6267 30.1652 42.9837 28.6022 44.7363 28.2736C44.7398 28.2729 44.7436 28.2732 44.7471 28.2726ZM44.915 30.9279C44.8532 30.9823 44.7798 31.0635 44.7012 31.1876C44.5282 31.4607 44.4153 31.8011 44.374 32.0411L44.373 32.0431C44.3517 32.166 44.3442 32.2797 44.3438 32.3781C44.4227 32.3131 44.508 32.2133 44.5957 32.0616C44.7637 31.7709 44.8528 31.4334 44.8818 31.2677C44.8825 31.2639 44.8831 31.2598 44.8838 31.256C44.9045 31.1382 44.9129 31.0266 44.915 30.9279Z" fill="white" stroke="white" stroke-width="2" stroke-linejoin="round"/>
<path d="M31.9556 29.0402C32.418 28.9986 32.8545 29.2831 32.9976 29.7335V29.7345L33.0024 29.7491C33.0056 29.7591 33.0101 29.774 33.0161 29.7931C33.0283 29.8315 33.0462 29.8877 33.0688 29.9591C33.1143 30.1025 33.1797 30.3074 33.2573 30.5519C33.4125 31.0408 33.6177 31.6898 33.8208 32.3292C34.0239 32.9687 34.2249 33.5985 34.3687 34.0499C34.4355 34.2599 34.49 34.431 34.5269 34.546C34.835 34.7288 35.0277 35.066 35.0171 35.4337C35.0032 35.9127 34.7663 36.2777 34.564 36.4962C34.3972 36.6763 34.1284 36.8877 33.7954 36.9747L33.7964 36.9767C33.7781 36.9818 33.7577 36.9842 33.7368 36.9894C33.727 36.9914 33.7175 36.9954 33.7075 36.9972L33.7065 36.9962C33.4581 37.0539 33.0561 37.101 32.6157 36.9347C32.0775 36.7314 31.6676 36.2863 31.4224 35.6505C31.413 35.6262 31.4044 35.6012 31.397 35.5763L31.0356 34.3683L29.5942 37.2365C29.4539 37.5153 29.1912 37.7123 28.8843 37.7697L28.2671 37.8849C27.8926 37.9548 27.5109 37.8062 27.2827 37.5011C27.0546 37.1959 27.0199 36.7878 27.1929 36.4484L30.1372 30.6749L30.1626 30.629C30.2255 30.5203 30.4028 30.1894 30.6265 29.8976C30.8231 29.641 31.2324 29.1693 31.8628 29.0529L31.9556 29.0402Z" fill="white" stroke="white" stroke-width="2" stroke-linejoin="round"/>
<path d="M41.0312 28.9453C41.5037 28.8567 42.0265 28.8577 42.543 29.0186L42.7646 29.0967V29.0977L42.665 29.3418H42.666L42.7656 29.0977H42.7666L42.7676 29.0986C42.7685 29.099 42.7695 29.0992 42.7705 29.0996C42.7726 29.1005 42.7751 29.1016 42.7773 29.1025C42.7818 29.1044 42.7869 29.1062 42.792 29.1084C42.8022 29.1129 42.8134 29.119 42.8262 29.125C42.8516 29.137 42.8831 29.1522 42.918 29.1719C42.9847 29.2095 43.0813 29.271 43.1807 29.3613C43.3765 29.5396 43.6914 29.9471 43.5771 30.5303C43.5663 30.5856 43.5488 30.6387 43.5293 30.6904C43.5232 30.7065 43.5164 30.7226 43.5098 30.7383C43.502 30.756 43.495 30.7739 43.4863 30.791C43.3721 31.0318 43.1921 31.2267 42.9648 31.3545C42.7273 31.488 42.4943 31.5183 42.3369 31.5215C42.1769 31.5247 42.0414 31.5013 41.9551 31.4814C41.9358 31.477 41.9181 31.4712 41.9014 31.4668C41.8967 31.4658 41.8923 31.464 41.8877 31.4629C41.8703 31.4581 41.8538 31.4545 41.8398 31.4502C41.8318 31.4477 41.8244 31.4447 41.8174 31.4424C41.8065 31.4389 41.795 31.4374 41.7842 31.4336C41.6702 31.3929 41.5715 31.3843 41.4746 31.4023L41.4736 31.4014C41.2408 31.4466 41.0824 31.5759 40.9473 31.7979C40.7975 32.0439 40.7105 32.3599 40.667 32.6348C40.6296 32.8717 40.6512 33.0034 40.6689 33.0654C40.6816 33.0644 40.6974 33.065 40.7158 33.0615L40.7197 33.0605C41.0567 32.9981 41.3022 32.8866 41.4883 32.7881C41.5619 32.7491 41.6407 32.7198 41.7217 32.7002C41.7934 32.6828 42.1244 32.6018 42.4795 32.7812C42.9698 33.0291 43.0648 33.5084 43.0596 33.7666C43.059 33.7952 43.0577 33.8241 43.0547 33.8525C42.978 34.5691 42.5801 34.9869 42.2559 35.1846C42.2185 35.2073 42.1796 35.2274 42.1396 35.2451C41.8152 35.3885 41.3334 35.5711 40.7793 35.6582C39.5372 35.8536 38.5162 35.5782 37.9131 34.7637C37.3778 34.0407 37.3814 33.1544 37.4707 32.5938H37.4717C37.7091 31.0867 39.011 29.324 41.0312 28.9453Z" fill="white" stroke="white" stroke-width="2" stroke-linejoin="round"/>
<path d="M36.6475 29.8226C37.1885 29.7264 37.8603 29.7171 38.4326 30.0052C38.7479 30.164 39.0442 30.4215 39.2285 30.7992C39.4107 31.1728 39.4407 31.5773 39.3799 31.9633V31.9652C39.2563 32.7402 38.8168 33.2865 38.3896 33.6498C38.4297 33.7111 38.4587 33.7479 38.4756 33.765C38.603 33.815 38.7198 33.8909 38.8184 33.9896C39.0059 34.1776 39.1109 34.4321 39.1104 34.6976C39.1091 35.2185 38.8584 35.6026 38.5801 35.8392C38.3297 36.0521 38.0596 36.1484 37.9141 36.1908C37.895 36.1964 37.8759 36.202 37.8564 36.2064C37.8065 36.2178 37.7468 36.2296 37.7314 36.2328C37.7261 36.2339 37.7202 36.2347 37.7148 36.2357C37.458 36.284 36.9984 36.3729 36.5508 36.2299C36.4396 36.1943 36.3406 36.1455 36.249 36.0922C36.1073 36.3467 35.8602 36.5342 35.5625 36.5902L34.9746 36.7006L34.9736 36.6996L34.9717 36.7006C34.9521 36.7043 34.9291 36.7088 34.9033 36.7123C34.8524 36.7192 34.7858 36.7253 34.709 36.725C34.5627 36.7244 34.332 36.7003 34.0889 36.5746C33.825 36.4381 33.6038 36.2102 33.4736 35.9037C33.3524 35.6182 33.3303 35.3151 33.3535 35.0316L33.3633 34.9574L33.8672 31.7592L33.8877 31.6635C33.9496 31.425 34.0952 31.0564 34.4346 30.7103C34.7814 30.3566 35.2761 30.0814 35.9404 29.9584V29.9594C36.0015 29.9478 36.0412 29.9384 36.0654 29.932L36.1367 29.9154L36.6055 29.8275C36.6193 29.8249 36.6336 29.8246 36.6475 29.8226ZM38.376 33.7318C38.3695 33.7299 38.3627 33.7278 38.3555 33.726C38.3456 33.7234 38.3322 33.7205 38.3164 33.7172C38.3141 33.7167 38.3108 33.7159 38.3076 33.7152C38.3307 33.7198 38.3534 33.7256 38.376 33.7318Z" fill="white" stroke="white" stroke-width="2" stroke-linejoin="round"/>
<path d="M49.1899 27.4974C49.7375 27.3941 50.4292 27.3775 51.0161 27.6732C51.3313 27.832 51.6278 28.0888 51.812 28.4662C51.9867 28.8242 52.02 29.211 51.9692 29.5824C51.9674 29.5995 51.9671 29.6171 51.9644 29.6342C51.8407 30.4094 51.4005 30.9555 50.9731 31.3187C51.0134 31.3806 51.0432 31.417 51.0601 31.434C51.1869 31.4838 51.3037 31.5593 51.4019 31.6576C51.5894 31.8456 51.6945 32.101 51.6938 32.3666C51.6926 32.8875 51.4419 33.2716 51.1636 33.5082C50.9132 33.721 50.643 33.8173 50.4976 33.8597C50.4785 33.8653 50.4593 33.871 50.4399 33.8754C50.3901 33.8867 50.3306 33.8976 50.3149 33.9008C50.3096 33.9019 50.3037 33.9037 50.2983 33.9047C50.0415 33.953 49.5818 34.0418 49.1343 33.8988C49.0231 33.8633 48.924 33.8144 48.8325 33.7611C48.6908 34.0156 48.4437 34.2032 48.146 34.2592L47.5581 34.3695C47.5472 34.3716 47.5358 34.3708 47.5249 34.3724C47.515 34.3741 47.5046 34.3768 47.4937 34.3783C47.4763 34.3807 47.4568 34.3792 47.436 34.3812C47.4187 34.3823 47.4015 34.3849 47.3843 34.3851C47.358 34.3867 47.33 34.3909 47.3003 34.391C47.1544 34.3912 46.9233 34.3691 46.6792 34.2445C46.4142 34.1092 46.1915 33.8817 46.0601 33.5746C45.9378 33.2887 45.9151 32.9851 45.938 32.7015L45.9468 32.6263L46.4517 29.4271L46.4712 29.3324C46.5328 29.0947 46.6794 28.7259 47.019 28.3793C47.3651 28.0264 47.8582 27.7527 48.52 27.6293V27.6283C48.5831 27.6162 48.624 27.6076 48.6489 27.601L48.7212 27.5844L49.1899 27.4965V27.4974ZM50.894 31.3851C50.9161 31.3896 50.9379 31.3948 50.9595 31.4008C50.953 31.3989 50.9462 31.3968 50.939 31.3949C50.9291 31.3923 50.9157 31.3895 50.8999 31.3861C50.8983 31.3858 50.8961 31.3846 50.894 31.3842V31.3851Z" fill="white" stroke="white" stroke-width="2" stroke-linejoin="round"/>
<path d="M45.4658 23.2559C47.0369 23.0028 48.6716 22.7441 50.4443 23.4727C50.4596 23.4789 50.4744 23.4872 50.4893 23.4941C51.5258 23.9441 52.3512 25.125 52.7656 26.4961C53.2046 27.9487 53.2508 29.7944 52.5459 31.7881C52.365 32.2995 51.8088 32.5732 51.293 32.4053C50.7773 32.2372 50.4897 31.6887 50.6445 31.1689C50.9784 30.0484 50.9264 29.3515 50.7803 28.9287C50.6406 28.5247 50.3767 28.2587 50.0303 28.0674C49.2542 27.6388 48.2652 27.6724 47.9658 27.6641C44.3681 27.5638 40.5372 28.9111 37.2002 30.8594C33.862 32.8083 31.1387 35.2884 29.7354 37.3076C29.5847 37.5244 29.3543 37.673 29.0947 37.7207L28.9033 37.7559C28.5297 37.8244 28.1493 37.6752 27.9219 37.3711C27.6944 37.0667 27.6594 36.6593 27.8311 36.3203C29.4447 33.1348 32.2744 30.1367 35.4473 27.8154C38.618 25.4957 42.227 23.7813 45.4648 23.2559H45.4658Z" fill="white" stroke="white" stroke-width="2" stroke-linejoin="round"/>
</g>
<g filter="url(#filter1_d_14086_5952)">
<path d="M61.3687 51.3115C61.0253 50.6647 60.224 50.4182 59.5781 50.7617C59.4335 50.8377 56.6769 52.3309 54.2679 55.8112C52.5959 50.76 49.5618 47.3792 46.4609 45.4055L53.9988 44.0853C54.7191 43.9591 55.2012 43.2731 55.0742 42.552L50.6205 17.1165L56.336 8.09382C56.6159 7.65096 56.6092 7.08443 56.3193 6.64992C56.0285 6.21457 55.5054 5.99314 54.9915 6.08004L45.1374 7.78632C44.956 7.81808 44.7856 7.88659 44.6352 7.98519C45.0998 8.24924 45.3839 8.42388 45.3738 8.45229C45.3245 8.60019 45.3245 13.6714 45.3245 13.6714L44.438 17.216L25.2344 20.6411C25.104 20.6645 24.9712 20.6603 24.8425 20.6294L15.4646 13.089C15.1697 12.86 14.7928 12.7656 14.4227 12.83L4.23846 15.315C2.7227 15.6384 2.6617 16.103 3.71037 16.9469L12.3938 23.7612L16.8567 49.2442C16.9177 49.5902 17.1124 49.8985 17.3999 50.1007C17.6246 50.2578 17.8904 50.3405 18.1611 50.3405C18.2371 50.3405 18.314 50.3338 18.3892 50.3205L27.0267 48.8072C27.9501 52.9693 26.9006 56.3125 24.2643 57.4255C21.8268 58.455 18.0491 57.281 15.1045 52.3359C14.8605 51.9256 14.3993 51.6875 13.9363 51.6892C13.4592 51.7009 13.0239 51.9674 12.7983 52.3877C11.1739 55.4201 8.81834 60.2866 8.79495 60.3359C8.47659 60.9943 8.75233 61.7856 9.41078 62.1048C9.59712 62.1942 9.79348 62.2369 9.9865 62.2369C10.4787 62.2369 10.9516 61.9619 11.1797 61.489C11.1981 61.4506 12.6963 58.3555 14.1127 55.5922C17.7099 60.2657 22.1811 61.1823 25.2946 59.8671C28.2484 58.6196 31.0484 54.8678 29.6321 48.3518L41.9086 46.2018C43.5807 46.704 50.5921 49.3921 52.4939 59.5479C52.6009 60.1144 53.0621 60.5481 53.6337 60.6191C53.688 60.6258 53.7423 60.6292 53.7966 60.6292C54.3097 60.6292 54.7826 60.3317 54.9999 59.8563C57.1724 55.1109 60.7838 53.1197 60.8147 53.1022C61.4615 52.7604 61.708 51.9582 61.3646 51.3115H61.3687Z" fill="#0077C0"/>
<path opacity="0.53" d="M12.8042 23.5514L23.7012 21.1223L28.2309 47.9716L17.4651 49.8099L12.8042 23.5514Z" fill="#75B6E4"/>
<mask id="mask4_14086_5952" style="mask-type:luminance" maskUnits="userSpaceOnUse" x="3" y="6" width="59" height="57">
<path d="M61.3693 51.3115C61.0259 50.6647 60.2245 50.4182 59.5786 50.7617C59.4341 50.8377 56.6775 52.3309 54.2684 55.8112C52.5964 50.76 49.5624 47.3792 46.4615 45.4055L53.9994 44.0853C54.7197 43.9591 55.2018 43.2731 55.0748 42.552L50.6211 17.1165L56.3365 8.09382C56.6165 7.65096 56.6098 7.08443 56.3198 6.64992C56.029 6.21457 55.506 5.99314 54.9921 6.08004L45.1379 7.78632C44.7686 7.85066 44.4444 8.06708 44.2438 8.38294L38.5877 17.3104L23.8161 19.8982L15.466 13.4048C15.1711 13.1759 14.7942 13.0815 14.4241 13.1458L4.57326 15.2682C4.0577 15.3585 3.46694 16.8182 3.98918 17.2252L12.3952 23.762L16.8581 49.2451C16.9191 49.591 17.1138 49.8993 17.4013 50.1015C17.626 50.2586 17.8918 50.3414 18.1625 50.3414C18.2385 50.3414 18.3154 50.3347 18.3906 50.3213L27.0281 48.8081C27.9515 52.9701 26.902 56.3133 24.2657 57.4263C21.8282 58.4558 18.0505 57.2818 15.1059 52.3368C14.8619 51.9265 14.4007 51.6883 13.9377 51.69C13.4606 51.7017 13.0253 51.9683 12.7997 52.3886C11.1753 55.4209 8.81974 60.2874 8.79635 60.3367C8.47799 60.9952 8.75373 61.7865 9.41218 62.1057C9.59852 62.1951 9.79488 62.2377 9.9879 62.2377C10.4801 62.2377 10.953 61.9628 11.1811 61.4898C11.1995 61.4514 12.6977 58.3564 14.1141 55.5931C17.7113 60.2665 22.1825 61.1832 25.2959 59.868C28.2498 58.6204 31.0498 54.8686 29.6335 48.3527L41.91 46.2027C43.5821 46.7049 50.5935 49.393 52.4953 59.5488C52.6023 60.1153 53.0635 60.549 53.6351 60.62C53.6894 60.6267 53.7437 60.63 53.798 60.63C54.3111 60.63 54.784 60.3325 55.0013 59.8571C57.1738 55.1118 60.7852 53.1205 60.8161 53.103C61.4629 52.7612 61.7094 51.9591 61.366 51.3123L61.3693 51.3115Z" fill="white"/>
</mask>
<g mask="url(#mask4_14086_5952)">
<path d="M26.9189 48.6933L46.613 45.3451L47.5973 46.4614L45.6279 47.9053L27.1161 49.5465L26.9189 48.6933Z" fill="#005BAA"/>
</g>
<g style="mix-blend-mode:multiply">
<path d="M15.1073 52.3365C15.0572 52.253 14.9962 52.1778 14.9302 52.1093C15.0538 52.2973 15.1775 52.4794 15.3037 52.6557C15.2385 52.5504 15.1725 52.446 15.1073 52.3374V52.3365Z" fill="#1C75BC"/>
<path d="M61.3693 51.3113C61.2582 51.1024 61.0986 50.9353 60.9122 50.8167C61.0092 51.3665 60.7485 51.9397 60.2279 52.2154C60.197 52.233 56.5855 54.2242 54.413 58.9695C54.1958 59.445 53.7228 59.7424 53.2098 59.7424C53.1554 59.7424 53.1011 59.7399 53.0468 59.7324C52.8446 59.7074 52.6574 59.6355 52.4937 59.5294C52.4945 59.5352 52.4962 59.5411 52.497 59.5478C52.6039 60.1143 53.0652 60.548 53.6367 60.619C53.6911 60.6257 53.7454 60.629 53.7997 60.629C54.3127 60.629 54.7857 60.3315 55.0029 59.8561C57.1755 55.1108 60.7869 53.1195 60.8178 53.102C61.4646 52.7602 61.7111 51.9581 61.3676 51.3122L61.3693 51.3113Z" fill="#005BAA"/>
</g>
<path opacity="0.53" d="M44.9958 8.22246L55.119 6.52537C55.5327 6.46437 55.8293 6.91475 55.6095 7.27072L50.6018 15.1537C50.5266 15.2757 50.403 15.3584 50.2617 15.381L39.13 17.1825C39.13 17.1825 39.1283 17.1817 39.1291 17.1808L44.6524 8.44556C44.7293 8.3244 44.8546 8.24251 44.9967 8.22162L44.9958 8.22246Z" fill="#75B6E4"/>
<mask id="mask5_14086_5952" style="mask-type:luminance" maskUnits="userSpaceOnUse" x="13" y="3" width="37" height="18">
<path d="M23.2843 20.9646L49.2788 16.5234L49.6147 3.70041C49.43 2.86482 13.2405 9.85455 13.5488 11.5441C13.6558 12.129 22.849 19.6778 22.849 19.6778" fill="white"/>
</mask>
<g mask="url(#mask5_14086_5952)">
<g style="mix-blend-mode:multiply" opacity="0.49">
<path d="M42.9584 23.0415L48.2822 15.2048C49.5318 13.3653 49.0537 10.8609 47.2141 9.61125L44.1017 7.49686C42.2621 6.24717 39.7578 6.72535 38.5081 8.56491L33.1843 16.4016C31.9346 18.2411 32.4128 20.7454 34.2524 21.9951L37.3648 24.1095C39.2043 25.3592 41.7087 24.881 42.9584 23.0415Z" fill="#1C75BC"/>
</g>
<path d="M41.9076 21.7417L47.2314 13.905C48.4811 12.0655 48.0029 9.56114 46.1633 8.31145L43.0509 6.19706C41.2114 4.94736 38.707 5.42554 37.4573 7.2651L32.1336 15.1017C30.8839 16.9413 31.362 19.4456 33.2016 20.6953L36.314 22.8097C38.1536 24.0594 40.6579 23.5812 41.9076 21.7417Z" fill="#FFCD00"/>
<mask id="mask6_14086_5952" style="mask-type:luminance" maskUnits="userSpaceOnUse" x="31" y="5" width="17" height="19">
<path d="M41.8519 21.8133L47.1757 13.9767C48.4254 12.1371 47.9472 9.6328 46.1077 8.3831L42.9953 6.26871C41.1557 5.01902 38.6514 5.4972 37.4017 7.33676L32.0779 15.1734C30.8282 17.013 31.3064 19.5173 33.1459 20.767L36.2583 22.8814C38.0979 24.1311 40.6022 23.6529 41.8519 21.8133Z" fill="white"/>
</mask>
<g mask="url(#mask6_14086_5952)">
<g style="mix-blend-mode:multiply" opacity="0.26">
<path d="M30.5271 22.6492C33.7903 22.6492 36.4356 20.0039 36.4356 16.7407C36.4356 13.4776 33.7903 10.8323 30.5271 10.8323C27.264 10.8323 24.6187 13.4776 24.6187 16.7407C24.6187 20.0039 27.264 22.6492 30.5271 22.6492Z" fill="#FBB040"/>
</g>
</g>
<mask id="mask7_14086_5952" style="mask-type:luminance" maskUnits="userSpaceOnUse" x="31" y="5" width="17" height="19">
<path d="M41.9091 21.7683L47.2328 13.9316C48.4825 12.0921 48.0043 9.58775 46.1648 8.33806L43.0524 6.22367C41.2128 4.97397 38.7085 5.45215 37.4588 7.29171L32.135 15.1284C30.8853 16.9679 31.3635 19.4723 33.2031 20.7219L36.3155 22.8363C38.155 24.086 40.6594 23.6079 41.9091 21.7683Z" fill="white"/>
</mask>
<g mask="url(#mask7_14086_5952)">
<g style="mix-blend-mode:multiply" opacity="0.26">
<path d="M36.3617 12.3506C37.4619 12.3506 38.3537 11.4587 38.3537 10.3585C38.3537 9.25833 37.4619 8.36646 36.3617 8.36646C35.2615 8.36646 34.3696 9.25833 34.3696 10.3585C34.3696 11.4587 35.2615 12.3506 36.3617 12.3506Z" fill="#FBB040"/>
</g>
</g>
<g style="mix-blend-mode:multiply" opacity="0.26">
<path d="M46.1645 8.31877L43.0511 6.20388C42.8572 6.0727 42.655 5.96407 42.4495 5.87048L45.3765 7.85919C47.2157 9.1084 47.6945 11.6127 46.4444 13.4526L41.1209 21.2897C40.0029 22.9358 37.8813 23.4873 36.1299 22.691L36.3154 22.8171C38.1545 24.0663 40.6588 23.5884 41.9088 21.7492L47.2324 13.9122C48.4816 12.0731 48.0036 9.56882 46.1645 8.31877Z" fill="#FBB040"/>
</g>
<path d="M29.3455 22.3051C32.6086 22.3051 35.254 19.6598 35.254 16.3966C35.254 13.1335 32.6086 10.4882 29.3455 10.4882C26.0823 10.4882 23.437 13.1335 23.437 16.3966C23.437 19.6598 26.0823 22.3051 29.3455 22.3051Z" fill="#FBB040"/>
<g style="mix-blend-mode:multiply">
<path d="M31.5324 10.9025C33.2579 11.9344 34.4135 13.8195 34.4135 15.9762C34.4135 19.2392 31.768 21.8847 28.505 21.8847C27.712 21.8847 26.9567 21.7276 26.2656 21.4443C27.1514 21.9741 28.1858 22.2791 29.293 22.2791C32.556 22.2791 35.2014 19.6336 35.2014 16.3706C35.2014 13.9006 33.6849 11.7857 31.5324 10.9033V10.9025Z" fill="#FBB040"/>
</g>
<path d="M35.6479 11.1758C36.8981 11.1758 37.9115 10.1623 37.9115 8.91218C37.9115 7.66202 36.8981 6.64856 35.6479 6.64856C34.3977 6.64856 33.3843 7.66202 33.3843 8.91218C33.3843 10.1623 34.3977 11.1758 35.6479 11.1758Z" fill="#27AAE1"/>
</g>
<path d="M22.829 5.89636L23.0789 8.6488C23.0831 8.69726 23.1115 8.74071 23.1541 8.76495L25.5631 10.1203C25.6709 10.1804 25.6617 10.3384 25.5489 10.3868L23.0079 11.4748C22.9627 11.494 22.9301 11.5341 22.921 11.5826L22.377 14.2924C22.3528 14.4136 22.2007 14.4537 22.1196 14.3609L20.2997 12.2803C20.2671 12.2435 20.2195 12.2251 20.1702 12.2301L17.4244 12.5502C17.3016 12.5644 17.2164 12.4324 17.2799 12.3262L18.6962 9.95232C18.7213 9.91054 18.7238 9.85874 18.7037 9.81445L17.5514 7.30182C17.4996 7.18985 17.5991 7.06786 17.7194 7.0946L20.4142 7.70792C20.4618 7.71878 20.5119 7.70541 20.5479 7.67199L22.5809 5.79943C22.6719 5.71587 22.819 5.77269 22.8299 5.89552L22.829 5.89636Z" fill="#FFCD00"/>
<path d="M28.0609 3.40384L29.0544 3.73975C29.1547 3.77401 29.2658 3.75646 29.3511 3.69295L30.1917 3.06459C30.4056 2.90499 30.7106 3.05957 30.7072 3.32696L30.6947 4.37563C30.693 4.48175 30.7448 4.58202 30.8309 4.64302L31.6882 5.24799C31.9063 5.40174 31.8537 5.73932 31.598 5.81954L30.5961 6.13205C30.495 6.1638 30.4156 6.24318 30.3838 6.34429L30.073 7.34616C29.9936 7.60102 29.656 7.65533 29.5023 7.43724L28.8957 6.58076C28.8347 6.49386 28.7344 6.44289 28.6283 6.44456L27.5796 6.45876C27.3122 6.46211 27.1568 6.15795 27.3164 5.94404L27.9431 5.1026C28.0066 5.01737 28.0241 4.90707 27.9899 4.80596L27.6523 3.81244C27.5662 3.55926 27.8077 3.31777 28.0609 3.403V3.40384Z" fill="#FFCD00"/>
<path d="M56.3184 6.65013C56.2148 6.49471 56.0811 6.36854 55.929 6.27161C55.9842 6.58997 55.924 6.9242 55.7444 7.20747L50.0289 16.2302L54.4826 41.6656C54.6096 42.3867 54.1275 43.0728 53.4072 43.1989L45.9729 44.5008L45.9521 44.4858L41.3212 45.3155L29.0447 47.4655C30.461 53.9806 27.6609 57.7332 24.7071 58.9808C21.5937 60.296 17.1225 59.3793 13.5252 54.7059C12.1081 57.4692 10.6107 60.5642 10.5923 60.6026C10.3634 61.0756 9.89124 61.3505 9.39908 61.3505C9.20605 61.3505 9.00969 61.3079 8.82335 61.2185C8.77573 61.1951 8.73144 61.1692 8.68799 61.1416C8.75985 61.546 9.01638 61.912 9.41412 62.1042C9.60046 62.1936 9.79682 62.2362 9.98984 62.2362C10.482 62.2362 10.9541 61.9613 11.1831 61.4884C11.2014 61.4499 12.6997 58.3549 14.116 55.5916C17.7132 60.2651 22.1845 61.1817 25.2979 59.8665C28.2517 58.619 31.0518 54.8671 29.6354 48.3512L41.912 46.2012C43.0342 46.538 46.5612 47.864 49.3345 51.7679C47.3191 48.5058 44.7354 46.8062 42.974 45.9656L46.984 45.2938C46.9915 45.2988 46.9982 45.3038 47.0057 45.3096L53.9988 44.0847C54.7191 43.9585 55.2012 43.2725 55.0742 42.5514L50.6205 17.1159L56.336 8.0932C56.6159 7.65033 56.6092 7.0838 56.3193 6.64929L56.3184 6.65013Z" fill="#005BAA"/>
<path d="M60.1528 24.1933C60.3316 25.4642 61.3886 26.055 62.5877 26.055C63.9129 26.055 64.8254 25.0163 65.5064 25.0163C66.0612 25.0163 66.5626 25.572 66.5626 26.1268C66.5626 27.2373 64.2706 28.3111 62.3554 28.3111C59.455 28.3111 57.5215 26.1987 57.5215 23.351C57.5215 20.7373 59.4191 18.3558 62.1406 18.3558C64.8622 18.3558 66.7782 20.8985 66.7782 23.0468C66.7782 23.8164 66.4381 24.1924 65.6501 24.1924H60.1536L60.1528 24.1933ZM64.1995 22.4736C64.0566 21.3456 63.3397 20.5041 62.1406 20.5041C60.9416 20.5041 60.2246 21.3815 60.0993 22.4736H64.1995Z" fill="#005BAA"/>
<path d="M67.6878 19.896C67.6878 19.037 68.2251 18.4637 68.9772 18.4637C69.6398 18.4637 70.0693 18.8214 70.1587 19.413C70.66 18.7144 71.4296 18.356 72.6471 18.356C74.6701 18.356 76.1741 19.6453 76.1741 21.8295V26.7712C76.1741 27.631 75.6368 28.2034 74.8848 28.2034C74.1328 28.2034 73.5955 27.631 73.5955 26.7712V22.2774C73.5955 21.0783 72.8434 20.5051 71.9126 20.5051C70.8564 20.5051 70.2656 21.2755 70.2656 22.2774V26.7712C70.2656 27.631 69.7284 28.2034 68.9763 28.2034C68.2243 28.2034 67.687 27.631 67.687 26.7712V19.896H67.6878Z" fill="#005BAA"/>
<path d="M64.4559 34.5123C63.8108 34.5123 63.2384 34.011 62.4146 34.011C60.9464 34.011 60.2479 35.3179 60.2479 36.6431C60.2479 37.9684 61.0174 39.2393 62.4146 39.2393C63.0588 39.2393 64.0256 38.702 64.3306 38.702C64.9397 38.702 65.4411 39.2209 65.4411 39.8301C65.4411 41.1553 63.2209 41.6023 62.2901 41.6023C59.515 41.6023 57.6709 39.3287 57.6709 36.6423C57.6709 33.9558 59.5694 31.6471 62.2901 31.6471C63.3103 31.6471 65.4411 32.0231 65.4411 33.2765C65.4411 33.8138 65.0651 34.5123 64.4567 34.5123H64.4559Z" fill="#005BAA"/>
<path d="M75.1435 39.8125C75.1435 40.4751 75.1435 41.4954 73.9077 41.4954C73.1557 41.4954 72.8515 41.0834 72.6718 40.4033C72.0092 41.1912 71.2037 41.6023 70.2186 41.6023C67.8012 41.6023 65.957 39.5434 65.957 36.6423C65.957 33.7411 67.8555 31.6471 70.2186 31.6471C71.1678 31.6471 72.0986 32.0231 72.6718 32.8295C72.7437 32.2028 73.281 31.7557 73.9077 31.7557C75.1435 31.7557 75.1435 32.776 75.1435 33.4386V39.8125ZM70.5779 39.2393C71.9207 39.2393 72.5649 37.8789 72.5649 36.6431C72.5649 35.4073 71.9382 34.011 70.5779 34.011C69.2175 34.011 68.5365 35.4081 68.5365 36.6431C68.5365 37.8781 69.1808 39.2393 70.5779 39.2393Z" fill="#005BAA"/>
<path d="M82.0345 34.655C81.5507 34.655 80.5664 33.903 79.725 33.903C79.2595 33.903 78.8476 34.1177 78.8476 34.6191C78.8476 35.819 83.323 35.6393 83.323 38.5756C83.323 40.2944 81.8733 41.6013 79.6531 41.6013C78.2025 41.6013 76.0542 40.7774 76.0542 39.6142C76.0542 39.2198 76.4478 38.4686 77.1639 38.4686C78.1666 38.4686 78.6145 39.346 79.8319 39.346C80.6199 39.346 80.8522 39.0953 80.8522 38.6124C80.8522 37.4308 76.3759 37.6097 76.3759 34.6558C76.3759 32.8652 77.8265 31.6477 79.867 31.6477C81.1388 31.6477 83.0899 32.2385 83.0899 33.5094C83.0899 34.1002 82.642 34.655 82.0337 34.655H82.0345Z" fill="#005BAA"/>
<path d="M93.0444 39.8125C93.0444 40.4751 93.0444 41.4954 91.8086 41.4954C91.0565 41.4954 90.7524 41.0834 90.5727 40.4033C89.9101 41.1912 89.1046 41.6023 88.1194 41.6023C85.7021 41.6023 83.8579 39.5434 83.8579 36.6423C83.8579 33.7411 85.7564 31.6471 88.1194 31.6471C89.0687 31.6471 89.9995 32.0231 90.5727 32.8295C90.6446 32.2028 91.1819 31.7557 91.8086 31.7557C93.0444 31.7557 93.0444 32.776 93.0444 33.4386V39.8125ZM88.4787 39.2393C89.8215 39.2393 90.4658 37.8789 90.4658 36.6431C90.4658 35.4073 89.8391 34.011 88.4787 34.011C87.1184 34.011 86.4374 35.4081 86.4374 36.6431C86.4374 37.8781 87.0816 39.2393 88.4787 39.2393Z" fill="#005BAA"/>
<path d="M51.8248 28.0378C50.8706 23.3017 44.5527 21.2152 37.7535 23.3594C30.9559 25.5018 26.2173 31.0777 27.1715 35.8122C28.1258 40.5475 34.4111 42.649 41.2103 40.5057C48.0095 38.3624 52.7799 32.7715 51.8248 28.0378Z" fill="#005BAA"/>
<path d="M44.9207 29.256C43.6322 29.4975 42.556 30.6882 42.3371 32.0727C42.119 33.4582 42.7916 34.3372 44.2848 34.0564C46.2401 33.6879 46.835 31.8129 46.927 31.2313C47.1133 30.0565 46.6738 28.9259 44.9199 29.2568L44.9207 29.256ZM45.8699 31.4302C45.7872 31.9148 45.3878 33.2835 44.3007 33.4682C43.4325 33.6144 43.237 32.7429 43.3882 31.8722C43.5086 31.172 44.0041 29.998 44.9232 29.8409C45.8866 29.6779 46.0128 30.6113 45.8691 31.4293L45.8699 31.4302Z" fill="white"/>
<path d="M33.6243 35.0047C33.7146 35.3022 32.0442 30.0363 32.0442 30.0363C31.5646 30.1248 31.1978 30.8359 31.0281 31.1292L28.0835 36.9023L28.701 36.787L31.2746 31.669L32.355 35.2905C32.6843 36.1444 33.2734 36.0851 33.5257 36.0141C33.6928 35.9832 34.0078 35.7216 34.017 35.4049C33.7496 35.308 33.6251 35.0047 33.6251 35.0047H33.6243Z" fill="white"/>
<path d="M42.5957 30.338C42.6375 30.125 42.3885 30.0238 42.3885 30.0238C42.0133 29.8718 41.6072 29.8542 41.2153 29.9278C39.6687 30.2177 38.6392 31.5998 38.4587 32.7512C38.3158 33.6486 38.5682 34.994 40.6237 34.6706C41.0599 34.6021 41.4535 34.455 41.7351 34.3305C41.8378 34.2678 42.0217 34.1057 42.0601 33.7464C42.0618 33.6645 42.0083 33.6595 41.9565 33.672C41.715 33.7999 41.3708 33.957 40.902 34.0439C40.0681 34.2018 39.5007 33.6085 39.6795 32.478C39.7865 31.8028 40.1374 30.638 41.2914 30.4191C41.5872 30.3639 41.8654 30.4007 42.1203 30.4918V30.4901C42.1203 30.4901 42.4854 30.6263 42.5949 30.3372L42.5957 30.338Z" fill="white"/>
<path d="M36.7897 30.8108L36.3209 30.8986C36.2641 30.9136 36.1981 30.9278 36.1229 30.942C35.157 31.1208 34.9138 31.689 34.8553 31.9146L34.3506 35.1133C34.2913 35.8361 34.7901 35.7174 34.7901 35.7174L35.3776 35.6071L35.6867 33.661C35.7862 33.6426 36.041 33.7245 36.1714 34.0103L36.4346 34.8217C36.6727 35.3531 36.9526 35.3615 37.53 35.2528C37.5626 35.2461 37.5977 35.2395 37.6345 35.2311C37.7949 35.1843 38.1099 35.0473 38.1108 34.6955C38.1049 34.6955 37.5234 34.5727 37.1532 33.2741C37.5208 33.0928 38.2612 32.6307 38.3924 31.8077C38.5386 30.881 37.688 30.642 36.7897 30.8117V30.8108ZM37.2986 31.9715C37.2434 32.3241 37.0178 32.9416 36.1446 33.1045L35.7594 33.1772L36.0343 31.4609L36.4354 31.3857C37.0671 31.2671 37.3755 31.4835 37.2986 31.9723V31.9715Z" fill="white"/>
<path d="M50.9759 29.4757C51.1213 28.549 50.2715 28.31 49.374 28.4796L48.9044 28.5674C48.8476 28.5824 48.7816 28.5966 48.7072 28.6108C47.7404 28.7896 47.4981 29.3578 47.4396 29.5834L46.9349 32.7821C46.8764 33.5049 47.3761 33.3837 47.3761 33.3837L47.3736 33.3862L47.961 33.2759L48.2702 31.3298C48.3696 31.3115 48.6245 31.3933 48.7549 31.6791L49.0181 32.4905C49.2562 33.0219 49.5361 33.0303 50.1135 32.9216C50.1461 32.915 50.1812 32.9083 50.218 32.8999C50.3784 32.8531 50.6934 32.7161 50.6943 32.3643C50.6884 32.3643 50.1068 32.2415 49.7375 30.943C50.1052 30.7616 50.8455 30.2995 50.9767 29.4765L50.9759 29.4757ZM49.8821 29.6403C49.8269 29.9929 49.6013 30.6104 48.729 30.7733L48.3437 30.846L48.6187 29.1297L49.0197 29.0545C49.6514 28.9359 49.9598 29.1523 49.8821 29.6411V29.6403Z" fill="white"/>
<path d="M50.0645 24.3979C48.5847 23.7896 47.2177 23.9868 45.625 24.2433C39.5486 25.2293 31.7692 30.7576 28.7227 36.7722L28.914 36.7371C31.9255 32.4037 40.2956 26.4501 47.9939 26.6649C48.4134 26.6766 53.0902 26.4626 51.6028 31.4545C52.8721 27.8648 51.3956 24.9444 50.0637 24.3979H50.0645Z" fill="#FFCD00"/>
</g>
<defs>
<filter id="filter0_d_14086_5952" x="-0.00146484" y="-0.00317383" width="98.0464" height="67.24" filterUnits="userSpaceOnUse" color-interpolation-filters="sRGB">
<feFlood flood-opacity="0" result="BackgroundImageFix"/>
<feColorMatrix in="SourceAlpha" type="matrix" values="0 0 0 0 0 0 0 0 0 0 0 0 0 0 0 0 0 0 127 0" result="hardAlpha"/>
<feOffset dx="1" dy="1"/>
<feGaussianBlur stdDeviation="1"/>
<feComposite in2="hardAlpha" operator="out"/>
<feColorMatrix type="matrix" values="0 0 0 0 0 0 0 0 0 0 0 0 0 0 0 0 0 0 0.1 0"/>
<feBlend mode="normal" in2="BackgroundImageFix" result="effect1_dropShadow_14086_5952"/>
<feBlend mode="normal" in="SourceGraphic" in2="effect1_dropShadow_14086_5952" result="shape"/>
</filter>
<filter id="filter1_d_14086_5952" x="2" y="2" width="94.0444" height="63.2368" filterUnits="userSpaceOnUse" color-interpolation-filters="sRGB">
<feFlood flood-opacity="0" result="BackgroundImageFix"/>
<feColorMatrix in="SourceAlpha" type="matrix" values="0 0 0 0 0 0 0 0 0 0 0 0 0 0 0 0 0 0 127 0" result="hardAlpha"/>
<feOffset dx="1" dy="1"/>
<feGaussianBlur stdDeviation="1"/>
<feComposite in2="hardAlpha" operator="out"/>
<feColorMatrix type="matrix" values="0 0 0 0 0 0 0 0 0 0 0 0 0 0 0 0 0 0 0.1 0"/>
<feBlend mode="normal" in2="BackgroundImageFix" result="effect1_dropShadow_14086_5952"/>
<feBlend mode="normal" in="SourceGraphic" in2="effect1_dropShadow_14086_5952" result="shape"/>
</filter>
</defs>
</svg>
