<svg width="194" height="48" viewBox="0 0 194 48" fill="none" xmlns="http://www.w3.org/2000/svg">
<g clip-path="url(#clip0_14494_664)">
<rect x="0.84668" width="192.307" height="48" rx="5" fill="#A60064"/>
<path d="M40.3982 31.6377C40.0929 31.6377 39.8263 31.6217 39.5984 31.5898C39.366 31.5625 39.1655 31.5306 38.9968 31.4941V29.3955C39.1427 29.4229 39.2976 29.4525 39.4617 29.4844C39.6257 29.5208 39.8035 29.5391 39.9949 29.5391C40.3185 29.5391 40.5691 29.473 40.7468 29.3408C40.9291 29.2087 41.0567 29.0104 41.1297 28.7461C41.2026 28.4818 41.239 28.1514 41.239 27.7549V18.5059H43.9529V27.5225C43.9529 28.5251 43.8025 29.3271 43.5017 29.9287C43.2009 30.5303 42.7839 30.9655 42.2507 31.2344C41.7175 31.5033 41.1 31.6377 40.3982 31.6377ZM54.407 18.5059V24.5215C54.407 25.36 54.2474 26.0892 53.9284 26.709C53.6094 27.3242 53.1309 27.8005 52.4929 28.1377C51.8549 28.4704 51.0551 28.6367 50.0935 28.6367C48.7172 28.6367 47.6667 28.2835 46.9421 27.5771C46.2175 26.8708 45.8552 25.8727 45.8552 24.583V18.5059H48.5691V24.3711C48.5691 25.0775 48.7012 25.5902 48.9655 25.9092C49.2299 26.2282 49.6195 26.3877 50.1345 26.3877C50.5036 26.3877 50.8044 26.3193 51.0368 26.1826C51.2693 26.0413 51.4379 25.8203 51.5427 25.5195C51.6521 25.2188 51.7068 24.8314 51.7068 24.3574V18.5059H54.407ZM60.3083 22.6484H64.6218V28.0352C64.1068 28.2129 63.5166 28.3587 62.8513 28.4727C62.1859 28.582 61.4886 28.6367 60.7595 28.6367C59.7979 28.6367 58.9548 28.4499 58.2302 28.0762C57.5055 27.7025 56.9404 27.1351 56.5348 26.374C56.1292 25.6084 55.9264 24.6423 55.9264 23.4756C55.9264 22.4274 56.127 21.5228 56.528 20.7617C56.9291 19.9961 57.5192 19.4059 58.2985 18.9912C59.0824 18.5719 60.0417 18.3623 61.1764 18.3623C61.8008 18.3623 62.3932 18.4215 62.9538 18.54C63.5143 18.6585 64.002 18.8089 64.4167 18.9912L63.5622 21.1104C63.2022 20.9326 62.8285 20.8005 62.4411 20.7139C62.0537 20.6227 61.6367 20.5771 61.1901 20.5771C60.5931 20.5771 60.1123 20.7116 59.7477 20.9805C59.3877 21.2493 59.1257 21.6094 58.9616 22.0605C58.7975 22.5072 58.7155 23.0016 58.7155 23.5439C58.7155 24.1637 58.8021 24.6878 58.9753 25.1162C59.153 25.54 59.4105 25.8636 59.7477 26.0869C60.0895 26.3057 60.502 26.415 60.985 26.415C61.1445 26.415 61.3382 26.4036 61.5661 26.3809C61.7985 26.3581 61.974 26.3307 62.0925 26.2988V24.7334H60.3083V22.6484ZM72.5807 28.5L72.0885 26.627H68.8414L68.3356 28.5H65.3688L68.6295 18.4648H72.2321L75.5338 28.5H72.5807ZM71.528 24.4121L71.0973 22.7715C71.0517 22.5938 70.9857 22.3408 70.8991 22.0127C70.8125 21.68 70.7259 21.3382 70.6393 20.9873C70.5573 20.6318 70.4935 20.3402 70.4479 20.1123C70.4069 20.3402 70.3476 20.6227 70.2702 20.96C70.1972 21.2926 70.1198 21.623 70.0377 21.9512C69.9603 22.2793 69.8919 22.5527 69.8327 22.7715L69.402 24.4121H71.528ZM79.6852 18.5059C80.5921 18.5059 81.3463 18.6175 81.9479 18.8408C82.5494 19.0596 83.0006 19.3877 83.3014 19.8252C83.6067 20.2627 83.7594 20.8073 83.7594 21.459C83.7594 21.8646 83.691 22.2337 83.5543 22.5664C83.4176 22.8991 83.2216 23.1976 82.9664 23.4619C82.7158 23.7217 82.415 23.9495 82.0641 24.1455L84.9762 28.5H81.9137L79.7945 24.8633H79.1109V28.5H76.4107V18.5059H79.6852ZM79.6441 20.5498H79.1109V22.833H79.6168C80.0315 22.833 80.371 22.7419 80.6354 22.5596C80.8997 22.3773 81.0318 22.0514 81.0318 21.582C81.0318 21.2585 80.9225 21.0055 80.7037 20.8232C80.485 20.641 80.1318 20.5498 79.6441 20.5498ZM98.4536 23.4893C98.4536 24.2594 98.3602 24.9613 98.1734 25.5947C97.9911 26.2236 97.704 26.766 97.312 27.2217C96.9201 27.6774 96.4165 28.0283 95.8013 28.2744C95.1861 28.516 94.4501 28.6367 93.5933 28.6367C92.7547 28.6367 92.0279 28.516 91.4126 28.2744C90.8019 28.0283 90.2984 27.6797 89.9019 27.2285C89.5054 26.7728 89.2114 26.2282 89.02 25.5947C88.8286 24.9613 88.7329 24.2549 88.7329 23.4756C88.7329 22.4365 88.9038 21.5342 89.2456 20.7686C89.592 19.9984 90.1252 19.4036 90.8452 18.9844C91.5653 18.5605 92.4859 18.3486 93.607 18.3486C94.7463 18.3486 95.6714 18.5605 96.3823 18.9844C97.0978 19.4082 97.6219 20.0052 97.9546 20.7754C98.2873 21.5456 98.4536 22.4502 98.4536 23.4893ZM91.5767 23.4893C91.5767 24.0908 91.645 24.6081 91.7818 25.041C91.9185 25.474 92.135 25.8066 92.4312 26.0391C92.7274 26.2715 93.1148 26.3877 93.5933 26.3877C94.09 26.3877 94.4842 26.2715 94.7759 26.0391C95.0721 25.8066 95.284 25.474 95.4116 25.041C95.5438 24.6081 95.6099 24.0908 95.6099 23.4893C95.6099 22.5869 95.4595 21.8737 95.1587 21.3496C94.8579 20.8255 94.3407 20.5635 93.607 20.5635C93.1193 20.5635 92.7251 20.682 92.4243 20.9189C92.1281 21.1559 91.9116 21.4932 91.7749 21.9307C91.6428 22.3682 91.5767 22.8877 91.5767 23.4893ZM104.458 28.5H101.757V20.7139H99.3169V18.5059H106.891V20.7139H104.458V28.5ZM111.384 18.5059C112.291 18.5059 113.045 18.6175 113.647 18.8408C114.248 19.0596 114.7 19.3877 115 19.8252C115.306 20.2627 115.458 20.8073 115.458 21.459C115.458 21.8646 115.39 22.2337 115.253 22.5664C115.117 22.8991 114.921 23.1976 114.665 23.4619C114.415 23.7217 114.114 23.9495 113.763 24.1455L116.675 28.5H113.613L111.494 24.8633H110.81V28.5H108.11V18.5059H111.384ZM111.343 20.5498H110.81V22.833H111.316C111.731 22.833 112.07 22.7419 112.334 22.5596C112.599 22.3773 112.731 22.0514 112.731 21.582C112.731 21.2585 112.622 21.0055 112.403 20.8232C112.184 20.641 111.831 20.5498 111.343 20.5498ZM123.506 28.5L123.014 26.627H119.767L119.261 28.5H116.294L119.555 18.4648H123.158L126.459 28.5H123.506ZM122.454 24.4121L122.023 22.7715C121.977 22.5938 121.911 22.3408 121.825 22.0127C121.738 21.68 121.651 21.3382 121.565 20.9873C121.483 20.6318 121.419 20.3402 121.373 20.1123C121.332 20.3402 121.273 20.6227 121.196 20.96C121.123 21.2926 121.045 21.623 120.963 21.9512C120.886 22.2793 120.817 22.5527 120.758 22.7715L120.328 24.4121H122.454ZM139.397 18.5059L136.122 28.5H132.944L129.683 18.5059H132.718L134.078 23.5713C134.129 23.7627 134.186 24.0088 134.249 24.3096C134.318 24.6058 134.379 24.902 134.434 25.1982C134.493 25.4945 134.53 25.736 134.543 25.9229C134.562 25.736 134.596 25.4967 134.646 25.2051C134.696 24.9134 134.751 24.6217 134.81 24.3301C134.874 24.0339 134.933 23.79 134.988 23.5986L136.375 18.5059H139.397ZM146.207 28.5H140.274V18.5059H146.207V20.6729H142.974V22.2451H145.968V24.4121H142.974V26.2988H146.207V28.5ZM154.87 28.5H147.084V26.832L151.411 20.6865H147.187V18.5059H154.761V20.167L150.434 26.3193H154.87V28.5Z" fill="white"/>
</g>
<defs>
<clipPath id="clip0_14494_664">
<rect x="0.84668" width="192.307" height="48" rx="5" fill="white"/>
</clipPath>
</defs>
</svg>
