<svg width="216" height="48" viewBox="0 0 216 48" fill="none" xmlns="http://www.w3.org/2000/svg">
<g clip-path="url(#clip0_14634_3248)">
<rect width="216" height="48" rx="5" fill="#A60064"/>
<path d="M51.3982 31.6377C51.0929 31.6377 50.8263 31.6217 50.5984 31.5898C50.366 31.5625 50.1655 31.5306 49.9968 31.4941V29.3955C50.1427 29.4229 50.2976 29.4525 50.4617 29.4844C50.6257 29.5208 50.8035 29.5391 50.9949 29.5391C51.3185 29.5391 51.5691 29.473 51.7468 29.3408C51.9291 29.2087 52.0567 29.0104 52.1297 28.7461C52.2026 28.4818 52.239 28.1514 52.239 27.7549V18.5059H54.9529V27.5225C54.9529 28.5251 54.8025 29.3271 54.5017 29.9287C54.2009 30.5303 53.7839 30.9655 53.2507 31.2344C52.7175 31.5033 52.1 31.6377 51.3982 31.6377ZM65.407 18.5059V24.5215C65.407 25.36 65.2474 26.0892 64.9284 26.709C64.6094 27.3242 64.1309 27.8005 63.4929 28.1377C62.8549 28.4704 62.0551 28.6367 61.0935 28.6367C59.7172 28.6367 58.6667 28.2835 57.9421 27.5771C57.2175 26.8708 56.8552 25.8727 56.8552 24.583V18.5059H59.5691V24.3711C59.5691 25.0775 59.7012 25.5902 59.9655 25.9092C60.2299 26.2282 60.6195 26.3877 61.1345 26.3877C61.5036 26.3877 61.8044 26.3193 62.0368 26.1826C62.2693 26.0413 62.4379 25.8203 62.5427 25.5195C62.6521 25.2188 62.7068 24.8314 62.7068 24.3574V18.5059H65.407ZM71.3083 22.6484H75.6218V28.0352C75.1068 28.2129 74.5166 28.3587 73.8513 28.4727C73.1859 28.582 72.4886 28.6367 71.7595 28.6367C70.7979 28.6367 69.9548 28.4499 69.2302 28.0762C68.5055 27.7025 67.9404 27.1351 67.5348 26.374C67.1292 25.6084 66.9264 24.6423 66.9264 23.4756C66.9264 22.4274 67.127 21.5228 67.528 20.7617C67.9291 19.9961 68.5192 19.4059 69.2985 18.9912C70.0824 18.5719 71.0417 18.3623 72.1764 18.3623C72.8008 18.3623 73.3932 18.4215 73.9538 18.54C74.5143 18.6585 75.002 18.8089 75.4167 18.9912L74.5622 21.1104C74.2022 20.9326 73.8285 20.8005 73.4411 20.7139C73.0537 20.6227 72.6367 20.5771 72.1901 20.5771C71.5931 20.5771 71.1123 20.7116 70.7477 20.9805C70.3877 21.2493 70.1257 21.6094 69.9616 22.0605C69.7975 22.5072 69.7155 23.0016 69.7155 23.5439C69.7155 24.1637 69.8021 24.6878 69.9753 25.1162C70.153 25.54 70.4105 25.8636 70.7477 26.0869C71.0895 26.3057 71.502 26.415 71.985 26.415C72.1445 26.415 72.3382 26.4036 72.5661 26.3809C72.7985 26.3581 72.974 26.3307 73.0925 26.2988V24.7334H71.3083V22.6484ZM83.5807 28.5L83.0885 26.627H79.8414L79.3356 28.5H76.3688L79.6295 18.4648H83.2321L86.5338 28.5H83.5807ZM82.528 24.4121L82.0973 22.7715C82.0517 22.5938 81.9857 22.3408 81.8991 22.0127C81.8125 21.68 81.7259 21.3382 81.6393 20.9873C81.5573 20.6318 81.4935 20.3402 81.4479 20.1123C81.4069 20.3402 81.3476 20.6227 81.2702 20.96C81.1972 21.2926 81.1198 21.623 81.0377 21.9512C80.9603 22.2793 80.8919 22.5527 80.8327 22.7715L80.402 24.4121H82.528ZM90.6852 18.5059C91.5921 18.5059 92.3463 18.6175 92.9479 18.8408C93.5494 19.0596 94.0006 19.3877 94.3014 19.8252C94.6067 20.2627 94.7594 20.8073 94.7594 21.459C94.7594 21.8646 94.691 22.2337 94.5543 22.5664C94.4176 22.8991 94.2216 23.1976 93.9664 23.4619C93.7158 23.7217 93.415 23.9495 93.0641 24.1455L95.9762 28.5H92.9137L90.7945 24.8633H90.1109V28.5H87.4107V18.5059H90.6852ZM90.6441 20.5498H90.1109V22.833H90.6168C91.0315 22.833 91.371 22.7419 91.6354 22.5596C91.8997 22.3773 92.0318 22.0514 92.0318 21.582C92.0318 21.2585 91.9225 21.0055 91.7037 20.8232C91.485 20.641 91.1318 20.5498 90.6441 20.5498ZM109.454 23.4893C109.454 24.2594 109.36 24.9613 109.173 25.5947C108.991 26.2236 108.704 26.766 108.312 27.2217C107.92 27.6774 107.417 28.0283 106.801 28.2744C106.186 28.516 105.45 28.6367 104.593 28.6367C103.755 28.6367 103.028 28.516 102.413 28.2744C101.802 28.0283 101.298 27.6797 100.902 27.2285C100.505 26.7728 100.211 26.2282 100.02 25.5947C99.8286 24.9613 99.7329 24.2549 99.7329 23.4756C99.7329 22.4365 99.9038 21.5342 100.246 20.7686C100.592 19.9984 101.125 19.4036 101.845 18.9844C102.565 18.5605 103.486 18.3486 104.607 18.3486C105.746 18.3486 106.671 18.5605 107.382 18.9844C108.098 19.4082 108.622 20.0052 108.955 20.7754C109.287 21.5456 109.454 22.4502 109.454 23.4893ZM102.577 23.4893C102.577 24.0908 102.645 24.6081 102.782 25.041C102.918 25.474 103.135 25.8066 103.431 26.0391C103.727 26.2715 104.115 26.3877 104.593 26.3877C105.09 26.3877 105.484 26.2715 105.776 26.0391C106.072 25.8066 106.284 25.474 106.412 25.041C106.544 24.6081 106.61 24.0908 106.61 23.4893C106.61 22.5869 106.459 21.8737 106.159 21.3496C105.858 20.8255 105.341 20.5635 104.607 20.5635C104.119 20.5635 103.725 20.682 103.424 20.9189C103.128 21.1559 102.912 21.4932 102.775 21.9307C102.643 22.3682 102.577 22.8877 102.577 23.4893ZM115.458 28.5H112.757V20.7139H110.317V18.5059H117.891V20.7139H115.458V28.5ZM122.384 18.5059C123.291 18.5059 124.045 18.6175 124.647 18.8408C125.248 19.0596 125.7 19.3877 126 19.8252C126.306 20.2627 126.458 20.8073 126.458 21.459C126.458 21.8646 126.39 22.2337 126.253 22.5664C126.117 22.8991 125.921 23.1976 125.665 23.4619C125.415 23.7217 125.114 23.9495 124.763 24.1455L127.675 28.5H124.613L122.494 24.8633H121.81V28.5H119.11V18.5059H122.384ZM122.343 20.5498H121.81V22.833H122.316C122.731 22.833 123.07 22.7419 123.334 22.5596C123.599 22.3773 123.731 22.0514 123.731 21.582C123.731 21.2585 123.622 21.0055 123.403 20.8232C123.184 20.641 122.831 20.5498 122.343 20.5498ZM134.506 28.5L134.014 26.627H130.767L130.261 28.5H127.294L130.555 18.4648H134.158L137.459 28.5H134.506ZM133.454 24.4121L133.023 22.7715C132.977 22.5938 132.911 22.3408 132.825 22.0127C132.738 21.68 132.651 21.3382 132.565 20.9873C132.483 20.6318 132.419 20.3402 132.373 20.1123C132.332 20.3402 132.273 20.6227 132.196 20.96C132.123 21.2926 132.045 21.623 131.963 21.9512C131.886 22.2793 131.817 22.5527 131.758 22.7715L131.328 24.4121H133.454ZM150.397 18.5059L147.122 28.5H143.944L140.683 18.5059H143.718L145.078 23.5713C145.129 23.7627 145.186 24.0088 145.249 24.3096C145.318 24.6058 145.379 24.902 145.434 25.1982C145.493 25.4945 145.53 25.736 145.543 25.9229C145.562 25.736 145.596 25.4967 145.646 25.2051C145.696 24.9134 145.751 24.6217 145.81 24.3301C145.874 24.0339 145.933 23.79 145.988 23.5986L147.375 18.5059H150.397ZM157.207 28.5H151.274V18.5059H157.207V20.6729H153.974V22.2451H156.968V24.4121H153.974V26.2988H157.207V28.5ZM165.87 28.5H158.084V26.832L162.411 20.6865H158.187V18.5059H165.761V20.167L161.434 26.3193H165.87V28.5Z" fill="white"/>
</g>
<defs>
<clipPath id="clip0_14634_3248">
<rect width="216" height="48" rx="5" fill="white"/>
</clipPath>
</defs>
</svg>
