<svg width="193" height="48" viewBox="0 0 193 48" fill="none" xmlns="http://www.w3.org/2000/svg">
<g clip-path="url(#clip0_14086_6258)">
<rect x="0.34668" width="192.307" height="48" rx="5" fill="#0071D1"/>
<path d="M42.6121 31.2822C42.3614 31.2822 42.1427 31.2663 41.9558 31.2344C41.7644 31.207 41.6004 31.1683 41.4636 31.1182V29.7441C41.6095 29.7806 41.7667 29.8125 41.9353 29.8398C42.1039 29.8672 42.2839 29.8809 42.4754 29.8809C42.726 29.8809 42.9539 29.833 43.1589 29.7373C43.364 29.6416 43.5258 29.4684 43.6443 29.2178C43.7673 28.9671 43.8289 28.6139 43.8289 28.1582V18.5059H45.4695V28.1035C45.4695 28.8464 45.351 29.4502 45.114 29.915C44.877 30.3844 44.5444 30.7285 44.116 30.9473C43.6876 31.1706 43.1863 31.2822 42.6121 31.2822ZM55.6911 18.5059V24.9727C55.6911 25.6699 55.543 26.2943 55.2468 26.8457C54.9551 27.3971 54.5131 27.8346 53.9206 28.1582C53.3282 28.4772 52.5831 28.6367 51.6853 28.6367C50.4047 28.6367 49.4294 28.3018 48.7595 27.6318C48.0941 26.9574 47.7614 26.0618 47.7614 24.9453V18.5059H49.4021V24.8018C49.4021 25.6357 49.598 26.251 49.99 26.6475C50.3819 27.0439 50.9675 27.2422 51.7468 27.2422C52.2846 27.2422 52.7221 27.1488 53.0593 26.9619C53.4011 26.7705 53.6517 26.4925 53.8113 26.1279C53.9753 25.7588 54.0573 25.3145 54.0573 24.7949V18.5059H55.6911ZM62.071 23.0723H65.8034V28.0898C65.2793 28.263 64.737 28.3975 64.1764 28.4932C63.6159 28.5889 62.987 28.6367 62.2897 28.6367C61.2735 28.6367 60.4121 28.4362 59.7057 28.0352C59.0039 27.6296 58.4707 27.0439 58.1061 26.2783C57.7416 25.5081 57.5593 24.5807 57.5593 23.4961C57.5593 22.4525 57.7621 21.5479 58.1677 20.7822C58.5733 20.012 59.1634 19.4173 59.9382 18.998C60.7129 18.5742 61.6517 18.3623 62.7546 18.3623C63.2969 18.3623 63.821 18.417 64.3268 18.5264C64.8373 18.6312 65.3044 18.777 65.7282 18.9639L65.154 20.3174C64.8167 20.1579 64.4385 20.0234 64.0192 19.9141C63.5999 19.8047 63.1647 19.75 62.7136 19.75C61.9981 19.75 61.3805 19.9049 60.861 20.2148C60.346 20.5247 59.9496 20.9622 59.6716 21.5273C59.3936 22.0879 59.2546 22.751 59.2546 23.5166C59.2546 24.2594 59.3662 24.9111 59.5895 25.4717C59.8128 26.0322 60.1615 26.4697 60.6354 26.7842C61.1139 27.0941 61.7315 27.249 62.488 27.249C62.8662 27.249 63.1875 27.2285 63.4518 27.1875C63.7162 27.1465 63.96 27.1009 64.1833 27.0508V24.4736H62.071V23.0723ZM74.1793 28.5L73.2018 25.7246H69.3805L68.403 28.5H66.6735L70.3922 18.4648H72.2106L75.9225 28.5H74.1793ZM72.778 24.3164L71.8278 21.582C71.7913 21.4635 71.7389 21.2972 71.6705 21.083C71.6022 20.8643 71.5338 20.6432 71.4655 20.4199C71.3971 20.1921 71.3401 20.0007 71.2946 19.8457C71.249 20.0326 71.192 20.2422 71.1237 20.4746C71.0599 20.7025 70.9961 20.9167 70.9323 21.1172C70.873 21.3177 70.8275 21.4727 70.7955 21.582L69.8385 24.3164H72.778ZM79.8414 18.5059C80.7027 18.5059 81.4137 18.6107 81.9742 18.8203C82.5393 19.0299 82.9586 19.349 83.232 19.7773C83.51 20.2057 83.649 20.7503 83.649 21.4111C83.649 21.9033 83.5579 22.3226 83.3756 22.6689C83.1933 23.0153 82.954 23.3024 82.6578 23.5303C82.3616 23.7581 82.0449 23.9404 81.7076 24.0771L84.5445 28.5H82.692L80.2789 24.4941H78.6725V28.5H77.0318V18.5059H79.8414ZM79.732 19.873H78.6725V23.1406H79.8072C80.5683 23.1406 81.1197 22.9993 81.4615 22.7168C81.8079 22.4342 81.9811 22.0173 81.9811 21.4658C81.9811 20.887 81.7965 20.4769 81.4273 20.2354C81.0628 19.9938 80.4977 19.873 79.732 19.873ZM98.063 23.4893C98.063 24.2594 97.965 24.9613 97.7691 25.5947C97.5777 26.2236 97.2883 26.766 96.9009 27.2217C96.5135 27.6729 96.0282 28.0215 95.4448 28.2676C94.8615 28.5137 94.1779 28.6367 93.3941 28.6367C92.5965 28.6367 91.9038 28.5137 91.3159 28.2676C90.7326 28.0215 90.2473 27.6706 89.8599 27.2148C89.4771 26.7591 89.19 26.2145 88.9986 25.5811C88.8072 24.9476 88.7114 24.2458 88.7114 23.4756C88.7114 22.4456 88.8801 21.5479 89.2173 20.7822C89.5591 20.012 90.0764 19.415 90.7691 18.9912C91.4663 18.5628 92.3459 18.3486 93.4077 18.3486C94.4468 18.3486 95.3104 18.5605 95.9986 18.9844C96.6867 19.4082 97.2017 20.0052 97.5435 20.7754C97.8898 21.541 98.063 22.4456 98.063 23.4893ZM90.4341 23.4893C90.4341 24.2594 90.5389 24.9271 90.7486 25.4922C90.9582 26.0527 91.2795 26.4857 91.7124 26.791C92.1499 27.0918 92.7105 27.2422 93.3941 27.2422C94.0822 27.2422 94.6428 27.0918 95.0757 26.791C95.5086 26.4857 95.8277 26.0527 96.0327 25.4922C96.2378 24.9271 96.3404 24.2594 96.3404 23.4893C96.3404 22.318 96.1057 21.402 95.6363 20.7412C95.1714 20.0758 94.4286 19.7432 93.4077 19.7432C92.7241 19.7432 92.1613 19.8936 91.7193 20.1943C91.2818 20.4951 90.9582 20.9258 90.7486 21.4863C90.5389 22.0423 90.4341 22.71 90.4341 23.4893ZM103.465 28.5H101.818V19.9004H98.8921V18.5059H106.384V19.9004H103.465V28.5ZM110.515 18.5059C111.376 18.5059 112.087 18.6107 112.648 18.8203C113.213 19.0299 113.632 19.349 113.906 19.7773C114.184 20.2057 114.323 20.7503 114.323 21.4111C114.323 21.9033 114.232 22.3226 114.049 22.6689C113.867 23.0153 113.628 23.3024 113.331 23.5303C113.035 23.7581 112.719 23.9404 112.381 24.0771L115.218 28.5H113.366L110.953 24.4941H109.346V28.5H107.706V18.5059H110.515ZM110.406 19.873H109.346V23.1406H110.481C111.242 23.1406 111.793 22.9993 112.135 22.7168C112.482 22.4342 112.655 22.0173 112.655 21.4658C112.655 20.887 112.47 20.4769 112.101 20.2354C111.736 19.9938 111.171 19.873 110.406 19.873ZM122.63 28.5L121.653 25.7246H117.831L116.854 28.5H115.124L118.843 18.4648H120.662L124.373 28.5H122.63ZM121.229 24.3164L120.279 21.582C120.242 21.4635 120.19 21.2972 120.121 21.083C120.053 20.8643 119.985 20.6432 119.916 20.4199C119.848 20.1921 119.791 20.0007 119.746 19.8457C119.7 20.0326 119.643 20.2422 119.575 20.4746C119.511 20.7025 119.447 20.9167 119.383 21.1172C119.324 21.3177 119.278 21.4727 119.246 21.582L118.289 24.3164H121.229ZM136.32 18.5059L132.826 28.5H131.09L127.597 18.5059H129.279L131.384 24.7676C131.448 24.9499 131.516 25.1709 131.589 25.4307C131.667 25.6904 131.737 25.9525 131.801 26.2168C131.869 26.4811 131.922 26.7158 131.958 26.9209C131.995 26.7158 132.045 26.4811 132.109 26.2168C132.177 25.9525 132.248 25.6904 132.321 25.4307C132.394 25.1709 132.462 24.9476 132.526 24.7607L134.638 18.5059H136.32ZM143.082 28.5H137.422V18.5059H143.082V19.8867H139.063V22.6006H142.829V23.9746H139.063V27.1123H143.082V28.5ZM151.342 28.5H144.157V27.3721L149.243 19.9004H144.315V18.5059H151.205V19.627L146.119 27.1055H151.342V28.5Z" fill="white"/>
</g>
<defs>
<clipPath id="clip0_14086_6258">
<rect x="0.34668" width="192.307" height="48" rx="5" fill="white"/>
</clipPath>
</defs>
</svg>
