<svg width="95" height="23" viewBox="0 0 95 23" fill="none" xmlns="http://www.w3.org/2000/svg">
<path d="M5.76953 10.3359H9.73047C9.77734 11.1719 9.72656 11.8672 9.57812 12.4219C9.4375 12.9766 9.23828 13.4414 8.98047 13.8164C8.73047 14.1836 8.44531 14.4844 8.125 14.7188C7.8125 14.9453 7.50391 15.1445 7.19922 15.3164C6.90234 15.4805 6.63672 15.6445 6.40234 15.8086C6.16797 15.9648 6.01172 16.1562 5.93359 16.3828C5.87891 16.5234 5.86328 16.6875 5.88672 16.875C5.91016 17.0547 5.98828 17.2266 6.12109 17.3906C6.26172 17.5547 6.46484 17.6953 6.73047 17.8125C6.99609 17.9219 7.34766 17.9766 7.78516 17.9766C8.06641 17.9766 8.39844 17.9531 8.78125 17.9062C9.17188 17.8516 9.57812 17.7734 10 17.6719C10.4219 17.5625 10.8359 17.4336 11.2422 17.2852C11.6562 17.1367 12.0273 16.9609 12.3555 16.7578L12.8711 21.3516C12.582 21.5312 12.2539 21.7109 11.8867 21.8906C11.5273 22.0703 11.1289 22.2305 10.6914 22.3711C10.2539 22.5195 9.77734 22.6406 9.26172 22.7344C8.74609 22.8281 8.19141 22.875 7.59766 22.875C6.63672 22.875 5.72656 22.7422 4.86719 22.4766C4.01562 22.2109 3.26953 21.8203 2.62891 21.3047C1.98828 20.7891 1.48047 20.1523 1.10547 19.3945C0.730469 18.6445 0.542969 17.7812 0.542969 16.8047C0.542969 16.0625 0.648438 15.4688 0.859375 15.0234C1.07031 14.5703 1.33984 14.1992 1.66797 13.9102C1.99609 13.6211 2.36328 13.3789 2.76953 13.1836C3.17578 12.9883 3.57031 12.7773 3.95312 12.5508C4.34375 12.3164 4.69922 12.0312 5.01953 11.6953C5.34766 11.3594 5.59766 10.9062 5.76953 10.3359ZM5.18359 7.24219C5.18359 6.90625 5.25 6.58984 5.38281 6.29297C5.51562 5.98828 5.69141 5.72656 5.91016 5.50781C6.13672 5.28125 6.39844 5.10547 6.69531 4.98047C6.99219 4.84766 7.30859 4.78125 7.64453 4.78125C7.98047 4.78125 8.29688 4.84766 8.59375 4.98047C8.89844 5.10547 9.16016 5.28125 9.37891 5.50781C9.60547 5.72656 9.78125 5.98828 9.90625 6.29297C10.0391 6.58984 10.1055 6.90625 10.1055 7.24219C10.1055 7.58594 10.0391 7.91016 9.90625 8.21484C9.78125 8.51172 9.60547 8.77344 9.37891 9C9.16016 9.21875 8.89844 9.39453 8.59375 9.52734C8.29688 9.66016 7.98047 9.72656 7.64453 9.72656C7.30859 9.72656 6.99219 9.66016 6.69531 9.52734C6.39844 9.39453 6.13672 9.21875 5.91016 9C5.69141 8.77344 5.51562 8.51172 5.38281 8.21484C5.25 7.91016 5.18359 7.58594 5.18359 7.24219ZM24.918 1.24219L24.8008 6.21094L21.3086 6.35156L20.418 17.4609L15.4727 17.7188L15.4961 6.60938L12.0039 6.79688L12.1445 1.26562L24.918 1.24219ZM36.6602 1.10156C36.6133 1.83594 36.5703 2.5625 36.5312 3.28125C36.4922 4 36.4414 4.72656 36.3789 5.46094L31.4102 5.71875L31.293 7.19531H34.7852L34.5273 10.8281L31.0117 10.9453L30.8945 12.6562H33.8008H35.8633C35.8164 13.5156 35.7656 14.3711 35.7109 15.2227C35.6641 16.0664 35.6211 16.9141 35.582 17.7656L25.4805 18L25.8555 1.10156H36.6602ZM56.0898 1.57031L51.8008 17.8828L45.9883 18.2109L40.7148 1.73438L46.2695 1.21875L48.5195 10.8281L50.6992 1.21875L56.0898 1.57031ZM70.0352 16.9922L64.2227 17.7422L63.5195 15.0938H60.8477L60.2617 17.7422L54.2852 17.1562L58.9492 1.54688L65.4648 1.21875L70.0352 16.9922ZM63.0977 11.5078L62.207 7.42969L61.3398 11.5078H63.0977ZM82.2812 11.7656C82.2812 12.8359 82.0938 13.7734 81.7188 14.5781C81.3516 15.375 80.8438 16.0391 80.1953 16.5703C79.5547 17.1016 78.8008 17.5 77.9336 17.7656C77.0742 18.0312 76.1484 18.1641 75.1562 18.1641C74.7734 18.1641 74.3516 18.1133 73.8906 18.0117C73.4375 17.9102 72.9766 17.7852 72.5078 17.6367C72.0391 17.4805 71.5859 17.3164 71.1484 17.1445C70.7188 16.9648 70.3359 16.7969 70 16.6406L70.5156 11.8125C71.1797 12.2109 71.9141 12.5156 72.7188 12.7266C73.5312 12.9297 74.3281 13.0312 75.1094 13.0312C75.2578 13.0312 75.4375 13.0273 75.6484 13.0195C75.8594 13.0039 76.0586 12.9688 76.2461 12.9141C76.4414 12.8516 76.6055 12.7617 76.7383 12.6445C76.8711 12.5273 76.9375 12.3594 76.9375 12.1406C76.9375 11.9922 76.8906 11.8672 76.7969 11.7656C76.7031 11.6562 76.582 11.5703 76.4336 11.5078C76.2852 11.4375 76.1172 11.3867 75.9297 11.3555C75.7422 11.3164 75.5586 11.2891 75.3789 11.2734C75.1992 11.2578 75.0312 11.25 74.875 11.25C74.7188 11.25 74.5938 11.25 74.5 11.25C73.8281 11.25 73.2148 11.1328 72.6602 10.8984C72.1133 10.6641 71.6406 10.3398 71.2422 9.92578C70.8516 9.50391 70.5469 9.00781 70.3281 8.4375C70.1094 7.85938 70 7.23438 70 6.5625C70 5.64062 70.1836 4.81641 70.5508 4.08984C70.9258 3.35547 71.4219 2.73437 72.0391 2.22656C72.6641 1.71094 73.3789 1.31641 74.1836 1.04297C74.9883 0.769531 75.8203 0.632812 76.6797 0.632812C77.0625 0.632812 77.457 0.648437 77.8633 0.679688C78.2695 0.703125 78.6719 0.75 79.0703 0.820312C79.4766 0.890625 79.8711 0.980469 80.2539 1.08984C80.6367 1.19922 81 1.33594 81.3438 1.5L80.8984 6.25781C80.3672 6.07812 79.8086 5.92969 79.2227 5.8125C78.6445 5.6875 78.0781 5.625 77.5234 5.625C77.4219 5.625 77.2891 5.62891 77.125 5.63672C76.9688 5.63672 76.8008 5.64844 76.6211 5.67188C76.4492 5.6875 76.2734 5.71484 76.0938 5.75391C75.9141 5.79297 75.7539 5.84766 75.6133 5.91797C75.4727 5.98047 75.3594 6.06641 75.2734 6.17578C75.1875 6.28516 75.1484 6.41406 75.1562 6.5625C75.1641 6.73438 75.2266 6.875 75.3438 6.98438C75.4688 7.08594 75.625 7.16797 75.8125 7.23047C76.0078 7.28516 76.2188 7.32422 76.4453 7.34766C76.6797 7.37109 76.9102 7.38672 77.1367 7.39453C77.3633 7.39453 77.5742 7.39453 77.7695 7.39453C77.9648 7.38672 78.125 7.39062 78.25 7.40625C78.875 7.44531 79.4375 7.57812 79.9375 7.80469C80.4375 8.03125 80.8594 8.33203 81.2031 8.70703C81.5547 9.08203 81.8203 9.53125 82 10.0547C82.1875 10.5703 82.2812 11.1406 82.2812 11.7656ZM89.4297 13.4297H85.4688C85.4141 12.6016 85.4609 11.9102 85.6094 11.3555C85.7578 10.793 85.957 10.3281 86.207 9.96094C86.4648 9.58594 86.75 9.28516 87.0625 9.05859C87.3828 8.82422 87.6914 8.625 87.9883 8.46094C88.293 8.28906 88.5586 8.125 88.7852 7.96875C89.0195 7.8125 89.1797 7.61719 89.2656 7.38281C89.3203 7.24219 89.3359 7.08203 89.3125 6.90234C89.2891 6.71484 89.207 6.53906 89.0664 6.375C88.9336 6.21094 88.7305 6.07422 88.457 5.96484C88.1914 5.84766 87.8438 5.78906 87.4141 5.78906C87.1328 5.78906 86.7969 5.81641 86.4062 5.87109C86.0234 5.91797 85.6211 5.99609 85.1992 6.10547C84.7773 6.20703 84.3594 6.33594 83.9453 6.49219C83.5391 6.64062 83.1719 6.8125 82.8438 7.00781L82.3281 2.41406C82.6172 2.24219 82.9414 2.06641 83.3008 1.88672C83.668 1.69922 84.0703 1.53516 84.5078 1.39453C84.9453 1.24609 85.4219 1.125 85.9375 1.03125C86.4531 0.9375 87.0078 0.890625 87.6016 0.890625C88.5625 0.890625 89.4688 1.02344 90.3203 1.28906C91.1797 1.55469 91.9297 1.94531 92.5703 2.46094C93.2109 2.97656 93.7188 3.61328 94.0938 4.37109C94.4688 5.12109 94.6562 5.98438 94.6562 6.96094C94.6562 7.70312 94.5508 8.30078 94.3398 8.75391C94.1289 9.19922 93.8594 9.56641 93.5312 9.85547C93.2031 10.1445 92.8359 10.3867 92.4297 10.582C92.0234 10.7773 91.625 10.9922 91.2344 11.2266C90.8516 11.4531 90.4961 11.7344 90.168 12.0703C89.8477 12.4062 89.6016 12.8594 89.4297 13.4297ZM90.0156 16.5234C90.0156 16.8672 89.9492 17.1875 89.8164 17.4844C89.6836 17.7812 89.5039 18.0391 89.2773 18.2578C89.0586 18.4844 88.8008 18.6602 88.5039 18.7852C88.207 18.918 87.8906 18.9844 87.5547 18.9844C87.2109 18.9844 86.8906 18.918 86.5938 18.7852C86.2969 18.6602 86.0352 18.4844 85.8086 18.2578C85.5898 18.0391 85.4141 17.7812 85.2812 17.4844C85.1562 17.1875 85.0938 16.8672 85.0938 16.5234C85.0938 16.1875 85.1562 15.8672 85.2812 15.5625C85.4141 15.2578 85.5898 14.9961 85.8086 14.7773C86.0352 14.5508 86.2969 14.3711 86.5938 14.2383C86.8906 14.1055 87.2109 14.0391 87.5547 14.0391C87.8906 14.0391 88.207 14.1055 88.5039 14.2383C88.8008 14.3711 89.0586 14.5508 89.2773 14.7773C89.5039 14.9961 89.6836 15.2578 89.8164 15.5625C89.9492 15.8672 90.0156 16.1875 90.0156 16.5234Z" fill="#FEC647"/>
</svg>
