<svg width="139" height="35" viewBox="0 0 139 35" fill="none" xmlns="http://www.w3.org/2000/svg">
<path d="M1.19238 6.85742H2.86035L3.20898 13.5225H0.84375L1.19238 6.85742ZM3.23633 4.51953C3.23633 4.94792 3.12012 5.2487 2.8877 5.42188C2.65527 5.59505 2.37044 5.68164 2.0332 5.68164C1.71419 5.68164 1.4362 5.59505 1.19922 5.42188C0.96224 5.2487 0.84375 4.94792 0.84375 4.51953C0.84375 4.10482 0.96224 3.80859 1.19922 3.63086C1.4362 3.44857 1.71419 3.35742 2.0332 3.35742C2.37044 3.35742 2.65527 3.44857 2.8877 3.63086C3.12012 3.80859 3.23633 4.10482 3.23633 4.51953ZM11.0635 11H5.30762V1.00586H11.0635V2.74219H7.42676V4.93652H10.8105V6.67285H7.42676V9.25H11.0635V11ZM18.3232 8.73047C18.3232 9.25 18.2002 9.68978 17.9541 10.0498C17.7126 10.4053 17.3503 10.6764 16.8672 10.8633C16.3841 11.0456 15.7826 11.1367 15.0625 11.1367C14.5293 11.1367 14.0713 11.1025 13.6885 11.0342C13.3102 10.9658 12.9274 10.8519 12.54 10.6924V8.96973C12.9548 9.15658 13.3991 9.31152 13.873 9.43457C14.3516 9.55306 14.7708 9.6123 15.1309 9.6123C15.5365 9.6123 15.8258 9.55306 15.999 9.43457C16.1768 9.31152 16.2656 9.15202 16.2656 8.95605C16.2656 8.82845 16.2292 8.71452 16.1562 8.61426C16.0879 8.50944 15.9375 8.39323 15.7051 8.26562C15.4727 8.13346 15.1081 7.96257 14.6113 7.75293C14.1328 7.55241 13.7386 7.34961 13.4287 7.14453C13.1234 6.93945 12.8955 6.69792 12.7451 6.41992C12.5993 6.13737 12.5264 5.77962 12.5264 5.34668C12.5264 4.6403 12.7998 4.10938 13.3467 3.75391C13.8981 3.39388 14.6341 3.21387 15.5547 3.21387C16.0286 3.21387 16.4798 3.26172 16.9082 3.35742C17.3411 3.45312 17.7855 3.60579 18.2412 3.81543L17.6123 5.31934C17.234 5.15527 16.8763 5.02083 16.5391 4.91602C16.2064 4.8112 15.8669 4.75879 15.5205 4.75879C15.2152 4.75879 14.985 4.7998 14.8301 4.88184C14.6751 4.96387 14.5977 5.08919 14.5977 5.25781C14.5977 5.38086 14.6364 5.49023 14.7139 5.58594C14.7959 5.68164 14.9508 5.78874 15.1787 5.90723C15.4111 6.02116 15.7507 6.16927 16.1973 6.35156C16.6302 6.5293 17.0062 6.71615 17.3252 6.91211C17.6442 7.10352 17.8903 7.34277 18.0635 7.62988C18.2367 7.91243 18.3232 8.2793 18.3232 8.73047ZM26.8955 7.16504C26.8955 7.80306 26.8089 8.36816 26.6357 8.86035C26.4671 9.35254 26.2188 9.76953 25.8906 10.1113C25.5671 10.4486 25.1751 10.7038 24.7148 10.877C24.2591 11.0501 23.7441 11.1367 23.1699 11.1367C22.6322 11.1367 22.1377 11.0501 21.6865 10.877C21.2399 10.7038 20.8503 10.4486 20.5176 10.1113C20.1895 9.76953 19.9342 9.35254 19.752 8.86035C19.5742 8.36816 19.4854 7.80306 19.4854 7.16504C19.4854 6.31738 19.6357 5.59961 19.9365 5.01172C20.2373 4.42383 20.6657 3.97721 21.2217 3.67188C21.7777 3.36654 22.4408 3.21387 23.2109 3.21387C23.9264 3.21387 24.5599 3.36654 25.1113 3.67188C25.6673 3.97721 26.1025 4.42383 26.417 5.01172C26.736 5.59961 26.8955 6.31738 26.8955 7.16504ZM21.6113 7.16504C21.6113 7.66634 21.666 8.08789 21.7754 8.42969C21.8848 8.77148 22.0557 9.02897 22.2881 9.20215C22.5205 9.37533 22.8236 9.46191 23.1973 9.46191C23.5664 9.46191 23.8649 9.37533 24.0928 9.20215C24.3252 9.02897 24.4938 8.77148 24.5986 8.42969C24.708 8.08789 24.7627 7.66634 24.7627 7.16504C24.7627 6.65918 24.708 6.23991 24.5986 5.90723C24.4938 5.56999 24.3252 5.31706 24.0928 5.14844C23.8604 4.97982 23.5573 4.89551 23.1836 4.89551C22.6322 4.89551 22.2311 5.08464 21.9805 5.46289C21.7344 5.84115 21.6113 6.40853 21.6113 7.16504ZM37.5869 8.73047C37.5869 9.25 37.4639 9.68978 37.2178 10.0498C36.9762 10.4053 36.6139 10.6764 36.1309 10.8633C35.6478 11.0456 35.0462 11.1367 34.3262 11.1367C33.793 11.1367 33.335 11.1025 32.9521 11.0342C32.5739 10.9658 32.1911 10.8519 31.8037 10.6924V8.96973C32.2184 9.15658 32.6628 9.31152 33.1367 9.43457C33.6152 9.55306 34.0345 9.6123 34.3945 9.6123C34.8001 9.6123 35.0895 9.55306 35.2627 9.43457C35.4404 9.31152 35.5293 9.15202 35.5293 8.95605C35.5293 8.82845 35.4928 8.71452 35.4199 8.61426C35.3516 8.50944 35.2012 8.39323 34.9688 8.26562C34.7363 8.13346 34.3717 7.96257 33.875 7.75293C33.3965 7.55241 33.0023 7.34961 32.6924 7.14453C32.387 6.93945 32.1592 6.69792 32.0088 6.41992C31.863 6.13737 31.79 5.77962 31.79 5.34668C31.79 4.6403 32.0635 4.10938 32.6104 3.75391C33.1618 3.39388 33.8978 3.21387 34.8184 3.21387C35.2923 3.21387 35.7435 3.26172 36.1719 3.35742C36.6048 3.45312 37.0492 3.60579 37.5049 3.81543L36.876 5.31934C36.4977 5.15527 36.14 5.02083 35.8027 4.91602C35.4701 4.8112 35.1305 4.75879 34.7842 4.75879C34.4788 4.75879 34.2487 4.7998 34.0938 4.88184C33.9388 4.96387 33.8613 5.08919 33.8613 5.25781C33.8613 5.38086 33.9001 5.49023 33.9775 5.58594C34.0596 5.68164 34.2145 5.78874 34.4424 5.90723C34.6748 6.02116 35.0143 6.16927 35.4609 6.35156C35.8939 6.5293 36.2699 6.71615 36.5889 6.91211C36.9079 7.10352 37.154 7.34277 37.3271 7.62988C37.5003 7.91243 37.5869 8.2793 37.5869 8.73047ZM41.2988 11H39.2139V3.35742H41.2988V11ZM42.9463 0.274414V0.417969C42.8141 0.545573 42.641 0.702799 42.4268 0.889648C42.2126 1.0765 41.9824 1.27246 41.7363 1.47754C41.4902 1.67806 41.2487 1.87174 41.0117 2.05859C40.7747 2.24089 40.5674 2.39355 40.3896 2.5166H39.002V2.33203C39.1523 2.15885 39.3255 1.95378 39.5215 1.7168C39.722 1.47526 39.9202 1.22689 40.1162 0.97168C40.3122 0.716471 40.4762 0.484049 40.6084 0.274414H42.9463ZM51.3545 4.92285H49.5498V11H47.4648V4.92285H46.3164V3.91797L47.4648 3.35742V2.79688C47.4648 2.14518 47.5742 1.63932 47.793 1.2793C48.0163 0.914714 48.3285 0.659505 48.7295 0.513672C49.1351 0.363281 49.6136 0.288086 50.165 0.288086C50.5706 0.288086 50.9398 0.322266 51.2725 0.390625C51.6051 0.454427 51.8763 0.527344 52.0859 0.609375L51.5527 2.14062C51.3932 2.09049 51.2201 2.04492 51.0332 2.00391C50.8464 1.96289 50.6322 1.94238 50.3906 1.94238C50.099 1.94238 49.8848 2.03125 49.748 2.20898C49.6159 2.38216 49.5498 2.60547 49.5498 2.87891V3.35742H51.3545V4.92285ZM59.5713 3.35742V11H57.9717L57.6914 10.0225H57.582C57.418 10.2822 57.2129 10.4941 56.9668 10.6582C56.7207 10.8223 56.4495 10.943 56.1533 11.0205C55.8571 11.098 55.5495 11.1367 55.2305 11.1367C54.6836 11.1367 54.2074 11.041 53.8018 10.8496C53.3962 10.6536 53.0794 10.3506 52.8516 9.94043C52.6283 9.53027 52.5166 8.99707 52.5166 8.34082V3.35742H54.6016V7.82129C54.6016 8.36816 54.6995 8.7806 54.8955 9.05859C55.0915 9.33659 55.4036 9.47559 55.832 9.47559C56.2559 9.47559 56.5885 9.37988 56.8301 9.18848C57.0716 8.99251 57.2402 8.70768 57.3359 8.33398C57.4362 7.95573 57.4863 7.49544 57.4863 6.95312V3.35742H59.5713ZM64.9102 3.21387C65.6165 3.21387 66.2249 3.35059 66.7354 3.62402C67.2458 3.8929 67.64 4.28483 67.918 4.7998C68.196 5.31478 68.335 5.94368 68.335 6.68652V7.69824H63.4062C63.429 8.28613 63.6045 8.7487 63.9326 9.08594C64.2653 9.41862 64.7256 9.58496 65.3135 9.58496C65.8011 9.58496 66.2477 9.53483 66.6533 9.43457C67.0589 9.33431 67.4759 9.18392 67.9043 8.9834V10.5967C67.526 10.7835 67.1296 10.9202 66.7148 11.0068C66.3047 11.0934 65.8057 11.1367 65.2178 11.1367C64.4521 11.1367 63.7731 10.9954 63.1807 10.7129C62.5928 10.4303 62.1302 9.99967 61.793 9.4209C61.4603 8.84212 61.2939 8.11296 61.2939 7.2334C61.2939 6.34017 61.4443 5.59733 61.7451 5.00488C62.0505 4.40788 62.4743 3.96126 63.0166 3.66504C63.5589 3.36426 64.1901 3.21387 64.9102 3.21387ZM64.9238 4.69727C64.5182 4.69727 64.181 4.82715 63.9121 5.08691C63.6478 5.34668 63.4951 5.75456 63.4541 6.31055H66.3799C66.3753 6.00065 66.3184 5.72493 66.209 5.4834C66.1042 5.24186 65.9447 5.05046 65.7305 4.90918C65.5208 4.7679 65.252 4.69727 64.9238 4.69727ZM80.6807 3.35742V11H79.0811L78.8008 10.0225H78.6914C78.5273 10.2822 78.3223 10.4941 78.0762 10.6582C77.8301 10.8223 77.5589 10.943 77.2627 11.0205C76.9665 11.098 76.6589 11.1367 76.3398 11.1367C75.793 11.1367 75.3167 11.041 74.9111 10.8496C74.5055 10.6536 74.1888 10.3506 73.9609 9.94043C73.7376 9.53027 73.626 8.99707 73.626 8.34082V3.35742H75.7109V7.82129C75.7109 8.36816 75.8089 8.7806 76.0049 9.05859C76.2008 9.33659 76.513 9.47559 76.9414 9.47559C77.3652 9.47559 77.6979 9.37988 77.9395 9.18848C78.181 8.99251 78.3496 8.70768 78.4453 8.33398C78.5456 7.95573 78.5957 7.49544 78.5957 6.95312V3.35742H80.6807ZM87.209 3.21387C88.0247 3.21387 88.681 3.43717 89.1777 3.88379C89.6745 4.32585 89.9229 5.03678 89.9229 6.0166V11H87.8379V6.53613C87.8379 5.98926 87.7376 5.57682 87.5371 5.29883C87.3411 5.02083 87.0312 4.88184 86.6074 4.88184C85.9694 4.88184 85.5342 5.09831 85.3018 5.53125C85.0693 5.96419 84.9531 6.58854 84.9531 7.4043V11H82.8682V3.35742H84.4609L84.7412 4.33496H84.8574C85.0215 4.07064 85.2243 3.85645 85.4658 3.69238C85.7119 3.52832 85.9831 3.40755 86.2793 3.33008C86.5801 3.2526 86.89 3.21387 87.209 3.21387ZM104.682 3.21387C105.548 3.21387 106.201 3.43717 106.644 3.88379C107.09 4.32585 107.313 5.03678 107.313 6.0166V11H105.222V6.53613C105.222 5.98926 105.128 5.57682 104.941 5.29883C104.755 5.02083 104.465 4.88184 104.073 4.88184C103.522 4.88184 103.13 5.08008 102.897 5.47656C102.665 5.86849 102.549 6.43132 102.549 7.16504V11H100.464V6.53613C100.464 6.17155 100.423 5.86621 100.341 5.62012C100.259 5.37402 100.133 5.18945 99.9648 5.06641C99.7962 4.94336 99.5798 4.88184 99.3154 4.88184C98.9281 4.88184 98.6227 4.97982 98.3994 5.17578C98.1807 5.36719 98.0234 5.65202 97.9277 6.03027C97.8366 6.40397 97.791 6.86198 97.791 7.4043V11H95.7061V3.35742H97.2988L97.5791 4.33496H97.6953C97.8503 4.07064 98.0439 3.85645 98.2764 3.69238C98.5133 3.52832 98.7731 3.40755 99.0557 3.33008C99.3382 3.2526 99.6253 3.21387 99.917 3.21387C100.478 3.21387 100.951 3.30501 101.339 3.4873C101.731 3.6696 102.032 3.95215 102.241 4.33496H102.426C102.654 3.94303 102.975 3.6582 103.39 3.48047C103.809 3.30273 104.24 3.21387 104.682 3.21387ZM112.591 3.2002C113.616 3.2002 114.402 3.4235 114.949 3.87012C115.496 4.31673 115.77 4.99577 115.77 5.90723V11H114.313L113.91 9.96094H113.855C113.637 10.2344 113.413 10.4577 113.186 10.6309C112.958 10.804 112.696 10.9316 112.399 11.0137C112.103 11.0957 111.743 11.1367 111.319 11.1367C110.868 11.1367 110.463 11.0501 110.103 10.877C109.747 10.7038 109.467 10.4395 109.262 10.084C109.057 9.72396 108.954 9.26823 108.954 8.7168C108.954 7.9056 109.239 7.30859 109.809 6.92578C110.378 6.53841 111.233 6.32422 112.372 6.2832L113.698 6.24219V5.90723C113.698 5.50618 113.593 5.21224 113.384 5.02539C113.174 4.83854 112.882 4.74512 112.509 4.74512C112.14 4.74512 111.777 4.79753 111.422 4.90234C111.066 5.00716 110.711 5.13932 110.355 5.29883L109.665 3.89062C110.071 3.67643 110.524 3.50781 111.025 3.38477C111.531 3.26172 112.053 3.2002 112.591 3.2002ZM113.698 7.45898L112.892 7.48633C112.217 7.50456 111.748 7.62533 111.483 7.84863C111.224 8.07194 111.094 8.36589 111.094 8.73047C111.094 9.04948 111.187 9.27734 111.374 9.41406C111.561 9.54622 111.805 9.6123 112.105 9.6123C112.552 9.6123 112.928 9.48014 113.233 9.21582C113.543 8.9515 113.698 8.57552 113.698 8.08789V7.45898ZM121.143 9.47559C121.37 9.47559 121.591 9.4528 121.806 9.40723C122.024 9.36165 122.241 9.30469 122.455 9.23633V10.7881C122.232 10.8883 121.954 10.9704 121.621 11.0342C121.293 11.1025 120.933 11.1367 120.541 11.1367C120.085 11.1367 119.675 11.0638 119.311 10.918C118.951 10.7676 118.666 10.5101 118.456 10.1455C118.251 9.77637 118.148 9.26367 118.148 8.60742V4.92285H117.15V4.04102L118.299 3.34375L118.9 1.73047H120.233V3.35742H122.373V4.92285H120.233V8.60742C120.233 8.89909 120.315 9.11784 120.479 9.26367C120.648 9.40495 120.869 9.47559 121.143 9.47559ZM127.11 11.1367C126.354 11.1367 125.709 11 125.176 10.7266C124.643 10.4486 124.237 10.0202 123.959 9.44141C123.681 8.86263 123.542 8.12207 123.542 7.21973C123.542 6.28548 123.699 5.52441 124.014 4.93652C124.333 4.34408 124.772 3.90885 125.333 3.63086C125.898 3.35286 126.552 3.21387 127.295 3.21387C127.824 3.21387 128.279 3.26628 128.662 3.37109C129.049 3.47135 129.387 3.59212 129.674 3.7334L129.059 5.34668C128.73 5.21452 128.425 5.10742 128.143 5.02539C127.86 4.9388 127.577 4.89551 127.295 4.89551C126.93 4.89551 126.627 4.9821 126.386 5.15527C126.144 5.32389 125.964 5.5791 125.846 5.9209C125.727 6.2627 125.668 6.69108 125.668 7.20605C125.668 7.71191 125.732 8.13118 125.859 8.46387C125.987 8.79655 126.172 9.04492 126.413 9.20898C126.655 9.36849 126.949 9.44824 127.295 9.44824C127.728 9.44824 128.113 9.39128 128.45 9.27734C128.787 9.15885 129.116 8.99479 129.435 8.78516V10.5693C129.116 10.7699 128.781 10.9134 128.43 11C128.083 11.0911 127.644 11.1367 127.11 11.1367ZM133.297 0.363281V2.53027C133.297 2.90853 133.283 3.26855 133.256 3.61035C133.233 3.95215 133.215 4.19368 133.201 4.33496H133.311C133.475 4.07064 133.668 3.85645 133.892 3.69238C134.119 3.52832 134.37 3.40755 134.644 3.33008C134.917 3.2526 135.211 3.21387 135.525 3.21387C136.077 3.21387 136.558 3.31185 136.968 3.50781C137.378 3.69922 137.697 4.00228 137.925 4.41699C138.153 4.82715 138.267 5.36035 138.267 6.0166V11H136.182V6.53613C136.182 5.98926 136.081 5.57682 135.881 5.29883C135.68 5.02083 135.37 4.88184 134.951 4.88184C134.532 4.88184 134.201 4.97982 133.96 5.17578C133.718 5.36719 133.548 5.65202 133.447 6.03027C133.347 6.40397 133.297 6.86198 133.297 7.4043V11H131.212V0.363281H133.297ZM32.3848 31L29.9785 23.1592H29.917C29.9261 23.346 29.9398 23.6286 29.958 24.0068C29.9808 24.3805 30.0013 24.7793 30.0195 25.2031C30.0378 25.627 30.0469 26.0098 30.0469 26.3516V31H28.1533V21.0059H31.0381L33.4033 28.6484H33.4443L35.9531 21.0059H38.8379V31H36.8623V26.2695C36.8623 25.9551 36.8669 25.5928 36.876 25.1826C36.8896 24.7725 36.9056 24.3828 36.9238 24.0137C36.9421 23.64 36.9557 23.3597 36.9648 23.1729H36.9033L34.3262 31H32.3848ZM48.1416 27.165C48.1416 27.8031 48.055 28.3682 47.8818 28.8604C47.7132 29.3525 47.4648 29.7695 47.1367 30.1113C46.8132 30.4486 46.4212 30.7038 45.9609 30.877C45.5052 31.0501 44.9902 31.1367 44.416 31.1367C43.8783 31.1367 43.3838 31.0501 42.9326 30.877C42.486 30.7038 42.0964 30.4486 41.7637 30.1113C41.4355 29.7695 41.1803 29.3525 40.998 28.8604C40.8203 28.3682 40.7314 27.8031 40.7314 27.165C40.7314 26.3174 40.8818 25.5996 41.1826 25.0117C41.4834 24.4238 41.9118 23.9772 42.4678 23.6719C43.0238 23.3665 43.6868 23.2139 44.457 23.2139C45.1725 23.2139 45.806 23.3665 46.3574 23.6719C46.9134 23.9772 47.3486 24.4238 47.6631 25.0117C47.9821 25.5996 48.1416 26.3174 48.1416 27.165ZM42.8574 27.165C42.8574 27.6663 42.9121 28.0879 43.0215 28.4297C43.1309 28.7715 43.3018 29.029 43.5342 29.2021C43.7666 29.3753 44.0697 29.4619 44.4434 29.4619C44.8125 29.4619 45.111 29.3753 45.3389 29.2021C45.5713 29.029 45.7399 28.7715 45.8447 28.4297C45.9541 28.0879 46.0088 27.6663 46.0088 27.165C46.0088 26.6592 45.9541 26.2399 45.8447 25.9072C45.7399 25.57 45.5713 25.3171 45.3389 25.1484C45.1064 24.9798 44.8034 24.8955 44.4297 24.8955C43.8783 24.8955 43.4772 25.0846 43.2266 25.4629C42.9805 25.8411 42.8574 26.4085 42.8574 27.165ZM52.0996 34.3633C51.0332 34.3633 50.2174 34.1764 49.6523 33.8027C49.0918 33.4336 48.8115 32.9141 48.8115 32.2441C48.8115 31.7839 48.9551 31.3988 49.2422 31.0889C49.5293 30.779 49.9508 30.5579 50.5068 30.4258C50.2926 30.3346 50.1058 30.1865 49.9463 29.9814C49.7868 29.7718 49.707 29.5508 49.707 29.3184C49.707 29.0267 49.7913 28.7852 49.96 28.5938C50.1286 28.3978 50.3724 28.2064 50.6914 28.0195C50.2904 27.8464 49.9714 27.5684 49.7344 27.1855C49.502 26.8027 49.3857 26.3516 49.3857 25.832C49.3857 25.276 49.5065 24.8044 49.748 24.417C49.9941 24.0251 50.3496 23.7266 50.8145 23.5215C51.2839 23.3164 51.8535 23.2139 52.5234 23.2139C52.6647 23.2139 52.8288 23.223 53.0156 23.2412C53.2025 23.2594 53.3734 23.2799 53.5283 23.3027C53.6878 23.3255 53.7949 23.3438 53.8496 23.3574H56.5156V24.417L55.3193 24.7246C55.4287 24.8932 55.5107 25.0732 55.5654 25.2646C55.6201 25.4561 55.6475 25.6589 55.6475 25.873C55.6475 26.6934 55.3604 27.3337 54.7861 27.7939C54.2165 28.2497 53.4235 28.4775 52.4072 28.4775C52.1657 28.4639 51.9378 28.4456 51.7236 28.4229C51.6188 28.5049 51.5391 28.5915 51.4844 28.6826C51.4297 28.7738 51.4023 28.8695 51.4023 28.9697C51.4023 29.07 51.4434 29.1543 51.5254 29.2227C51.612 29.2865 51.7396 29.3366 51.9082 29.373C52.0814 29.4049 52.2956 29.4209 52.5508 29.4209H53.8496C54.6882 29.4209 55.3262 29.6009 55.7637 29.9609C56.2057 30.321 56.4268 30.8496 56.4268 31.5469C56.4268 32.4401 56.0531 33.1328 55.3057 33.625C54.5628 34.1172 53.4941 34.3633 52.0996 34.3633ZM52.1885 33.0029C52.6852 33.0029 53.1113 32.9551 53.4668 32.8594C53.8268 32.7682 54.1025 32.6361 54.2939 32.4629C54.4854 32.2943 54.5811 32.0915 54.5811 31.8545C54.5811 31.6631 54.5241 31.5104 54.4102 31.3965C54.3008 31.2871 54.1322 31.2096 53.9043 31.1641C53.681 31.1185 53.3939 31.0957 53.043 31.0957H51.9629C51.7077 31.0957 51.4775 31.1367 51.2725 31.2188C51.0719 31.3008 50.9124 31.4147 50.7939 31.5605C50.6755 31.7109 50.6162 31.8841 50.6162 32.0801C50.6162 32.3672 50.7529 32.5928 51.0264 32.7568C51.3044 32.9209 51.6917 33.0029 52.1885 33.0029ZM52.5234 27.2061C52.9154 27.2061 53.2025 27.0853 53.3848 26.8438C53.5671 26.6022 53.6582 26.2741 53.6582 25.8594C53.6582 25.3991 53.5625 25.055 53.3711 24.8271C53.1842 24.5947 52.9017 24.4785 52.5234 24.4785C52.1406 24.4785 51.8535 24.5947 51.6621 24.8271C51.4707 25.055 51.375 25.3991 51.375 25.8594C51.375 26.2741 51.4684 26.6022 51.6553 26.8438C51.8467 27.0853 52.1361 27.2061 52.5234 27.2061ZM64.7939 23.3574V31H63.1943L62.9141 30.0225H62.8047C62.6406 30.2822 62.4355 30.4941 62.1895 30.6582C61.9434 30.8223 61.6722 30.943 61.376 31.0205C61.0798 31.098 60.7721 31.1367 60.4531 31.1367C59.9062 31.1367 59.43 31.041 59.0244 30.8496C58.6188 30.6536 58.3021 30.3506 58.0742 29.9404C57.8509 29.5303 57.7393 28.9971 57.7393 28.3408V23.3574H59.8242V27.8213C59.8242 28.3682 59.9222 28.7806 60.1182 29.0586C60.3141 29.3366 60.6263 29.4756 61.0547 29.4756C61.4785 29.4756 61.8112 29.3799 62.0527 29.1885C62.2943 28.9925 62.4629 28.7077 62.5586 28.334C62.6589 27.9557 62.709 27.4954 62.709 26.9531V23.3574H64.7939ZM69.0664 31H66.9814V20.3633H69.0664V31ZM78.2061 27.165C78.2061 27.8031 78.1195 28.3682 77.9463 28.8604C77.7777 29.3525 77.5293 29.7695 77.2012 30.1113C76.8776 30.4486 76.4857 30.7038 76.0254 30.877C75.5697 31.0501 75.0547 31.1367 74.4805 31.1367C73.9427 31.1367 73.4482 31.0501 72.9971 30.877C72.5505 30.7038 72.1608 30.4486 71.8281 30.1113C71.5 29.7695 71.2448 29.3525 71.0625 28.8604C70.8848 28.3682 70.7959 27.8031 70.7959 27.165C70.7959 26.3174 70.9463 25.5996 71.2471 25.0117C71.5479 24.4238 71.9762 23.9772 72.5322 23.6719C73.0882 23.3665 73.7513 23.2139 74.5215 23.2139C75.237 23.2139 75.8704 23.3665 76.4219 23.6719C76.9779 23.9772 77.4131 24.4238 77.7275 25.0117C78.0465 25.5996 78.2061 26.3174 78.2061 27.165ZM72.9219 27.165C72.9219 27.6663 72.9766 28.0879 73.0859 28.4297C73.1953 28.7715 73.3662 29.029 73.5986 29.2021C73.8311 29.3753 74.1341 29.4619 74.5078 29.4619C74.877 29.4619 75.1755 29.3753 75.4033 29.2021C75.6357 29.029 75.8044 28.7715 75.9092 28.4297C76.0186 28.0879 76.0732 27.6663 76.0732 27.165C76.0732 26.6592 76.0186 26.2399 75.9092 25.9072C75.8044 25.57 75.6357 25.3171 75.4033 25.1484C75.1709 24.9798 74.8678 24.8955 74.4941 24.8955C73.9427 24.8955 73.5417 25.0846 73.291 25.4629C73.0449 25.8411 72.9219 26.4085 72.9219 27.165ZM85.2607 28.7305C85.2607 29.25 85.1377 29.6898 84.8916 30.0498C84.6501 30.4053 84.2878 30.6764 83.8047 30.8633C83.3216 31.0456 82.7201 31.1367 82 31.1367C81.4668 31.1367 81.0088 31.1025 80.626 31.0342C80.2477 30.9658 79.8649 30.8519 79.4775 30.6924V28.9697C79.8923 29.1566 80.3366 29.3115 80.8105 29.4346C81.2891 29.5531 81.7083 29.6123 82.0684 29.6123C82.474 29.6123 82.7633 29.5531 82.9365 29.4346C83.1143 29.3115 83.2031 29.152 83.2031 28.9561C83.2031 28.8285 83.1667 28.7145 83.0938 28.6143C83.0254 28.5094 82.875 28.3932 82.6426 28.2656C82.4102 28.1335 82.0456 27.9626 81.5488 27.7529C81.0703 27.5524 80.6761 27.3496 80.3662 27.1445C80.0609 26.9395 79.833 26.6979 79.6826 26.4199C79.5368 26.1374 79.4639 25.7796 79.4639 25.3467C79.4639 24.6403 79.7373 24.1094 80.2842 23.7539C80.8356 23.3939 81.5716 23.2139 82.4922 23.2139C82.9661 23.2139 83.4173 23.2617 83.8457 23.3574C84.2786 23.4531 84.723 23.6058 85.1787 23.8154L84.5498 25.3193C84.1715 25.1553 83.8138 25.0208 83.4766 24.916C83.1439 24.8112 82.8044 24.7588 82.458 24.7588C82.1527 24.7588 81.9225 24.7998 81.7676 24.8818C81.6126 24.9639 81.5352 25.0892 81.5352 25.2578C81.5352 25.3809 81.5739 25.4902 81.6514 25.5859C81.7334 25.6816 81.8883 25.7887 82.1162 25.9072C82.3486 26.0212 82.6882 26.1693 83.1348 26.3516C83.5677 26.5293 83.9437 26.7161 84.2627 26.9121C84.5817 27.1035 84.8278 27.3428 85.001 27.6299C85.1742 27.9124 85.2607 28.2793 85.2607 28.7305ZM93.833 27.165C93.833 27.8031 93.7464 28.3682 93.5732 28.8604C93.4046 29.3525 93.1562 29.7695 92.8281 30.1113C92.5046 30.4486 92.1126 30.7038 91.6523 30.877C91.1966 31.0501 90.6816 31.1367 90.1074 31.1367C89.5697 31.1367 89.0752 31.0501 88.624 30.877C88.1774 30.7038 87.7878 30.4486 87.4551 30.1113C87.127 29.7695 86.8717 29.3525 86.6895 28.8604C86.5117 28.3682 86.4229 27.8031 86.4229 27.165C86.4229 26.3174 86.5732 25.5996 86.874 25.0117C87.1748 24.4238 87.6032 23.9772 88.1592 23.6719C88.7152 23.3665 89.3783 23.2139 90.1484 23.2139C90.8639 23.2139 91.4974 23.3665 92.0488 23.6719C92.6048 23.9772 93.04 24.4238 93.3545 25.0117C93.6735 25.5996 93.833 26.3174 93.833 27.165ZM88.5488 27.165C88.5488 27.6663 88.6035 28.0879 88.7129 28.4297C88.8223 28.7715 88.9932 29.029 89.2256 29.2021C89.458 29.3753 89.7611 29.4619 90.1348 29.4619C90.5039 29.4619 90.8024 29.3753 91.0303 29.2021C91.2627 29.029 91.4313 28.7715 91.5361 28.4297C91.6455 28.0879 91.7002 27.6663 91.7002 27.165C91.7002 26.6592 91.6455 26.2399 91.5361 25.9072C91.4313 25.57 91.2627 25.3171 91.0303 25.1484C90.7979 24.9798 90.4948 24.8955 90.1211 24.8955C89.5697 24.8955 89.1686 25.0846 88.918 25.4629C88.6719 25.8411 88.5488 26.4085 88.5488 27.165ZM98.0986 31.98H112.099V17.98H98.0986V31.98ZM114.942 27.6846H113.274L112.926 21.0059H115.291L114.942 27.6846ZM112.898 30.0225C112.898 29.5941 113.015 29.2933 113.247 29.1201C113.484 28.9469 113.769 28.8604 114.102 28.8604C114.425 28.8604 114.703 28.9469 114.936 29.1201C115.173 29.2933 115.291 29.5941 115.291 30.0225C115.291 30.4326 115.173 30.7288 114.936 30.9111C114.703 31.0934 114.425 31.1846 114.102 31.1846C113.769 31.1846 113.484 31.0934 113.247 30.9111C113.015 30.7288 112.898 30.4326 112.898 30.0225Z" fill="white"/>
</svg>
